<svg width="35" height="27" viewBox="0 0 35 27" fill="none" xmlns="http://www.w3.org/2000/svg">
<path d="M7.8 26.6C5.46667 26.6 3.63333 25.7 2.3 23.9C0.966667 22.1 0.3 19.7667 0.3 16.9C0.3 13.5667 1.16667 10.3667 2.9 7.3C4.63333 4.23333 7.4 1.8 11.2 -4.76837e-06L15.4 3.9C12.6667 4.83333 10.4667 6.26666 8.8 8.2C7.13333 10.0667 6.06667 12.0333 5.6 14.1L6 14.3C6.26667 14.1 6.6 13.9333 7 13.8C7.4 13.6667 8 13.6 8.8 13.6C10 13.6 11.2 14.1333 12.4 15.2C13.6667 16.2 14.3 17.7667 14.3 19.9C14.3 21.7 13.6667 23.2667 12.4 24.6C11.1333 25.9333 9.6 26.6 7.8 26.6ZM26.6 26.6C24.2667 26.6 22.4333 25.7 21.1 23.9C19.7667 22.1 19.1 19.7667 19.1 16.9C19.1 13.5667 19.9667 10.3667 21.7 7.3C23.4333 4.23333 26.2 1.8 30 -4.76837e-06L34.2 3.9C31.4667 4.83333 29.2667 6.26666 27.6 8.2C25.9333 10.0667 24.8667 12.0333 24.4 14.1L24.8 14.3C25.0667 14.1 25.4 13.9333 25.8 13.8C26.2 13.6667 26.8 13.6 27.6 13.6C28.8 13.6 30 14.1333 31.2 15.2C32.4667 16.2 33.1 17.7667 33.1 19.9C33.1 21.7 32.4667 23.2667 31.2 24.6C29.9333 25.9333 28.4 26.6 26.6 26.6Z" fill="black" fill-opacity="0.15"/>
</svg>
