<?xml version="1.0" encoding="utf-8"?>
<!-- Generator: Adobe Illustrator 24.0.1, SVG Export Plug-In . SVG Version: 6.00 Build 0)  -->
<svg version="1.1" id="Слой_1" xmlns="http://www.w3.org/2000/svg" xmlns:xlink="http://www.w3.org/1999/xlink" x="0px" y="0px"
	 viewBox="0 0 35 27" style="enable-background:new 0 0 35 27;" xml:space="preserve">
<style type="text/css">
	.st0{fill:#F7F7F7;fill-opacity:0.15;}
</style>
<path class="st0" d="M7.8,26.6c-2.3,0-4.2-0.9-5.5-2.7c-1.3-1.8-2-4.1-2-7c0-3.3,0.9-6.5,2.6-9.6C4.6,4.2,7.4,1.8,11.2,0l4.2,3.9
	c-2.7,0.9-4.9,2.4-6.6,4.3c-1.7,1.9-2.7,3.8-3.2,5.9L6,14.3c0.3-0.2,0.6-0.4,1-0.5s1-0.2,1.8-0.2c1.2,0,2.4,0.5,3.6,1.6
	c1.3,1,1.9,2.6,1.9,4.7c0,1.8-0.6,3.4-1.9,4.7S9.6,26.6,7.8,26.6z M26.6,26.6c-2.3,0-4.2-0.9-5.5-2.7c-1.3-1.8-2-4.1-2-7
	c0-3.3,0.9-6.5,2.6-9.6C23.4,4.2,26.2,1.8,30,0l4.2,3.9c-2.7,0.9-4.9,2.4-6.6,4.3c-1.7,1.9-2.7,3.8-3.2,5.9l0.4,0.2
	c0.3-0.2,0.6-0.4,1-0.5c0.4-0.1,1-0.2,1.8-0.2c1.2,0,2.4,0.5,3.6,1.6c1.3,1,1.9,2.6,1.9,4.7c0,1.8-0.6,3.4-1.9,4.7
	S28.4,26.6,26.6,26.6z"/>
</svg>
