<svg width="17" height="16" viewBox="0 0 17 16" fill="none" xmlns="http://www.w3.org/2000/svg">
<path d="M15.6535 5.92525L11.0143 5.23138L8.94041 0.904545C8.88377 0.786079 8.79058 0.690178 8.67547 0.631885C8.38677 0.485212 8.03595 0.607439 7.8916 0.904545L5.81773 5.23138L1.17848 5.92525C1.05058 5.94406 0.933636 6.00611 0.844104 6.10013C0.735864 6.21462 0.676218 6.36866 0.678274 6.52838C0.68033 6.68811 0.743918 6.84046 0.855067 6.95196L4.21163 10.3198L3.41862 15.0754C3.40003 15.186 3.41192 15.2998 3.45296 15.4038C3.494 15.5078 3.56254 15.5979 3.6508 15.6639C3.73907 15.7299 3.84353 15.7691 3.95235 15.777C4.06116 15.785 4.16997 15.7615 4.26644 15.7091L8.41601 13.4638L12.5656 15.7091C12.6789 15.7711 12.8104 15.7918 12.9365 15.7692C13.2544 15.7128 13.4682 15.4025 13.4134 15.0754L12.6204 10.3198L15.977 6.95196C16.0683 6.85982 16.1286 6.73947 16.1469 6.60784C16.1962 6.27877 15.9733 5.97414 15.6535 5.92525Z" fill="#FFE817"/>
</svg>
