<svg width="102" height="128" viewBox="0 0 102 128" fill="none" xmlns="http://www.w3.org/2000/svg">
<path d="M36.9293 1.26992C36.8986 1.41992 36.3865 5.00992 35.7925 9.24992C35.1986 13.4799 34.6967 17.0499 34.666 17.1699C34.6046 17.4299 32.9251 19.4299 31.7576 20.6499C29.2895 23.2299 27.2413 27.8099 26.3299 32.7999C25.8383 35.4799 25.7666 36.3999 25.7666 39.9999C25.7564 43.6199 25.8178 44.4299 26.2787 47.0999C27.5076 54.2499 30.7335 59.8799 34.6967 61.8399C35.9461 62.4599 37.81 62.6699 39.1823 62.3499C44.2413 61.1899 48.3787 54.0299 49.4335 44.6399C49.5257 43.8099 49.5666 43.0499 49.5359 42.9499C49.4949 42.8599 49.4437 41.4699 49.4233 39.8599C49.3618 35.3599 48.9419 32.5999 47.7233 28.6499C46.31 24.0699 44.6715 21.2999 42.2443 19.4299C41.7937 19.0799 41.1383 18.6499 40.7901 18.4699C40.1552 18.1499 40.1449 18.1399 39.6739 17.1499C39.1413 16.0199 39.3461 17.2399 37.8305 6.49992C37.4106 3.49992 37.0419 1.03992 37.0214 1.01992C37.001 0.999924 36.96 1.10992 36.9293 1.26992Z" fill="#BFC3C7"/>
<path d="M66.3206 2.29999C66.2387 2.61999 63.2278 17.56 63.0025 18.73L62.8387 19.62L61.9682 20.18C60.9646 20.83 59.4182 22.29 58.814 23.16C58.0971 24.2 57.2573 25.74 56.9911 26.5C56.4893 27.91 55.629 30.95 55.2604 32.55C54.482 35.95 54.0724 39.35 54.0724 42.31C54.0724 43.53 54.0314 44.11 53.9598 44.16C53.6832 44.32 54.226 48.38 54.8507 50.85C56.6326 57.82 60.1248 62.63 64.1598 63.65C64.9381 63.84 66.5561 63.84 67.3345 63.65C71.8814 62.5 75.732 56.51 77.1555 48.4C77.5959 45.85 77.6778 44.75 77.6676 41.25C77.6676 38.4 77.6369 37.72 77.432 36.25C76.5616 29.87 74.5953 25.07 71.5128 21.8C70.2224 20.42 68.8399 18.75 68.7784 18.49C68.7375 18.36 68.3073 15.32 67.7953 11.75C66.4947 2.48999 66.464 2.25999 66.423 2.14999C66.4025 2.08999 66.3616 2.15999 66.3206 2.29999Z" fill="#BFC3C7"/>
<path d="M4.32202 33.61C3.69732 33.91 2.84732 34.88 2.30455 35.91C1.07564 38.23 0.563587 40.52 0.102744 45.68C-0.0201477 47.05 0.000334263 47.56 0.369009 50.91C0.614792 53.23 1.17804 55.57 1.84371 57.12C2.10997 57.72 2.13045 57.88 2.07925 58.48C1.94612 60.09 2.38648 63.64 3.02142 66.05C4.37323 71.16 7.28166 76.44 10.7226 80.01C11.6443 80.97 13.3648 82.41 14.3274 83.02C17.6046 85.12 20.81 85.53 23.1961 84.15C23.5341 83.96 24.1383 83.47 24.5274 83.06C26.4937 81.03 27.4256 77.53 27.1286 73.23C26.3401 61.66 17.5226 49.5 9.57563 49.03C8.95094 49 8.42865 49.03 7.93708 49.13C7.39431 49.25 7.18949 49.25 7.09732 49.17C6.91298 48.99 5.9913 46.2 5.69431 44.9C4.85455 41.2 4.62925 37.19 5.12082 34.35C5.17202 34.02 5.22323 33.67 5.22323 33.57C5.22323 33.33 4.86479 33.35 4.32202 33.61Z" fill="#BFC3C7"/>
<path d="M96.7775 33.5702C96.7775 33.6702 96.8287 34.0202 96.8799 34.3502C97.3919 37.2902 97.1256 41.5502 96.204 45.3402C95.8865 46.6402 95.0775 48.9902 94.8931 49.1802C94.7907 49.2802 94.6678 49.2902 94.3606 49.2102C92.169 48.6602 89.2913 49.4302 86.6389 51.2702C79.5214 56.2202 74.2371 67.3702 74.872 76.1202C75.1178 79.4902 76.0498 81.7902 77.8317 83.4302C79.2961 84.7802 81.2726 85.2802 83.4335 84.8402C90.4178 83.4302 97.7094 73.7702 99.5425 63.4802C99.7883 62.1202 99.9931 59.3802 99.9214 58.5202C99.8805 57.9502 99.9112 57.7502 100.157 57.1502C101.12 54.7602 101.458 53.0102 101.898 48.2702C102.021 46.9602 102 46.4702 101.632 43.0002C101.13 38.3302 99.5323 34.5602 97.6787 33.6602C97.054 33.3602 96.7775 33.3302 96.7775 33.5702Z" fill="#BFC3C7"/>
<path d="M48.42 71.3502C46.7098 71.5802 45.4706 71.9602 43.7911 72.7702C41.9682 73.6602 41.3947 74.1502 39.9303 76.0702C38.4146 78.0602 37.2369 80.2502 35.3321 84.5902C34.5333 86.4302 33.9393 87.6402 33.6423 88.0402C31.5941 90.8402 28.7266 92.9402 25.9206 93.7002C21.855 94.7902 17.4206 97.1502 15.2291 99.4002C14.0821 100.58 13.4574 101.44 12.5562 103.11C11.2248 105.58 10.6411 107.91 10.6309 110.8C10.6309 113.61 11.1531 115.96 12.3411 118.33C13.9285 121.51 16.6423 124.2 19.7146 125.61C24.4254 127.77 25.9718 127.93 29.9556 126.65C32.1369 125.94 32.9357 125.58 34.9736 124.33C38.7116 122.05 41.1182 120.95 43.9857 120.2C49.311 118.81 54.8001 119.55 60.7399 122.45C62.5423 123.33 63.3616 123.79 65.6863 125.23C68.4718 126.95 69.5676 127.4 71.9128 127.8C73.3977 128.05 73.7254 128.05 75.2923 127.79C79.5833 127.1 82.3791 125.72 85.0212 123.02C87.7351 120.24 89.3224 116.68 89.5989 112.71C89.9062 108.29 88.5236 104.09 85.6152 100.64C84.9086 99.8102 83.4544 98.5502 82.3893 97.8502C81.6315 97.3502 81.3857 97.2602 78.9483 96.5602C77.4941 96.1502 75.8965 95.6302 75.3845 95.4202C73.3568 94.5602 71.7899 93.4902 70.2026 91.8802C68.1646 89.8302 67.7345 89.0402 65.3483 83.1402C63.2797 78.0202 63.1773 77.8202 61.8869 76.3802C58.4664 72.5602 53.4381 70.6802 48.42 71.3502Z" fill="#BFC3C7"/>
</svg>
