<svg width="44" height="44" viewBox="0 0 44 44" fill="none" xmlns="http://www.w3.org/2000/svg">
<path d="M3.54826 4.25806H24.8386V9.22581C24.8386 9.61842 25.1556 9.93548 25.5483 9.93548H30.516V15.6129H31.9354V9.22581C31.9354 9.02933 31.8553 8.85191 31.7267 8.72335L26.0514 3.04801C25.9222 2.91876 25.7447 2.83871 25.5483 2.83871H6.38697V1.41935H33.3547V17.0323H34.7741V0.709677C34.7741 0.317068 34.457 0 34.0644 0H5.67729C5.28468 0 4.96762 0.317068 4.96762 0.709677V2.83871H2.83858C2.44597 2.83871 2.12891 3.15578 2.12891 3.54839V43.2903C2.12891 43.6829 2.44597 44 2.83858 44H26.9676V42.5806H3.54826V4.25806ZM26.2579 5.26159L29.5125 8.51613H26.2579V5.26159Z" fill="#FCFCFC"/>
<path d="M41.1627 21.2902H40.094C36.9251 21.2902 33.9446 19.8944 31.9164 17.4607L31.773 17.2882C31.5041 16.9638 30.951 16.9638 30.6821 17.2882L30.5387 17.4601C28.5098 19.8944 25.5293 21.2902 22.3604 21.2902H21.2917C20.8991 21.2902 20.582 21.6072 20.582 21.9998V33.4936C20.582 36.2883 22.0894 38.8859 24.5158 40.272L30.8751 43.9063C30.9839 43.9687 31.1059 43.9998 31.2272 43.9998C31.3485 43.9998 31.4704 43.9687 31.5793 43.9063L37.9386 40.272C40.365 38.8859 41.8723 36.2883 41.8723 33.4936V21.9998C41.8723 21.6072 41.5553 21.2902 41.1627 21.2902ZM40.453 33.4936C40.453 35.7803 39.2204 37.9052 37.2345 39.039L31.2272 42.4734L25.2199 39.0401C23.234 37.9052 22.0014 35.7803 22.0014 33.4936V22.7095H22.3604C25.7469 22.7095 28.945 21.3023 31.2272 18.8267C33.5087 21.3023 36.7074 22.7095 40.094 22.7095H40.453V33.4936Z" fill="#FCFCFC"/>
<path d="M31.2244 23.4199C26.9203 23.4199 23.418 26.9222 23.418 31.2264C23.418 35.5305 26.9203 39.0328 31.2244 39.0328C35.5286 39.0328 39.0309 35.5305 39.0309 31.2264C39.0309 26.9222 35.5286 23.4199 31.2244 23.4199ZM31.2244 37.6135C27.7024 37.6135 24.8373 34.7484 24.8373 31.2264C24.8373 27.7043 27.7024 24.8393 31.2244 24.8393C34.7465 24.8393 37.6115 27.7043 37.6115 31.2264C37.6115 34.7484 34.7465 37.6135 31.2244 37.6135Z" fill="#FCFCFC"/>
<path d="M30.8899 33.4311L29.6012 32.1424L28.5977 33.1459L30.7267 35.275C30.8608 35.4097 31.0424 35.4829 31.2285 35.4829C31.286 35.4829 31.3442 35.4759 31.4017 35.4617C31.6443 35.4004 31.8359 35.216 31.9083 34.9769L34.0374 27.8802L32.6776 27.4727L30.8899 33.4311Z" fill="#FCFCFC"/>
<path d="M4.96484 11.3535H23.4165V12.7729H4.96484V11.3535Z" fill="#FCFCFC"/>
<path d="M4.96484 14.1934H23.4165V15.6127H4.96484V14.1934Z" fill="#FCFCFC"/>
<path d="M4.96484 17.0312H23.4165V18.4506H4.96484V17.0312Z" fill="#FCFCFC"/>
<path d="M4.96484 19.8711H19.1584V21.2904H4.96484V19.8711Z" fill="#FCFCFC"/>
<path d="M4.96484 22.709H19.1584V24.1283H4.96484V22.709Z" fill="#FCFCFC"/>
<path d="M4.96484 25.5488H19.1584V26.9682H4.96484V25.5488Z" fill="#FCFCFC"/>
<path d="M4.96484 34.0645H19.1584V35.4838H4.96484V34.0645Z" fill="#FCFCFC"/>
<path d="M4.96484 36.9023H19.1584V38.3217H4.96484V36.9023Z" fill="#FCFCFC"/>
<path d="M4.96484 39.7422H19.1584V41.1615H4.96484V39.7422Z" fill="#FCFCFC"/>
<path d="M5.67969 5.67773H7.09904V7.09709H5.67969V5.67773Z" fill="#FCFCFC"/>
<path d="M8.51562 5.67773H9.93498V7.09709H8.51562V5.67773Z" fill="#FCFCFC"/>
<path d="M11.3555 5.67773H12.7748V7.09709H11.3555V5.67773Z" fill="#FCFCFC"/>
<path d="M14.1953 5.67773H23.4211V7.09709H14.1953V5.67773Z" fill="#FCFCFC"/>
</svg>
