<svg width="44" height="44" viewBox="0 0 44 44" fill="none" xmlns="http://www.w3.org/2000/svg">
<path d="M29.3867 28.2186C28.3442 28.2186 27.4961 27.4845 27.4961 26.5822C27.4961 25.6799 28.3442 24.9458 29.3867 24.9458C30.4292 24.9458 31.2773 25.6799 31.2773 26.5822C31.2773 27.0568 31.6622 27.4416 32.1367 27.4416C32.6113 27.4416 32.9961 27.0568 32.9961 26.5822C32.9961 25.0074 31.8227 23.6833 30.2461 23.3239V22.877C30.2461 22.4024 29.8613 22.0176 29.3867 22.0176C28.9122 22.0176 28.5273 22.4024 28.5273 22.877V23.3239C26.9507 23.6833 25.7773 25.0074 25.7773 26.5822C25.7773 28.4322 27.3965 29.9373 29.3867 29.9373C30.4292 29.9373 31.2773 30.6714 31.2773 31.5737C31.2773 32.4761 30.4292 33.2101 29.3867 33.2101C28.3442 33.2101 27.4961 32.4761 27.4961 31.5737C27.4961 31.0992 27.1113 30.7144 26.6367 30.7144C26.1622 30.7144 25.7773 31.0992 25.7773 31.5737C25.7773 33.1485 26.9507 34.4727 28.5273 34.832V35.2033C28.5273 35.6778 28.9122 36.0627 29.3867 36.0627C29.8613 36.0627 30.2461 35.6778 30.2461 35.2033V34.832C31.8227 34.4727 32.9961 33.1485 32.9961 31.5737C32.9961 29.7237 31.3769 28.2186 29.3867 28.2186Z" fill="#FCFCFC"/>
<path d="M38.7979 23.1055C37.6753 21.3562 36.0937 19.9565 34.2242 19.0578C33.7963 18.852 33.2828 19.0321 33.0772 19.4599C32.8716 19.8877 33.0516 20.4011 33.4794 20.6068C36.7374 22.1729 38.8424 25.5192 38.8424 29.1319C38.8424 30.6777 38.4614 32.2107 37.7406 33.5655C37.5177 33.9844 37.6766 34.5048 38.0956 34.7278C38.2242 34.7962 38.3624 34.8286 38.4985 34.8286C38.806 34.8286 39.1034 34.6631 39.2579 34.3727C40.1105 32.7705 40.5612 30.9582 40.5612 29.1319C40.5612 26.9869 39.9514 24.903 38.7979 23.1055Z" fill="#FCFCFC"/>
<path d="M30.7375 17.961L30.6797 17.9609C30.2051 17.9609 29.8203 18.3457 29.8203 18.8203C29.8203 19.2949 30.2051 19.6797 30.6797 19.6797L30.7295 19.6798C30.7308 19.6798 30.7321 19.6798 30.7336 19.6798C31.2063 19.6798 31.5906 19.2977 31.5929 18.8244C31.595 18.3498 31.2121 17.9633 30.7375 17.961Z" fill="#FCFCFC"/>
<path d="M25.3004 37.6574C22.0425 36.0912 19.9375 32.7449 19.9375 29.1323C19.9375 27.5865 20.3185 26.0534 21.0393 24.6987C21.2622 24.2798 21.1033 23.7593 20.6843 23.5364C20.2654 23.3135 19.7448 23.4724 19.522 23.8914C18.6694 25.4937 18.2188 27.306 18.2188 29.1323C18.2188 31.2773 18.8285 33.3611 19.982 35.1587C21.1046 36.9079 22.6862 38.3077 24.5558 39.2065C24.6758 39.2642 24.8027 39.2915 24.9275 39.2915C25.2476 39.2915 25.5547 39.112 25.7027 38.8043C25.9082 38.3765 25.7282 37.863 25.3004 37.6574Z" fill="#FCFCFC"/>
<path d="M28.1005 38.5861L28.0507 38.5859C27.574 38.5851 27.1897 38.9666 27.1875 39.4413C27.1853 39.9159 27.5684 40.3025 28.0429 40.3047L28.1005 40.3049C28.5751 40.3049 28.9599 39.92 28.9599 39.4455C28.9599 38.9709 28.5751 38.5861 28.1005 38.5861Z" fill="#FCFCFC"/>
<path d="M33.2929 15.0535C33.1883 14.8043 33.0602 14.5694 32.9111 14.3515H35.1484C37.3281 14.3515 39.1015 12.5781 39.1015 10.3984C39.1015 8.2187 37.3281 6.4453 35.1484 6.4453H28.2665C28.704 5.80919 28.9609 5.03962 28.9609 4.21093C28.9609 2.03122 27.1875 0.257812 25.0078 0.257812H3.95312C1.7734 0.257812 0 2.03122 0 4.21093C0 6.39064 1.7734 8.16405 3.95312 8.16405H10.835C10.3975 8.80016 10.1406 9.56972 10.1406 10.3984C10.1406 11.2271 10.3974 11.9967 10.835 12.6328H8.59373C6.41402 12.6328 4.64062 14.4062 4.64062 16.5859C4.64062 17.8378 5.22619 18.9549 6.13722 19.6797C5.22619 20.4044 4.64062 21.5215 4.64062 22.7734C4.64062 24.0252 5.22619 25.1423 6.13722 25.8671C5.22619 26.5919 4.64062 27.709 4.64062 28.9609C4.64062 30.2127 5.22619 31.3298 6.13722 32.0546C5.22619 32.7794 4.64062 33.8965 4.64062 35.1484C4.64062 37.3281 6.41402 39.1015 8.59373 39.1015H18.7214C21.3895 41.9552 25.185 43.7422 29.3907 43.7422C37.4463 43.7422 44 37.1884 44 29.1328C44 22.4283 39.4599 16.7649 33.2929 15.0535ZM35.1484 8.16405C36.3805 8.16405 37.3827 9.16642 37.3827 10.3984C37.3827 11.6304 36.3805 12.6328 35.1484 12.6328H29.6484H14.0937C12.8616 12.6328 11.8594 11.6304 11.8594 10.3984C11.8594 9.16642 12.8616 8.16405 14.0937 8.16405H35.1484ZM3.95312 6.4453C2.72103 6.4453 1.71875 5.44293 1.71875 4.21093C1.71875 2.97893 2.72103 1.97656 3.95312 1.97656H25.0078C26.2398 1.97656 27.2421 2.97893 27.2421 4.21093C27.2421 5.44293 26.2398 6.4453 25.0078 6.4453H3.95312ZM8.59373 14.3515H29.6484C29.9945 14.3515 30.326 14.432 30.6233 14.576C30.2169 14.5419 29.8059 14.5235 29.3907 14.5235C25.3563 14.5235 21.6988 16.1674 19.0525 18.8203H8.59373C7.36174 18.8203 6.35936 17.8179 6.35936 16.5859C6.35936 15.3539 7.36174 14.3515 8.59373 14.3515ZM8.59373 20.539H17.5841C16.6085 21.8756 15.8542 23.3831 15.3752 25.0078H8.59373C7.36165 25.0078 6.35936 24.0055 6.35936 22.7734C6.35936 21.5414 7.36165 20.539 8.59373 20.539ZM8.59373 26.7265H14.9806C14.8502 27.5097 14.7813 28.3133 14.7813 29.1328C14.7813 29.8329 14.8319 30.5212 14.9276 31.1953H8.59373C7.36165 31.1953 6.35936 30.193 6.35936 28.9609C6.35936 27.7288 7.36165 26.7265 8.59373 26.7265ZM8.59373 37.3827C7.36165 37.3827 6.35936 36.3805 6.35936 35.1484C6.35936 33.9163 7.36165 32.914 8.59373 32.914H15.2785C15.7121 34.5307 16.4165 36.0375 17.3404 37.3827H8.59373ZM29.3907 42.0234C22.2828 42.0234 16.5001 36.2407 16.5001 29.1328C16.5001 22.025 22.2828 16.2422 29.3907 16.2422C36.4985 16.2422 42.2813 22.025 42.2813 29.1328C42.2813 36.2407 36.4985 42.0234 29.3907 42.0234Z" fill="#FCFCFC"/>
</svg>
