<svg width="44" height="44" viewBox="0 0 44 44" fill="none" xmlns="http://www.w3.org/2000/svg">
<path d="M23.4839 27.6166H20.9683C20.0536 27.6166 19.3126 26.8756 19.3126 25.9609C19.3126 25.0461 20.0536 24.3052 20.9683 24.3052H25.3958C25.9995 24.3052 26.4935 23.8112 26.4935 23.2075C26.4935 22.6037 25.9995 22.1097 25.3958 22.1097H23.3193V20.5821C23.3193 19.9783 22.8253 19.4844 22.2216 19.4844C21.6178 19.4844 21.1238 19.9783 21.1238 20.5821V22.1097H20.9683C18.8461 22.1097 17.1172 23.8386 17.1172 25.9609C17.1172 28.0831 18.8461 29.812 20.9683 29.812H23.4839C24.3987 29.812 25.1396 30.553 25.1396 31.4677C25.1396 32.3825 24.3987 33.1235 23.4839 33.1235H18.9742C18.3704 33.1235 17.8764 33.6174 17.8764 34.2212C17.8764 34.8249 18.3704 35.3189 18.9742 35.3189H21.133V36.8831C21.133 37.4869 21.627 37.9808 22.2307 37.9808C22.8344 37.9808 23.3284 37.4869 23.3284 36.8831V35.3189H23.5114C23.5205 35.3189 23.5297 35.3189 23.5388 35.3189C25.6428 35.2914 27.3351 33.5717 27.3351 31.4677C27.3351 29.3455 25.6062 27.6166 23.4839 27.6166Z" fill="#FCFCFC"/>
<path d="M38.7224 25.1285C37.5698 22.4757 35.9781 19.9052 33.9656 17.4994C31.5323 14.5721 29.1082 12.6146 27.8733 11.7089L32.5386 3.0553C32.7673 2.62536 32.6941 2.0948 32.3373 1.75634C31.1298 0.576299 29.8492 0 28.4221 0C27.114 0 25.9157 0.493971 24.8729 0.933056C24.0496 1.27152 23.272 1.60083 22.6409 1.60083C22.4488 1.60083 22.2841 1.57339 22.1194 1.50936C19.9423 0.713513 18.2683 0.219543 16.6492 0.219543C14.6001 0.219543 12.8529 1.04283 11.1423 2.79917C10.7856 3.16507 10.7307 3.74137 11.0142 4.17131L16.0454 11.773C14.8014 12.6969 12.423 14.6362 10.0354 17.4994C8.03212 19.9052 6.43129 22.4757 5.27869 25.1285C3.83337 28.4674 3.10156 31.9526 3.10156 35.4836C3.10156 40.1763 6.92526 44 11.618 44H32.3831C37.0758 44 40.8995 40.1763 40.8995 35.4836C40.8995 31.9526 40.1677 28.4674 38.7224 25.1285ZM13.356 3.71393C14.4172 2.79917 15.4325 2.39667 16.6492 2.39667C17.9481 2.39667 19.4118 2.83576 21.3602 3.55842C21.7627 3.70478 22.1926 3.77796 22.6317 3.77796C23.702 3.77796 24.7265 3.35717 25.7053 2.94553C26.6475 2.55218 27.544 2.17713 28.413 2.17713C28.8338 2.17713 29.4284 2.25031 30.1785 2.78087L25.7876 10.9405H18.1402L13.356 3.71393ZM32.3831 41.8046H11.618C8.13275 41.8046 5.29699 38.9688 5.29699 35.4836C5.29699 29.62 7.44668 24.0582 11.6729 18.9538C14.344 15.7247 17.0608 13.7214 17.8841 13.136H26.0987C26.9311 13.7123 29.6388 15.7247 32.3099 18.9538C36.5452 24.0582 38.6858 29.6108 38.6858 35.4836C38.7041 38.9688 35.8683 41.8046 32.3831 41.8046Z" fill="#FCFCFC"/>
</svg>
