<svg width="44" height="44" viewBox="0 0 44 44" fill="none" xmlns="http://www.w3.org/2000/svg">
<path d="M40.3343 4.125H34.375V1.375C34.375 0.614625 33.7604 0 33 0C32.2396 0 31.625 0.614625 31.625 1.375V4.125H23.375V1.375C23.375 0.614625 22.759 0 22 0C21.241 0 20.625 0.614625 20.625 1.375V4.125H12.375V1.375C12.375 0.614625 11.759 0 11 0C10.241 0 9.625 0.614625 9.625 1.375V4.125H3.66712C1.64175 4.125 0 5.76537 0 7.79075V40.3329C0 42.3582 1.64175 44 3.66712 44H40.3343C42.3596 44 44 42.3582 44 40.3329V7.79075C44 5.76537 42.3596 4.125 40.3343 4.125ZM41.25 40.3329C41.25 40.8389 40.8389 41.25 40.3343 41.25H3.66712C3.16113 41.25 2.75 40.8389 2.75 40.3329V7.79075C2.75 7.28612 3.16113 6.875 3.66712 6.875H9.625V9.625C9.625 10.3854 10.241 11 11 11C11.759 11 12.375 10.3854 12.375 9.625V6.875H20.625V9.625C20.625 10.3854 21.241 11 22 11C22.759 11 23.375 10.3854 23.375 9.625V6.875H31.625V9.625C31.625 10.3854 32.2396 11 33 11C33.7604 11 34.375 10.3854 34.375 9.625V6.875H40.3343C40.8389 6.875 41.25 7.28612 41.25 7.79075V40.3329Z" fill="#FCFCFC"/>
<path d="M15.125 16.5H9.625V20.625H15.125V16.5Z" fill="#FCFCFC"/>
<path d="M15.125 23.375H9.625V27.5H15.125V23.375Z" fill="#FCFCFC"/>
<path d="M15.125 30.25H9.625V34.375H15.125V30.25Z" fill="#FCFCFC"/>
<path d="M24.75 30.25H19.25V34.375H24.75V30.25Z" fill="#FCFCFC"/>
<path d="M24.75 23.375H19.25V27.5H24.75V23.375Z" fill="#FCFCFC"/>
<path d="M24.75 16.5H19.25V20.625H24.75V16.5Z" fill="#FCFCFC"/>
<path d="M34.375 30.25H28.875V34.375H34.375V30.25Z" fill="#FCFCFC"/>
<path d="M34.375 23.375H28.875V27.5H34.375V23.375Z" fill="#FCFCFC"/>
<path d="M34.375 16.5H28.875V20.625H34.375V16.5Z" fill="#FCFCFC"/>
</svg>
