<svg width="90" height="30" viewBox="0 0 90 30" fill="none" xmlns="http://www.w3.org/2000/svg">
<path d="M4.38967 16.5419C4.38967 20.967 6.44788 23.1796 10.5643 23.1796C14.5942 23.1796 16.6091 20.967 16.6091 16.5419C16.6091 12.1779 14.5942 9.99595 10.5643 9.99595C6.44788 9.99595 4.38967 12.1779 4.38967 16.5419ZM2.08746 16.6107C2.08746 11.0545 4.91308 8.27637 10.5643 8.27637C16.129 8.27637 18.9113 11.0545 18.9113 16.6107C18.9113 22.1363 16.129 24.8992 10.5643 24.8992C4.91308 24.8992 2.08746 22.1363 2.08746 16.6107ZM22.3469 24.7845V8.39102H29.5487C32.76 8.39102 34.3656 9.70173 34.3656 12.3232C34.3656 14.4555 32.7954 16.0337 29.655 17.0578L35.4517 24.7845H32.5711L27.1993 17.4132V16.026C30.4263 15.5293 32.0398 14.3255 32.0398 12.4149C32.0398 10.9016 31.1425 10.145 29.348 10.145H24.5311V24.7845H22.3469ZM37.7658 24.7845V8.39102H44.9675C48.179 8.39102 49.7845 9.66351 49.7845 12.2085C49.7845 14.0733 48.7378 15.407 46.6439 16.2094C48.8795 16.6145 49.9971 17.8564 49.9971 19.9352C49.9971 23.1681 48.2381 24.7845 44.7197 24.7845H37.7658ZM44.5897 23.0649C46.6046 23.0649 47.6121 22.0714 47.6121 20.0843C47.6121 18.1507 46.2624 17.1839 43.5628 17.1839H42.6181V15.7967C45.8453 15.3764 47.4586 14.2453 47.4586 12.4034C47.4586 10.8749 46.5613 10.1106 44.767 10.1106H39.95V23.0649H44.5897ZM56.0063 8.39102V24.7845H53.8221V8.39102H56.0063ZM71.7795 8.39102V10.1106H66.4668V24.7845H64.2826V10.1106H58.9699V8.39102H71.7795ZM74.9436 24.7845H72.6768L79.8432 8.39102H82.2634L89.4651 24.7845H87.0449L84.8607 19.6257H79.2763L79.8784 17.9061H84.1289L80.9766 10.4775L74.9436 24.7845Z" fill="url(#paint0_radial)"/>
<path d="M54.9076 5.54348C56.4841 5.54348 57.7621 4.30253 57.7621 2.77174C57.7621 1.24095 56.4841 0 54.9076 0C53.3312 0 52.0532 1.24095 52.0532 2.77174C52.0532 4.30253 53.3312 5.54348 54.9076 5.54348Z" fill="#E7D219"/>
<path d="M2.85448 19.5621C4.43096 19.5621 5.70896 18.3212 5.70896 16.7904C5.70896 15.2596 4.43096 14.0187 2.85448 14.0187C1.27799 14.0187 0 15.2596 0 16.7904C0 18.3212 1.27799 19.5621 2.85448 19.5621Z" fill="#E7D219"/>
<defs>
<radialGradient id="paint0_radial" cx="0" cy="0" r="1" gradientUnits="userSpaceOnUse" gradientTransform="translate(46.0001 12) rotate(90) scale(18 94.6169)">
<stop offset="0.489583" stop-color="#C7B93F"/>
<stop offset="1" stop-color="#0780D8" stop-opacity="0"/>
</radialGradient>
</defs>
</svg>
