<svg width="60" height="60" viewBox="0 0 60 60" fill="none" xmlns="http://www.w3.org/2000/svg">
<g clip-path="url(#clip0)">
<path d="M50.5859 9.86712C48.7287 9.63228 46.9137 9.22029 45.192 8.64305C44.7315 8.48879 44.2335 8.73689 44.0792 9.19695C43.9249 9.65746 44.173 10.1555 44.6331 10.3098C46.4646 10.9241 48.3932 11.3617 50.3657 11.6112C53.3237 11.9856 55.435 14.7158 55.0715 17.6967C54.595 21.606 53.7225 27.4412 52.2723 33.0387C50.6925 39.1357 48.8386 43.3778 46.7617 45.6474C42.4967 50.3079 37.1495 54.4387 33.4151 57.0832C31.4527 58.473 28.8159 58.473 26.854 57.0832C23.1195 54.4387 17.7724 50.3079 13.5074 45.6474C11.4305 43.3778 9.57609 39.1357 7.99681 33.0387C6.54661 27.4412 5.67411 21.606 5.19712 17.6967C4.83411 14.7158 6.94486 11.9856 9.9034 11.6112C18.4311 10.5327 24.0831 6.24803 27.3232 2.84363C28.0615 2.06818 29.0599 1.64063 30.1343 1.64063C31.2087 1.64063 32.2071 2.06818 32.9459 2.84363C35.28 5.29634 37.9781 7.29631 40.965 8.78816C41.399 9.00514 41.9272 8.82891 42.1442 8.39449C42.3607 7.96007 42.1845 7.43227 41.7505 7.21574C38.9463 5.81498 36.4125 3.93632 34.2189 1.63193C33.1455 0.503999 31.6948 -0.117188 30.1343 -0.117188C28.5738 -0.117188 27.1231 0.503999 26.0497 1.63193C23.0065 4.82942 17.6968 8.85362 9.68275 9.86712C5.76704 10.3624 2.97192 13.9705 3.45212 17.9096C4.2706 24.6232 6.76267 40.8811 12.2105 46.8343C16.5804 51.6093 22.0332 55.8235 25.8377 58.5179C27.1227 59.4279 28.6283 59.8829 30.1343 59.8829C31.6399 59.8825 33.1459 59.4279 34.4309 58.5179C38.2354 55.8235 43.6883 51.6093 48.0581 46.8343C53.5064 40.8811 55.998 24.6232 56.8165 17.9096C57.2967 13.9705 54.5016 10.3624 50.5859 9.86712Z" fill="#56ABF7"/>
<path d="M28.1509 8.13896C23.7047 11.9865 18.5141 14.5046 12.7238 15.6234C10.9596 15.9644 9.76849 17.6325 10.012 19.4215C10.4217 22.4295 11.2594 28.0549 12.2642 31.9331C14.0957 39.0037 15.8668 41.6958 16.7595 42.6709C19.6937 45.8771 25.1384 50.1613 28.1226 52.4295C28.7149 52.8795 29.4244 53.1043 30.134 53.1043C30.8435 53.1043 31.5531 52.8795 32.1454 52.4295C35.1296 50.1613 40.5742 45.8771 43.5085 42.6709C44.4011 41.6958 46.1722 39.0037 48.0037 31.9331C49.009 28.054 49.8462 22.429 50.2564 19.4215C50.4999 17.6325 49.3084 15.9644 47.5441 15.6234C41.7539 14.5046 36.5633 11.9865 32.117 8.13896C30.9863 7.16071 29.2816 7.16071 28.1509 8.13896ZM48.5146 19.1839C48.1099 22.1534 47.2846 27.7006 46.3022 31.4923C44.4506 38.6398 42.7033 40.9469 42.2121 41.4844C39.2646 44.7047 33.4464 49.2325 31.0816 51.0297C30.5235 51.454 29.7444 51.454 29.1864 51.0297C26.8216 49.2325 21.0034 44.7043 18.0563 41.4844C17.5647 40.9469 15.8174 38.6398 13.9657 31.4923C12.9838 27.7015 12.1585 22.1539 11.7538 19.1839C11.6357 18.3192 12.2084 17.5135 13.0571 17.3492C19.154 16.1714 24.6193 13.52 29.3013 9.4683C29.5384 9.26277 29.8364 9.15977 30.134 9.15977C30.4315 9.15977 30.7295 9.26277 30.9667 9.4683C35.6487 13.52 41.1139 16.1714 47.2109 17.3492C48.0596 17.5135 48.6322 18.3192 48.5146 19.1839Z" fill="#56ABF7"/>
<path d="M25.2603 27.3126C24.5993 26.7743 22.3681 25.6628 20.7705 27.7736C19.1734 29.8839 20.5705 31.725 21.2315 32.2634L23.7803 34.337C24.1566 34.6433 24.7105 34.587 25.0168 34.2102C25.323 33.8335 25.2662 33.28 24.89 32.9733L22.3411 30.8997C22.0445 30.658 21.3963 29.8711 22.1342 28.8828C22.8721 27.8949 23.854 28.4342 24.1507 28.6759L29.4282 32.9701C29.7766 33.2535 30.2824 33.2288 30.6015 32.9125L38.3244 25.2618C38.8861 24.7052 39.7952 24.7098 40.3519 25.2715C40.9081 25.8327 40.9035 26.7423 40.3423 27.2984L31.1435 36.4116C30.4152 37.1138 29.6132 36.8213 29.23 36.505L27.7698 35.3171C27.393 35.0109 26.8396 35.0676 26.5329 35.4439C26.2266 35.8202 26.2834 36.3741 26.6601 36.6803L28.1204 37.8687C28.6876 38.3301 29.4026 38.5846 30.1341 38.5846C30.9814 38.5846 31.7793 38.2564 32.3808 37.6604L41.5791 28.5477C42.8293 27.309 42.8389 25.2843 41.6002 24.0341C40.3619 22.7844 38.3372 22.7748 37.0871 24.0131L29.9249 31.1084L25.2603 27.3126Z" fill="#56ABF7"/>
</g>
<defs>
<clipPath id="clip0">
<rect width="60" height="60" fill="white"/>
</clipPath>
</defs>
</svg>
