<svg width="316" height="110" viewBox="0 0 316 110" fill="none" xmlns="http://www.w3.org/2000/svg">
<g filter="url(#filter0_d)">
<path fill-rule="evenodd" clip-rule="evenodd" d="M16 90L296 90L296 20L16 20L16 33.9806C17.3611 33.9568 18.7305 34.4253 19.7691 35.386L36.6444 50.9957C38.6716 52.8708 38.6716 55.911 36.6444 57.7861L19.7691 73.3957C18.7305 74.3565 17.3611 74.825 16 74.8012L16 90ZM16 71.919C16.5638 71.9436 17.1363 71.7568 17.5668 71.3586L34.4421 55.749C35.253 54.9989 35.253 53.7828 34.4421 53.0328L17.5668 37.4232C17.1363 37.0249 16.5638 36.8381 16 36.8628L16 71.919Z" fill="white"/>
</g>
<defs>
<filter id="filter0_d" x="-4" y="0" width="320" height="110" filterUnits="userSpaceOnUse" color-interpolation-filters="sRGB">
<feFlood flood-opacity="0" result="BackgroundImageFix"/>
<feColorMatrix in="SourceAlpha" type="matrix" values="0 0 0 0 0 0 0 0 0 0 0 0 0 0 0 0 0 0 127 0"/>
<feOffset/>
<feGaussianBlur stdDeviation="10"/>
<feColorMatrix type="matrix" values="0 0 0 0 0 0 0 0 0 0 0 0 0 0 0 0 0 0 0.1 0"/>
<feBlend mode="normal" in2="BackgroundImageFix" result="effect1_dropShadow"/>
<feBlend mode="normal" in="SourceGraphic" in2="effect1_dropShadow" result="shape"/>
</filter>
</defs>
</svg>
