<svg width="102" height="128" viewBox="0 0 102 128" fill="none" xmlns="http://www.w3.org/2000/svg">
<path d="M36.9293 1.27014C36.8986 1.42014 36.3865 5.01014 35.7925 9.25014C35.1986 13.4801 34.6967 17.0501 34.666 17.1701C34.6046 17.4301 32.9251 19.4301 31.7576 20.6501C29.2895 23.2301 27.2413 27.8101 26.3299 32.8001C25.8383 35.4801 25.7666 36.4001 25.7666 40.0001C25.7564 43.6201 25.8178 44.4301 26.2787 47.1001C27.5076 54.2501 30.7335 59.8801 34.6967 61.8401C35.9461 62.4601 37.81 62.6701 39.1823 62.3501C44.2413 61.1901 48.3787 54.0301 49.4335 44.6401C49.5257 43.8101 49.5666 43.0501 49.5359 42.9501C49.4949 42.8601 49.4437 41.4701 49.4233 39.8601C49.3618 35.3601 48.9419 32.6001 47.7233 28.6501C46.31 24.0701 44.6715 21.3001 42.2443 19.4301C41.7937 19.0801 41.1383 18.6501 40.7901 18.4701C40.1552 18.1501 40.1449 18.1401 39.6739 17.1501C39.1413 16.0201 39.3461 17.2401 37.8305 6.50014C37.4106 3.50014 37.0419 1.04014 37.0214 1.02014C37.001 1.00014 36.96 1.11014 36.9293 1.27014Z" fill="#56ABF7"/>
<path d="M66.3206 2.29999C66.2387 2.61999 63.2278 17.56 63.0025 18.73L62.8387 19.62L61.9682 20.18C60.9646 20.83 59.4182 22.29 58.814 23.16C58.0971 24.2 57.2573 25.74 56.9911 26.5C56.4893 27.91 55.629 30.95 55.2604 32.55C54.482 35.95 54.0724 39.35 54.0724 42.31C54.0724 43.53 54.0314 44.11 53.9598 44.16C53.6832 44.32 54.226 48.38 54.8507 50.85C56.6326 57.82 60.1248 62.63 64.1598 63.65C64.9381 63.84 66.5561 63.84 67.3345 63.65C71.8814 62.5 75.732 56.51 77.1555 48.4C77.5959 45.85 77.6778 44.75 77.6676 41.25C77.6676 38.4 77.6369 37.72 77.432 36.25C76.5616 29.87 74.5953 25.07 71.5128 21.8C70.2224 20.42 68.8399 18.75 68.7784 18.49C68.7375 18.36 68.3073 15.32 67.7953 11.75C66.4947 2.48999 66.464 2.25999 66.423 2.14999C66.4025 2.08999 66.3616 2.15999 66.3206 2.29999Z" fill="#56ABF7"/>
<path d="M4.32202 33.6099C3.69732 33.9099 2.84732 34.8799 2.30455 35.9099C1.07564 38.2299 0.563587 40.5199 0.102744 45.6799C-0.0201477 47.0499 0.000334264 47.5599 0.369009 50.9099C0.614792 53.2299 1.17804 55.5699 1.84371 57.1199C2.10997 57.7199 2.13045 57.8799 2.07925 58.4799C1.94612 60.0899 2.38648 63.6399 3.02142 66.0499C4.37323 71.1599 7.28166 76.4399 10.7226 80.0099C11.6443 80.9699 13.3648 82.4099 14.3274 83.0199C17.6046 85.1199 20.81 85.5299 23.1961 84.1499C23.5341 83.9599 24.1383 83.4699 24.5274 83.0599C26.4937 81.0299 27.4256 77.5299 27.1286 73.2299C26.3401 61.6599 17.5226 49.4999 9.57563 49.0299C8.95094 48.9999 8.42865 49.0299 7.93708 49.1299C7.39431 49.2499 7.18949 49.2499 7.09732 49.1699C6.91298 48.9899 5.9913 46.1999 5.69431 44.8999C4.85455 41.1999 4.62925 37.1899 5.12082 34.3499C5.17202 34.0199 5.22323 33.6699 5.22323 33.5699C5.22323 33.3299 4.86479 33.3499 4.32202 33.6099Z" fill="#56ABF7"/>
<path d="M96.7775 33.57C96.7775 33.67 96.8287 34.02 96.8799 34.35C97.3919 37.29 97.1256 41.55 96.204 45.34C95.8865 46.64 95.0775 48.99 94.8931 49.18C94.7907 49.28 94.6678 49.29 94.3606 49.21C92.169 48.66 89.2913 49.43 86.6389 51.27C79.5214 56.22 74.2371 67.37 74.872 76.12C75.1178 79.49 76.0498 81.79 77.8317 83.43C79.2961 84.78 81.2726 85.28 83.4335 84.84C90.4178 83.43 97.7094 73.77 99.5425 63.48C99.7883 62.12 99.9931 59.38 99.9214 58.52C99.8805 57.95 99.9112 57.75 100.157 57.15C101.12 54.76 101.458 53.01 101.898 48.27C102.021 46.96 102 46.47 101.632 43C101.13 38.33 99.5323 34.56 97.6787 33.66C97.054 33.36 96.7775 33.33 96.7775 33.57Z" fill="#56ABF7"/>
<path d="M48.42 71.3501C46.7098 71.5801 45.4706 71.9601 43.7911 72.7701C41.9682 73.6601 41.3947 74.1501 39.9303 76.0701C38.4146 78.0601 37.2369 80.2501 35.3321 84.5901C34.5333 86.4301 33.9393 87.6401 33.6423 88.0401C31.5941 90.8401 28.7266 92.9401 25.9206 93.7001C21.855 94.7901 17.4206 97.1501 15.2291 99.4001C14.0821 100.58 13.4574 101.44 12.5562 103.11C11.2248 105.58 10.6411 107.91 10.6309 110.8C10.6309 113.61 11.1531 115.96 12.3411 118.33C13.9285 121.51 16.6423 124.2 19.7146 125.61C24.4254 127.77 25.9718 127.93 29.9556 126.65C32.1369 125.94 32.9357 125.58 34.9736 124.33C38.7116 122.05 41.1182 120.95 43.9857 120.2C49.311 118.81 54.8001 119.55 60.7399 122.45C62.5423 123.33 63.3616 123.79 65.6863 125.23C68.4718 126.95 69.5676 127.4 71.9128 127.8C73.3977 128.05 73.7254 128.05 75.2923 127.79C79.5833 127.1 82.3791 125.72 85.0212 123.02C87.7351 120.24 89.3224 116.68 89.5989 112.71C89.9062 108.29 88.5236 104.09 85.6152 100.64C84.9086 99.8101 83.4544 98.5501 82.3893 97.8501C81.6315 97.3501 81.3857 97.2601 78.9483 96.5601C77.4941 96.1501 75.8965 95.6301 75.3845 95.4201C73.3568 94.5601 71.7899 93.4901 70.2026 91.8801C68.1646 89.8301 67.7345 89.0401 65.3483 83.1401C63.2797 78.0201 63.1773 77.8201 61.8869 76.3801C58.4664 72.5601 53.4381 70.6801 48.42 71.3501Z" fill="#56ABF7"/>
</svg>
