<svg width="60" height="60" viewBox="0 0 60 60" fill="none" xmlns="http://www.w3.org/2000/svg">
<g clip-path="url(#clip0)">
<path d="M59.2286 4.08148C59.0777 3.9023 58.8617 3.79038 58.6283 3.77046L45.5703 2.65519L45.3336 0.773391C45.2726 0.289289 44.8298 -0.0538357 44.3468 0.00698463L32.2335 1.52995C32.1858 1.51753 32.137 1.50816 32.0861 1.50382L15.4366 0.0816331C14.9572 0.0394456 14.5219 0.408117 14.4811 0.886594L14.2329 3.79284L1.33657 5.41425C0.859386 5.47425 0.510284 5.92343 0.570167 6.40097L7.15306 58.7613C7.18294 59.0001 7.13173 59.2296 7.22935 59.4605C7.36622 59.7841 7.692 60.0001 8.04345 60.0001H51.3922C51.8802 60.0001 52.2756 59.6047 52.2756 59.1166V57.9659L53.9867 58.1121C54.4661 58.1537 54.9013 57.7858 54.9421 57.3071L59.4331 4.72613C59.4531 4.49257 59.3797 4.26077 59.2286 4.08148ZM7.15997 44.6511L2.43368 7.0571L7.15997 6.46296V44.6511ZM16.1665 1.91738L23.8986 2.57773L16.0257 3.56761L16.1665 1.91738ZM43.6907 1.87038L44.1421 5.46066H15.1322L43.6907 1.87038ZM53.2569 56.2763L52.2756 56.1925V30.3744C52.2756 29.8864 51.8802 29.4909 51.3922 29.4909C50.9041 29.4909 50.5087 29.8863 50.5087 30.3744V58.233H8.92693V7.22761H50.5088V26.2516C50.5088 26.7397 50.9042 27.1351 51.3923 27.1351C51.8804 27.1351 52.2758 26.7397 52.2758 26.2516V6.34413C52.2758 5.85616 51.8804 5.46066 51.3923 5.46066H45.923L45.7956 4.44781L57.5975 5.45585L53.2569 56.2763Z" fill="#56ABF7"/>
<path d="M46.681 10.1726H41.9691C41.6737 10.1726 41.3979 10.3201 41.2341 10.566L39.2345 13.5655C37.0821 12.0237 34.4469 11.1149 31.6032 11.1149C31.1152 11.1149 30.7197 11.5103 30.7197 11.9984V24.2492C30.7197 24.7371 31.1151 25.1326 31.6032 25.1326H43.854C44.3421 25.1326 44.7375 24.7373 44.7375 24.2492C44.7375 20.4878 43.1477 17.0912 40.6054 14.6945L42.4421 11.9396H46.6811C47.1691 11.9396 47.5646 11.5442 47.5646 11.0561C47.5646 10.568 47.169 10.1726 46.681 10.1726ZM42.9365 23.3657H32.4867V12.9158C34.6292 13.0813 36.6058 13.8454 38.253 15.0378L37.4647 16.2203C37.2185 16.5894 37.2907 17.1007 37.6307 17.3863C38.0289 17.7208 38.6466 17.6325 38.9348 17.2005L39.6095 16.1884C41.4879 18.0543 42.7204 20.5696 42.9365 23.3657Z" fill="#56ABF7"/>
<path d="M46.6809 39.3857H38.6893L37.2811 37.1328C39.5622 34.7691 40.9677 31.5549 40.9677 28.0185C40.9677 27.5304 40.5723 27.1351 40.0843 27.1351H28.717V15.7678C28.717 15.2798 28.3214 14.8843 27.8335 14.8843C20.5913 14.8843 14.6992 20.7763 14.6992 28.0185C14.6992 35.2607 20.5913 41.1528 27.8335 41.1528C30.8948 41.1528 33.7145 40.1 35.9504 38.3376L37.4504 40.7376C37.6118 40.9959 37.895 41.1528 38.1995 41.1528H46.6809C47.1688 41.1528 47.5643 40.7574 47.5643 40.2693C47.5643 39.7812 47.1688 39.3857 46.6809 39.3857ZM34.2371 32.2621C33.9786 31.8481 33.4333 31.7225 33.0196 31.9811C32.6058 32.2396 32.48 32.7848 32.7386 33.1986L35.0078 36.8293C33.0497 38.4267 30.5516 39.386 27.8336 39.386C21.5657 39.386 16.4663 34.2865 16.4663 28.0187C16.4663 22.0479 21.0934 17.1377 26.9501 16.6853V28.0187C26.9501 28.5066 27.3456 28.9021 27.8336 28.9021H39.1669C38.9696 31.4569 37.9238 33.7776 36.312 35.5823L34.2371 32.2621Z" fill="#56ABF7"/>
<path d="M20.2945 44.0977H12.7555C12.2677 44.0977 11.8721 44.493 11.8721 44.9811C11.8721 45.4692 12.2676 45.8646 12.7555 45.8646H20.2945C20.7824 45.8646 21.1779 45.4692 21.1779 44.9811C21.1779 44.493 20.7824 44.0977 20.2945 44.0977Z" fill="#56ABF7"/>
<path d="M31.603 44.0977H24.0641C23.5762 44.0977 23.1807 44.493 23.1807 44.9811C23.1807 45.4692 23.5762 45.8646 24.0641 45.8646H31.603C32.091 45.8646 32.4865 45.4692 32.4865 44.9811C32.4865 44.493 32.091 44.0977 31.603 44.0977Z" fill="#56ABF7"/>
<path d="M25.0063 48.8096H12.7555C12.2677 48.8096 11.8721 49.205 11.8721 49.693C11.8721 50.1811 12.2676 50.5765 12.7555 50.5765H25.0063C25.4943 50.5765 25.8898 50.1811 25.8898 49.693C25.8898 49.205 25.4942 48.8096 25.0063 48.8096Z" fill="#56ABF7"/>
<path d="M31.6032 48.8096H28.7761C28.2882 48.8096 27.8926 49.205 27.8926 49.693C27.8926 50.1811 28.2881 50.5765 28.7761 50.5765H31.6032C32.0912 50.5765 32.4867 50.1811 32.4867 49.693C32.4866 49.205 32.0912 48.8096 31.6032 48.8096Z" fill="#56ABF7"/>
<path d="M16.525 53.5212H12.7555C12.2677 53.5212 11.8721 53.9166 11.8721 54.4047C11.8721 54.8928 12.2676 55.2882 12.7555 55.2882H16.525C17.013 55.2882 17.4085 54.8928 17.4085 54.4047C17.4085 53.9166 17.013 53.5212 16.525 53.5212Z" fill="#56ABF7"/>
<path d="M31.603 53.5212H20.2946C19.8068 53.5212 19.4111 53.9166 19.4111 54.4047C19.4111 54.8928 19.8066 55.2882 20.2946 55.2882H31.603C32.0909 55.2882 32.4864 54.8928 32.4864 54.4047C32.4864 53.9166 32.0909 53.5212 31.603 53.5212Z" fill="#56ABF7"/>
</g>
<defs>
<clipPath id="clip0">
<rect width="60" height="60" fill="white"/>
</clipPath>
</defs>
</svg>
