<svg width="60" height="60" viewBox="0 0 60 60" fill="none" xmlns="http://www.w3.org/2000/svg">
<g clip-path="url(#clip0)">
<path d="M44.0977 0.257812C43.9336 0.09375 43.7074 0 43.4766 0H21.2109C20.9789 0 20.7527 0.09375 20.5898 0.257812C20.4258 0.420703 20.332 0.646758 20.332 0.878906V4.84453C20.332 5.32969 20.7258 5.72461 21.2109 5.72461C21.6949 5.72461 22.0898 5.32969 22.0898 4.84453V1.75781H42.5977V18.7512H31.7578C31.6465 18.7512 31.534 18.7734 31.432 18.8145L26.7773 20.6742V19.6301C26.7773 19.3992 26.6836 19.173 26.5195 19.009C26.3566 18.8449 26.1293 18.7512 25.8984 18.7512H22.0898V8.36016C22.0898 7.87617 21.6949 7.48242 21.2109 7.48242C20.7258 7.48242 20.332 7.87617 20.332 8.36016V19.6301C20.332 19.8621 20.4258 20.0883 20.5898 20.2523C20.7526 20.4152 20.9789 20.509 21.2108 20.509H25.0194V21.9727C25.0194 22.2645 25.1636 22.5363 25.405 22.7004C25.5514 22.7988 25.7214 22.8516 25.8983 22.8516C26.0108 22.8516 26.121 22.8304 26.2241 22.7883L31.9264 20.509H43.4766C43.7074 20.509 43.9335 20.4152 44.0977 20.2523C44.2617 20.0884 44.3555 19.8622 44.3555 19.6301V0.878906C44.3555 0.646758 44.2617 0.420703 44.0977 0.257812Z" fill="#56ABF7"/>
<path d="M54.0233 50.0394H51.3871L51.388 48.0935C53.5403 46.213 54.9022 43.45 54.9022 40.3748V37.0028C55.5889 33.5484 55.2739 30.9867 53.9645 29.3894C53.1391 28.3825 52.1161 27.9987 51.3866 27.8552V23.9653C51.3866 23.4798 50.9932 23.0864 50.5077 23.0864C50.1742 23.0864 49.8325 23.0845 49.4846 23.0827C49.121 23.0807 48.7506 23.0789 48.3759 23.0789C44.1359 23.0789 39.3756 23.3471 36.5479 26.5502C34.5138 28.8542 33.8095 32.2569 34.3943 36.9523V40.3749C34.3943 43.451 35.757 46.2146 37.9102 48.0951V50.0396H35.2734C32.8502 50.0396 30.8789 52.0109 30.8789 54.4341V59.1212C30.8789 59.6067 31.2723 60.0001 31.7578 60.0001H35.2734H41.1328H57.5389C58.0245 60.0001 58.4179 59.6067 58.4179 59.1212V54.4385C58.4179 54.4368 58.418 54.4355 58.418 54.4339C58.418 52.0107 56.4465 50.0394 54.0233 50.0394ZM37.8659 27.7134C40.2093 25.0587 44.5198 24.8364 48.3762 24.8364C48.7477 24.8364 49.1149 24.8384 49.4755 24.8403C49.5268 24.8405 49.5779 24.8408 49.629 24.8411V28.6526C49.629 28.8952 49.725 29.1274 49.9018 29.2935C50.0788 29.4597 50.3123 29.5457 50.5542 29.5303C50.6343 29.5256 51.793 29.513 52.6054 30.5037C53.2052 31.2356 53.5045 32.3585 53.4979 33.8143L53.1158 33.0505C52.9223 32.6632 52.4753 32.4744 52.0629 32.6061C52.0106 32.6227 46.803 34.2709 43.7991 34.2709C40.9177 34.2709 38.3105 32.7086 38.2855 32.6935C37.8991 32.457 37.3962 32.5536 37.1242 32.916L35.9643 34.4627C35.8934 31.4909 36.53 29.2264 37.8659 27.7134ZM36.1523 40.3747V37.1416L38.0766 34.576C39.1603 35.115 41.3583 36.0287 43.7991 36.0287C46.4023 36.0287 50.2779 34.9714 51.8755 34.5003L53.1445 37.0385V40.3747C53.1445 45.0576 49.3332 48.8675 44.6484 48.8675C39.9636 48.8675 36.1523 45.0576 36.1523 40.3747ZM49.6296 49.3316L49.629 50.4476L46.9301 52.2474L45.5272 51.5466V50.5872C47.0058 50.4611 48.3956 50.02 49.6296 49.3316ZM43.7695 50.5873V51.4951L41.8686 52.2554L39.6682 50.4957V49.3321C40.9018 50.0204 42.2913 50.4612 43.7695 50.5873ZM40.2539 58.2423H36.1525V56.4844H40.2539V58.2423ZM56.66 54.4339V58.2423H42.0117V55.6055C42.0117 55.12 41.6183 54.7266 41.1328 54.7266H35.2737C34.7882 54.7266 34.3948 55.12 34.3948 55.6055V58.2423H32.637V54.4339C32.637 52.9801 33.8198 51.7972 35.2737 51.7972H38.4811L41.1708 53.9479C41.1785 53.9541 41.1873 53.9582 41.1952 53.9642C41.22 53.9826 41.2454 53.9997 41.2718 54.0154C41.2877 54.0249 41.3036 54.0342 41.3197 54.0425C41.3449 54.0553 41.3708 54.0663 41.3968 54.0766C41.4143 54.0835 41.4315 54.091 41.4492 54.0967C41.4782 54.1061 41.5078 54.1128 41.5377 54.1191C41.5526 54.1223 41.5671 54.1267 41.582 54.1292C41.6273 54.1365 41.6733 54.1407 41.7198 54.1407C41.7505 54.1407 41.7811 54.1386 41.812 54.1354C41.8174 54.1347 41.8228 54.1337 41.8283 54.133C41.8525 54.13 41.8765 54.126 41.9006 54.121C41.9105 54.1189 41.9202 54.1163 41.93 54.1139C41.9489 54.1092 41.9678 54.104 41.9865 54.0979C41.9987 54.0941 42.0109 54.0898 42.0231 54.0854C42.0306 54.0827 42.0384 54.0806 42.0459 54.0775L44.6084 53.0526L46.6007 54.0478C46.6141 54.0546 46.6281 54.0594 46.6417 54.0653C46.6576 54.0723 46.6732 54.0798 46.6893 54.0857C46.7113 54.0938 46.7333 54.1 46.7555 54.1062C46.7661 54.1092 46.7766 54.1132 46.7872 54.1156C46.8184 54.1231 46.8495 54.1286 46.8809 54.1327C46.8836 54.133 46.886 54.1337 46.8886 54.1341C46.9233 54.1382 46.9581 54.1406 46.9927 54.1406C47.034 54.1406 47.0749 54.1375 47.1156 54.1318C47.1333 54.1292 47.1509 54.1243 47.1686 54.1207C47.1909 54.1161 47.2136 54.1122 47.2355 54.106C47.2533 54.1007 47.2709 54.0935 47.2884 54.0873C47.3104 54.0794 47.3321 54.0719 47.3534 54.0625C47.3688 54.0554 47.3838 54.0468 47.3991 54.039C47.4219 54.027 47.4446 54.015 47.4664 54.001C47.4711 53.998 47.4763 53.996 47.481 53.9928L50.7738 51.7972H54.0234C55.4763 51.7972 56.6585 52.9784 56.6602 54.431C56.6602 54.4319 56.66 54.433 56.66 54.4339Z" fill="#56ABF7"/>
<path d="M24.7264 50.0393H20.9183L20.9189 48.9787C23.7371 47.15 25.6054 43.9764 25.6054 40.3747V38.4378L26.7745 38.8553C26.8706 38.8897 26.9706 38.9065 27.0701 38.9065C27.249 38.9065 27.4263 38.8518 27.5764 38.7461C27.8101 38.5815 27.9491 38.3136 27.9491 38.0276C27.9491 32.7529 26.9336 28.8361 24.9306 26.3866C23.2852 24.3741 21.0233 23.3538 18.2078 23.3538C14.9259 23.3538 11.8505 24.7636 10.7577 25.3241L8.69801 24.3435C8.43645 24.219 8.13035 24.2313 7.87992 24.3763C7.52742 24.5804 4.45934 26.5975 5.09754 34.5447V40.3747C5.09754 43.9769 6.96621 47.1507 9.78504 48.9794V50.0393H5.97656C3.55336 50.0393 1.58203 52.0107 1.58203 54.4339V59.1211C1.58203 59.6066 1.97555 60 2.46094 60H28.242C28.7273 60 29.1209 59.6066 29.1209 59.1211V54.4384C29.1209 54.4368 29.1211 54.4355 29.1211 54.4339C29.121 52.0107 27.1496 50.0393 24.7264 50.0393ZM8.4634 26.1787L10.4034 27.1024C10.6637 27.2265 10.9689 27.2143 11.2189 27.0709C11.2532 27.0513 14.6784 25.1116 18.2079 25.1116C23.2403 25.1116 25.916 29.0337 26.1712 36.7733L10.9596 31.3406C10.8638 31.3063 10.7638 31.2895 10.6641 31.2895C10.5289 31.2895 10.3943 31.3206 10.271 31.3823L6.77895 33.1283C6.65086 28.725 7.86867 26.834 8.4634 26.1787ZM6.85547 40.3747V35.055L10.7217 33.122L23.8477 37.8099V40.3747C23.8477 45.0576 20.0364 48.8675 15.3516 48.8675C10.6668 48.8675 6.85547 45.0576 6.85547 40.3747ZM19.1606 49.8915L19.16 50.9178V50.918V50.9181C19.16 53.0182 17.4514 54.7267 15.3514 54.7267C13.2514 54.7267 11.5429 53.0182 11.5429 50.9181V49.8917C12.7211 50.3644 14.0064 50.6253 15.3514 50.6253C16.6969 50.6253 17.9823 50.3643 19.1606 49.8915ZM27.363 54.4339V58.2422H27.3629H3.33984V54.4339C3.33984 52.98 4.52262 51.7972 5.97656 51.7972H9.85523C10.278 54.4502 12.5814 56.4845 15.3516 56.4845C18.1218 56.4845 20.4251 54.4502 20.8479 51.7972H24.7266C26.1795 51.7972 27.3615 52.9784 27.3632 54.4309C27.3632 54.4319 27.363 54.4329 27.363 54.4339Z" fill="#56ABF7"/>
<path d="M35.0366 4.63003C34.3171 3.91167 33.3608 3.51558 32.3438 3.5144C31.3254 3.51558 30.369 3.91167 29.6508 4.63003C28.9313 5.34956 28.5352 6.30581 28.5352 7.323C28.5352 7.80815 28.9289 8.2019 29.4141 8.2019C29.898 8.2019 30.293 7.80815 30.293 7.323V7.32171C30.2941 6.77444 30.5074 6.26116 30.8941 5.87444C31.2809 5.48772 31.7952 5.27327 32.3438 5.2721C32.891 5.27327 33.4055 5.48772 33.7921 5.87444C34.18 6.26116 34.3934 6.7755 34.3945 7.32288C34.3934 7.87132 34.1801 8.38565 33.7921 8.77237C33.408 9.1564 32.8979 9.37026 32.3549 9.37425C32.3511 9.37413 32.3474 9.37366 32.3436 9.37366C31.8584 9.37366 31.4647 9.76847 31.4647 10.2537V12.5975C31.4647 13.0815 31.8584 13.4764 32.3436 13.4764C32.8276 13.4764 33.2225 13.0815 33.2225 12.5975V11.0293H33.2227C33.9037 10.8691 34.5292 10.5233 35.0366 10.016C35.755 9.29761 36.1512 8.34136 36.1523 7.323C36.1512 6.30569 35.755 5.34944 35.0366 4.63003Z" fill="#56ABF7"/>
<path d="M32.3438 14.0625C31.8585 14.0625 31.4648 14.4561 31.4648 14.9414V16.1121C31.4648 16.5973 31.8585 16.991 32.3438 16.991C32.8277 16.991 33.2227 16.5973 33.2227 16.1121V14.9414C33.2227 14.4561 32.8276 14.0625 32.3438 14.0625Z" fill="#56ABF7"/>
</g>
<defs>
<clipPath id="clip0">
<rect width="60" height="60" fill="white"/>
</clipPath>
</defs>
</svg>
