<svg width="161" height="149" viewBox="0 0 161 149" fill="none" xmlns="http://www.w3.org/2000/svg">
<path d="M54.7418 66.7665C67.6 66.7665 78.0626 51.7909 78.0626 33.3833C78.0626 14.9756 67.6 0 54.7418 0C41.8836 0 31.4209 14.9756 31.4209 33.3833C31.4209 51.7909 41.8811 66.7665 54.7418 66.7665V66.7665ZM54.7418 8.11981C63.2555 8.11981 70.4497 19.6905 70.4497 33.3833C70.4497 47.076 63.2581 58.6467 54.7418 58.6467C46.2255 58.6467 39.0338 47.076 39.0338 33.3833C39.0338 19.6905 46.2255 8.11981 54.7418 8.11981ZM123.913 99.2349C123.433 98.5421 122.974 97.8871 122.73 97.3214C117.518 85.4177 103.218 71.3813 80.0648 71.0321L79.1741 71.0267C56.3735 71.0267 42.1856 84.3215 36.5089 96.7665C36.3135 97.1887 35.8821 97.7436 35.4253 98.3255C34.8735 99.0066 34.3616 99.7235 33.8926 100.472C29.0965 108.432 26.6527 117.388 27.0131 125.692C27.3937 134.516 30.85 141.599 36.7449 145.637C39.1227 147.272 41.6933 148.092 44.3857 148.092C49.9457 148.092 55.0336 144.755 60.9285 140.881C64.6741 138.427 68.5465 135.88 72.8503 133.977C73.335 133.806 75.3067 133.549 78.5371 133.549C82.3817 133.549 85.135 133.912 85.7263 134.134C89.921 136.107 93.6081 138.703 97.1786 141.204C102.645 145.042 107.806 148.671 113.407 148.671C115.81 148.671 118.144 148 120.34 146.663C132.464 139.314 134.774 119.158 125.491 101.725C125.01 100.864 124.483 100.032 123.913 99.2349V99.2349ZM116.576 139.607C115.505 140.251 114.5 140.554 113.404 140.554C110.085 140.554 106.045 137.715 101.361 134.426C97.7115 131.863 93.5802 128.959 88.8019 126.707C86.452 125.597 81.3565 125.429 78.5346 125.429C74.4008 125.429 71.5307 125.776 70.0031 126.444C65.0725 128.631 60.7509 131.462 56.9368 133.966C52.029 137.182 47.7912 139.972 44.3857 139.972C43.1423 139.972 42.0232 139.601 40.8609 138.803C37.0976 136.223 34.8823 131.43 34.6158 125.313C34.3291 118.682 36.3465 111.415 40.295 104.859C40.5818 104.38 40.9294 103.955 41.267 103.528C41.9623 102.64 42.754 101.63 43.3554 100.312C48.0247 90.0785 59.8856 79.1465 79.1741 79.1465L79.9557 79.1519C99.5868 79.447 111.552 90.9771 115.83 100.756C116.401 102.053 117.142 103.124 117.792 104.066C118.162 104.605 118.556 105.149 118.873 105.742C126.08 119.275 125.052 134.467 116.576 139.607V139.607ZM104.325 66.7665C117.185 66.7665 127.648 51.7909 127.648 33.3833C127.648 14.9756 117.188 0 104.325 0C91.4689 0 81.0063 14.9756 81.0063 33.3833C81.0063 51.7909 91.4664 66.7665 104.325 66.7665ZM104.325 8.11981C112.838 8.11981 120.035 19.6905 120.035 33.3833C120.035 47.076 112.843 58.6467 104.325 58.6467C95.8108 58.6467 88.6192 47.076 88.6192 33.3833C88.6192 19.6905 95.8108 8.11981 104.325 8.11981ZM142.628 49.6229C132.322 49.6229 124.253 61.0258 124.253 75.5792C124.253 90.1272 132.325 101.53 142.628 101.53C152.93 101.53 161 90.1272 161 75.5792C161 61.0258 152.933 49.6229 142.628 49.6229V49.6229ZM142.628 93.4103C136.794 93.4103 131.865 85.2418 131.865 75.5792C131.865 65.9112 136.794 57.7427 142.628 57.7427C148.462 57.7427 153.387 65.9112 153.387 75.5792C153.387 85.2418 148.459 93.4103 142.628 93.4103ZM36.75 75.5792C36.75 61.0258 28.6778 49.6229 18.375 49.6229C8.0722 49.6229 0 61.0258 0 75.5792C0 90.1272 8.0722 101.53 18.375 101.53C28.6778 101.53 36.75 90.1272 36.75 75.5792ZM18.375 93.4103C12.541 93.4103 7.61289 85.2418 7.61289 75.5792C7.61289 65.9112 12.541 57.7427 18.375 57.7427C24.209 57.7427 29.1371 65.9112 29.1371 75.5792C29.1371 85.2418 24.209 93.4103 18.375 93.4103Z" fill="#56ABF7"/>
</svg>
