<svg width="70" height="69" viewBox="0 0 70 69" fill="none" xmlns="http://www.w3.org/2000/svg">
<path fill-rule="evenodd" clip-rule="evenodd" d="M56.8655 53.6823V45.3302H53.3687V53.6823H56.8655ZM38.353 50.2143V45.4566H34.9637V49.0935C34.9637 50.1506 34.9209 50.447 34.8566 50.7219C34.6205 51.4833 33.8053 51.8208 32.9689 51.8208C31.8108 51.8208 31.2744 51.377 31.0598 50.6793C30.9955 50.4473 30.9741 50.1935 30.9527 49.9397C30.9313 49.6648 30.9527 49.3684 30.9527 49.052V45.4569H27.5205V50.2358C27.5205 51.3147 27.8855 52.118 28.4858 52.6674C29.5153 53.6615 31.253 53.9575 32.8618 53.9575C34.8137 53.9575 36.3154 53.6826 37.3878 52.6467C37.9459 52.1176 38.353 51.4199 38.353 50.2143ZM21.7072 49.6222C21.5372 49.5931 21.365 49.5791 21.1926 49.5803H17.3315C17.1383 49.5803 16.9237 49.6015 16.8166 49.6222C16.8809 49.5585 17.0098 49.4321 17.1383 49.2628L18.8757 46.4292C19.1117 46.049 19.2188 45.7952 19.2617 45.6896C19.3045 45.7952 19.4117 46.049 19.6477 46.451L21.4283 49.3058C21.5143 49.4321 21.6429 49.5585 21.7072 49.6222ZM28.1855 53.6823L20.463 42.2646H16.1302L17.2669 43.5966C17.2883 43.6177 17.3315 43.6385 17.374 43.6603C17.3312 43.6814 17.2883 43.7022 17.2669 43.7233L10.5315 53.6823H14.4354L15.4867 51.9694C15.5296 51.8849 15.551 51.8001 15.551 51.7582C15.5938 51.7582 15.7013 51.8001 15.8085 51.8001H22.7799C22.887 51.8001 22.9728 51.779 23.0156 51.7582C23.0117 51.8176 23.0266 51.8768 23.0585 51.9275L24.1526 53.6823H28.1855ZM52.4252 49.3903C52.4252 48.4595 52.0388 47.381 50.8379 45.8797L47.9417 42.2642H43.9089L46.204 44.8015C46.5904 45.2246 47.0836 45.6048 47.0836 45.6048C46.5262 45.2873 45.8184 45.1609 45.2606 45.1609C43.9307 45.1609 42.5787 45.4358 41.3781 46.0916C40.0907 46.7886 39.2326 47.9519 39.2326 49.4959C39.2326 50.6796 39.769 51.5892 40.4553 52.2869C42.0002 53.809 44.8095 53.9572 45.8394 53.9572C47.3621 53.9572 49.7433 53.6189 51.0954 52.4136C51.8892 51.6945 52.4252 50.7011 52.4252 49.3903ZM49.0788 49.4959C49.0788 50.3628 48.4992 51.0179 47.77 51.3773C47.1693 51.6948 46.4612 51.7793 45.8394 51.7793C45.2177 51.7793 44.4881 51.6522 43.8875 51.3562C43.1583 50.9968 42.6001 50.2991 42.6001 49.5377C42.6001 48.6289 43.3079 47.9093 44.145 47.5499C44.6599 47.318 45.282 47.2332 45.7748 47.2332C46.2473 47.2332 46.9336 47.2962 47.47 47.5081C48.4356 47.9093 49.0788 48.6707 49.0788 49.4959ZM55.7546 15.0427C53.243 15.0387 50.8042 15.874 48.8362 17.4121C46.8682 15.8739 44.4294 15.0386 41.9177 15.0427C39.4063 15.0389 36.9676 15.8741 34.9997 17.4121C33.0319 15.8738 30.5931 15.0385 28.0816 15.0427C25.5701 15.0389 23.1315 15.8741 21.1635 17.4121C19.1956 15.8741 16.7569 15.0389 14.2454 15.0427C8.08237 15.0427 3.08792 19.9655 3.08792 26.0409C3.08792 32.1156 8.08201 37.039 14.2454 37.039C16.7569 37.0428 19.1955 36.2076 21.1635 34.6696C23.1315 36.2077 25.5701 37.0429 28.0816 37.039C30.5931 37.0432 33.0318 36.2079 34.9997 34.6696C36.9676 36.2076 39.4063 37.0428 41.9177 37.039C44.4293 37.0431 46.8682 36.2079 48.8362 34.6696C50.8042 36.2079 53.243 37.0431 55.7546 37.039C61.9177 37.039 66.9118 32.1159 66.9118 26.0409C66.9118 19.9658 61.9177 15.0427 55.7546 15.0427ZM19.3379 32.873C17.9162 33.8954 16.14 34.5193 14.2454 34.5193C9.49104 34.5193 5.6438 30.7274 5.6438 26.0409C5.6438 21.3544 9.49104 17.5621 14.2454 17.5621C16.14 17.5621 17.9151 18.1864 19.3379 19.2091C17.7703 21.1504 16.9192 23.5596 16.9244 26.0409C16.9256 28.5212 17.776 30.9284 19.3379 32.873ZM21.1639 31.0785C20.0674 29.6216 19.4771 27.8549 19.4807 26.0409C19.476 24.2267 20.0665 22.4596 21.1639 21.0032C22.2611 22.4597 22.8515 24.2267 22.8471 26.0409C22.8505 27.8549 22.2602 29.6216 21.1639 31.0785ZM33.1745 32.873C31.6973 33.945 29.9101 34.5212 28.0758 34.5168C26.2453 34.5205 24.4621 33.9442 22.9891 32.873C24.5512 30.9287 25.4016 28.5214 25.4026 26.0412C25.4079 23.56 24.5567 21.1508 22.9891 19.2095C24.4619 18.138 26.2452 17.5616 28.0758 17.5653C29.9842 17.5653 31.7473 18.1739 33.1745 19.2095C31.6068 21.1508 30.7557 23.56 30.7609 26.0412C30.762 28.5214 31.6124 30.9286 33.1745 32.873ZM34.9997 31.0785C33.9032 29.6216 33.3129 27.8549 33.3165 26.0409C33.312 24.2267 33.9024 22.4597 34.9997 21.0032C36.0971 22.4596 36.6877 24.2267 36.6832 26.0409C36.6867 27.8549 36.0963 29.6217 34.9997 31.0785ZM47.0106 32.873C45.5834 33.909 43.8203 34.5168 41.9123 34.5168C40.0043 34.5168 38.2524 33.9079 36.8252 32.873C38.3875 30.9287 39.2379 28.5215 39.2388 26.0412C39.244 23.56 38.3929 21.1508 36.8252 19.2095C38.2524 18.1742 40.0043 17.5653 41.9123 17.5653C43.8203 17.5653 45.5834 18.1739 47.0106 19.2095C45.4431 21.1509 44.592 23.56 44.5971 26.0412C44.5983 28.5214 45.4487 30.9285 47.0106 32.873ZM48.8365 31.0785C47.7401 29.6216 47.1497 27.8549 47.1533 26.0409C47.1485 24.2267 47.739 22.4596 48.8365 21.0032C49.9337 22.4597 50.5241 24.2267 50.5198 26.0409C50.5231 27.8549 49.9328 29.6215 48.8365 31.0785ZM55.7546 34.5193C53.8593 34.5193 52.0835 33.8954 50.6621 32.873C52.224 30.9286 53.0745 28.5214 53.0756 26.0412C53.0807 23.56 52.2296 21.1509 50.6621 19.2095C52.0849 18.1871 53.8597 17.5625 55.7546 17.5625C60.5083 17.5625 64.3563 21.3547 64.3563 26.0412C64.3563 30.727 60.5083 34.5193 55.7546 34.5193Z" fill="white"/>
</svg>
