<svg width="68" height="69" viewBox="0 0 68 69" fill="none" xmlns="http://www.w3.org/2000/svg">
<path fill-rule="evenodd" clip-rule="evenodd" d="M32.0012 16.0283C41.904 15.0886 50.716 22.5193 51.642 32.5767C52.5508 42.6248 45.237 51.5668 35.3335 52.4975C25.431 53.4378 16.6102 46.0065 15.693 35.9584C14.775 25.9096 22.0983 16.9594 32.0012 16.0283ZM31.2134 4.64499C47.2881 3.14297 61.6225 15.2204 63.1204 31.5314C64.6003 47.86 52.6983 62.4059 36.6236 63.9076C20.5405 65.4268 6.1969 53.3498 4.717 37.0301C3.2191 20.7098 15.1215 6.1642 31.2134 4.64499ZM31.1354 3.17769C48.1361 1.57937 63.2848 14.3505 64.8599 31.6012C66.4358 48.8523 53.8575 64.223 36.8575 65.822C19.8653 67.4207 4.71664 54.6581 3.14149 37.4074C1.55717 20.1653 14.1432 4.78531 31.1354 3.17769ZM40.8044 45.0575L26.9547 43.7577C25.7686 43.4681 24.6433 43.7928 23.5959 44.6892C23.0332 44.9959 21.1808 44.9354 20.9211 44.1619C20.3757 42.0714 20.1249 41.1317 18.6877 39.9543C18.2548 39.4539 18.3243 39.0938 18.8955 38.8916L23.0417 39.2782C23.7949 39.3573 24.3226 39.5592 24.7555 39.7961L26.9801 41.0701C27.1706 41.1933 27.9668 41.272 27.9929 40.429C28.0882 38.1098 27.1272 35.4748 25.3097 33.4193C24.747 32.8043 23.942 32.2774 23.0762 31.7856C22.3837 31.4605 21.6997 31.2146 20.9899 31.1355C19.5961 31.0389 18.7914 30.837 18.5836 30.5384C17.7352 29.9059 18.7307 28.1318 19.0941 27.2183C19.5097 26.2171 20.1157 25.2595 21.0591 24.8468C22.4959 25.0666 24.3572 26.0413 26.4604 27.4467C27.1357 27.5433 27.3173 27.2888 26.954 26.6738C25.4825 25.2946 21.9505 24.109 22.02 23.3272C22.6261 21.8868 24.5823 20.7098 26.0364 19.7962C27.0665 19.12 28.2353 18.6547 29.0403 18.7861C29.9406 19.0936 31.4812 21.0434 33.7407 24.118C34.1736 24.724 34.9095 24.1971 34.58 23.5295C34.1214 22.8443 33.5675 22.045 33.3682 21.7464C32.0784 20.0336 30.9703 18.9271 30.9792 18.4703C31.187 17.4952 33.5414 17.39 36.6229 17.9259C42.31 22.1685 44.3096 31.5755 40.6047 40.763C40.4833 41.0791 40.3884 41.5097 40.3973 41.8523C40.4054 42.2213 40.6135 42.3878 41.0118 42.3967C41.3748 42.3878 41.5396 42.3087 41.6697 42.0101C41.6609 41.6235 41.5911 41.378 41.8084 41.0265C43.3401 40.7895 46.422 42.5897 47.2531 44.1712C46.2918 45.4534 43.8164 46.6565 41.765 46.6476C41.5396 46.6125 41.3752 46.4629 41.3145 46.2259L41.3064 45.7427C41.2722 45.3568 41.1247 45.128 40.8044 45.0575ZM36.5284 35.5098C37.87 35.3867 39.0564 36.3887 39.1858 37.75C39.3072 39.1027 38.3205 40.3062 36.9781 40.4376C35.6457 40.5607 34.459 39.5595 34.3387 38.1982C34.2085 36.8454 35.1952 35.6419 36.5284 35.5098ZM57.6929 24.2497L54.8361 24.6098L55.5374 26.2525L57.6929 24.2497ZM59.026 22.1678L60.2978 25.0225L53.6673 31.0482L52.7667 28.5449L54.1524 27.2978L53.1223 24.8296L51.2607 24.9087L50.196 22.5898L59.026 22.1678ZM48.4484 12.6906L46.1458 16.1425C47.3226 17.1351 48.3101 17.7848 49.5211 15.932C50.7248 14.0695 49.8073 13.6303 48.4484 12.6906ZM47.4528 9.90601L49.8334 11.4345C52.5254 13.1474 53.2352 15.0972 51.5468 17.5654C49.8503 20.0336 47.9806 19.5943 45.3926 17.7848L43.1415 16.2126L47.4528 9.90601ZM31.3432 10.5822C31.2826 7.81549 33.2391 6.28698 35.6972 6.40153C38.1557 6.51572 40.32 7.1128 40.3888 10.24C40.4668 13.3493 38.6055 14.3859 35.9135 14.4296C33.2214 14.4733 31.4124 13.3407 31.3432 10.5822ZM34.139 10.1347C33.9573 12.357 34.8834 12.8399 35.7579 12.8399C36.6494 12.8399 37.3937 12.3481 37.6107 10.4333C37.8008 8.62378 36.8395 7.85952 35.9226 7.90355C34.5115 7.96476 34.2173 9.19473 34.139 10.1347ZM18.203 11.3994L20.3151 10.0997L22.055 13.0597L22.4529 8.98425L25.0151 7.93899L24.4006 12.067L28.4342 14.6934L25.9066 15.7036L22.3142 13.5254L24.1582 16.635L21.9855 17.9874L18.203 11.3994ZM15.658 25.4177C18.2464 23.5996 19.6053 20.6221 17.5539 19.0495C15.1733 17.24 13.5978 20.7534 12.5504 20.6131C11.8752 20.5254 12.6023 18.9178 14.0307 17.6531L13.044 16.7922C10.0231 19.1551 9.40823 22.2905 11.6762 23.3272C13.4941 24.1616 15.433 20.9202 15.8831 21.0964C17.4586 21.7199 14.7577 24.2057 14.3683 24.443L15.658 25.4177ZM41.6704 58.2947C40.2505 56.5643 40.7698 54.2279 42.5531 53.2972C43.6266 52.7434 45.2451 52.7874 46.0851 53.6222C47.0545 54.6059 47.4094 56.6524 46.2237 57.9962C45.3319 59.0064 42.6483 59.4896 41.6704 58.2947ZM44.6394 57.4599C45.3665 57.0916 45.2451 56.0288 44.9943 55.3959C44.5872 54.404 43.8513 54.0439 43.1849 54.3156C42.4317 54.6231 42.449 55.7034 42.7693 56.415C43.0808 57.1263 43.8513 57.838 44.6394 57.4599ZM35.0654 60.9122L34.8057 56.7046L33.3601 56.7752L33.2906 55.4131L37.9049 55.2026L37.9829 56.5554L36.6233 56.6252L36.866 60.8327L35.0654 60.9122ZM25.4399 53.7185L27.3008 54.2891L26.47 57.2584C26.3313 57.7588 26.1496 58.5141 26.8594 58.6638C27.5692 58.8127 27.7251 58.1716 27.8723 57.6443L28.6946 54.6674L30.3565 55.1239L29.5169 58.1365C29.1359 59.709 27.8119 60.2005 26.4611 59.8318C24.9117 59.4277 24.1674 58.3294 24.6091 56.7311L25.4399 53.7185ZM20.6788 51.9709L18.8609 53.2091L19.8649 54.0174L20.6788 51.9709ZM15.4675 53.4199L20.3584 50.5122L22.4271 51.9791L20.3496 57.6267L18.9385 56.3445L19.3195 55.203L17.8393 53.9998L16.9217 54.6674L15.4675 53.4199ZM9.27841 19.5328L10.3777 19.5417C10.5943 19.0234 10.8797 18.5315 11.2 18.1449L10.9058 17.0295C10.5943 17.3631 10.2912 17.7233 10.196 18.0308L10.4468 18.5226L9.80652 18.5752C9.54687 18.8827 9.42587 19.1025 9.27841 19.5328Z" fill="white"/>
</svg>
