<svg width="9" height="9" viewBox="0 0 9 9" fill="none" xmlns="http://www.w3.org/2000/svg">
<g clip-path="url(#clip0)">
<path fill-rule="evenodd" clip-rule="evenodd" d="M4.5 9C4.5 9 7.875 5.80163 7.875 3.375C7.875 2.47989 7.51942 1.62145 6.88649 0.988515C6.25355 0.355579 5.39511 0 4.5 0C3.60489 0 2.74645 0.355579 2.11351 0.988515C1.48058 1.62145 1.125 2.47989 1.125 3.375C1.125 5.80163 4.5 9 4.5 9ZM4.5 5.0625C4.94755 5.0625 5.37678 4.88471 5.69324 4.56824C6.00971 4.25178 6.1875 3.82255 6.1875 3.375C6.1875 2.92745 6.00971 2.49822 5.69324 2.18176C5.37678 1.86529 4.94755 1.6875 4.5 1.6875C4.05245 1.6875 3.62322 1.86529 3.30676 2.18176C2.99029 2.49822 2.8125 2.92745 2.8125 3.375C2.8125 3.82255 2.99029 4.25178 3.30676 4.56824C3.62322 4.88471 4.05245 5.0625 4.5 5.0625Z" fill="white"/>
</g>
<defs>
<clipPath id="clip0">
<rect width="9" height="9" rx="2" fill="white"/>
</clipPath>
</defs>
</svg>
