<svg width="9" height="9" viewBox="0 0 9 9" fill="none" xmlns="http://www.w3.org/2000/svg">
<path d="M7.70889 2.09795L6.77285 1.16279C6.65859 1.04854 6.50566 0.984375 6.34395 0.984375C6.18223 0.984375 6.0293 1.04766 5.91504 1.16279L4.90693 2.16914C4.79268 2.2834 4.72852 2.43721 4.72852 2.59893C4.72852 2.76152 4.7918 2.91357 4.90693 3.02871L5.69443 3.81709C5.51503 4.23509 5.25727 4.61487 4.93506 4.93594C4.6125 5.26025 4.23545 5.51602 3.81709 5.69707L3.02959 4.90869C2.91533 4.79443 2.7624 4.73027 2.60068 4.73027C2.52092 4.72998 2.44189 4.74561 2.36824 4.77624C2.29459 4.80688 2.2278 4.85191 2.17178 4.90869L1.16279 5.91504C1.04854 6.0293 0.984375 6.18311 0.984375 6.34482C0.984375 6.50742 1.04766 6.65947 1.16279 6.77461L2.09795 7.70977C2.29307 7.90488 2.56201 8.0165 2.83799 8.0165C2.89512 8.0165 2.95049 8.01211 3.00674 8.00244C4.17041 7.81084 5.32529 7.19121 6.25781 6.25957C7.18945 5.32617 7.8082 4.17129 8.00156 3.00674C8.05693 2.67627 7.94619 2.33613 7.70889 2.09795ZM7.37842 2.90215C7.20703 3.93838 6.6498 4.97197 5.81045 5.81133C4.97109 6.65068 3.93838 7.20791 2.90215 7.3793C2.77207 7.40127 2.63848 7.35732 2.54355 7.26328L1.6251 6.34482L2.59893 5.37012L3.65186 6.4248L3.65977 6.43271L3.84961 6.3624C4.42523 6.15077 4.94795 5.8165 5.38153 5.38276C5.81512 4.94902 6.14921 4.42618 6.36064 3.85049L6.43096 3.66064L5.36924 2.5998L6.34307 1.6251L7.26152 2.54355C7.35645 2.63848 7.40039 2.77207 7.37842 2.90215Z" fill="white"/>
</svg>
