<svg width="40" height="40" viewBox="0 0 40 40" fill="none" xmlns="http://www.w3.org/2000/svg">
<g clip-path="url(#clip0)">
<path d="M39.3517 26.4001C39.6797 26.4001 39.9459 26.134 39.9459 25.806V11.4703C39.9459 10.6577 39.6297 9.89288 39.0544 9.31519C38.4783 8.74146 37.7135 8.42529 36.9008 8.42529H30.1415V0.593872C30.1415 0.265808 29.8757 0 29.5476 0H15.0402C14.7121 0 14.4463 0.265808 14.4463 0.593872V9.01703C14.4463 9.34509 14.7121 9.6109 15.0402 9.6109C15.3682 9.6109 15.634 9.34509 15.634 9.01703V1.18805H28.9537V8.42529H22.394C22.3937 8.42529 22.3931 8.4256 22.3925 8.4256C21.5804 8.4259 20.8159 8.74176 20.2388 9.31702C19.9312 9.62585 19.6941 9.99908 19.5421 10.4041C19.4078 10.3845 19.2705 10.3741 19.131 10.3741H6.13727C5.8092 10.3741 5.5434 10.64 5.5434 10.968C5.5434 11.2961 5.8092 11.5619 6.13727 11.5619H19.131C20.0499 11.5619 20.7973 12.3093 20.7973 13.2281V37.146C20.7973 38.0646 20.0499 38.8123 19.131 38.8123H2.93292C2.01404 38.8123 1.26666 38.0649 1.26666 37.146V13.2281C1.26666 12.3096 2.01404 11.5619 2.93292 11.5619H4.15729C4.48535 11.5619 4.75116 11.2961 4.75116 10.968C4.75116 10.64 4.48535 10.3741 4.15729 10.3741H2.93292C1.35883 10.3741 0.0786133 11.6544 0.0786133 13.2281V37.146C0.0786133 38.7198 1.35883 40 2.93292 40H19.131C20.7048 40 21.9854 38.7198 21.9854 37.146V14.5154H24.2513V36.9724C24.2513 37.3004 24.5171 37.5662 24.8452 37.5662H39.352C39.6801 37.5662 39.9459 37.3004 39.9459 36.9724V27.7859C39.9459 27.4579 39.6801 27.1921 39.352 27.1921C39.0239 27.1921 38.7578 27.4579 38.7578 27.7859V36.3782H25.439V11.4703C25.439 10.7904 25.2178 10.144 24.8088 9.61334H36.9008C37.397 9.61334 37.8643 9.80652 38.2143 10.1553C38.5649 10.5069 38.7578 10.9741 38.7578 11.4703V25.806C38.7578 26.134 39.0239 26.4001 39.3517 26.4001V26.4001ZM23.7072 10.1556C24.0581 10.5072 24.2513 10.9738 24.2513 11.4703V13.3276H21.985V13.2281C21.985 12.2147 21.4534 11.3232 20.6551 10.817C20.7466 10.5713 20.8895 10.347 21.079 10.1569C21.4305 9.80621 21.8978 9.61334 22.394 9.61334H22.3955C22.8908 9.61365 23.3571 9.80682 23.7072 10.1556V10.1556Z" fill="#56ABF7"/>
<path d="M19.6089 13.3437C19.6089 13.0157 19.3431 12.7499 19.0151 12.7499H3.04797C2.72021 12.7499 2.4541 13.0157 2.4541 13.3437V19.2187C2.4541 19.5468 2.72021 19.8129 3.04797 19.8129H19.0151C19.3431 19.8129 19.6089 19.5468 19.6089 19.2187V13.3437ZM18.4212 18.6248H3.64215V13.9376H18.4212V18.6248Z" fill="#56ABF7"/>
<path d="M19.0151 21.1288H3.04797C2.72021 21.1288 2.4541 21.3946 2.4541 21.7227V37.0944C2.4541 37.4224 2.72021 37.6885 3.04797 37.6885H19.0151C19.3431 37.6885 19.6089 37.4224 19.6089 37.0944V21.7227C19.6089 21.3946 19.3431 21.1288 19.0151 21.1288ZM18.4212 26.3821H14.3978V22.3165H18.4212V26.3821ZM18.4212 31.2472H14.3978V27.5698H18.4212V31.2472ZM3.64215 27.5698H7.66528V31.2472H3.64215V27.5698ZM8.85303 27.5698H13.21V31.2472H8.85303V27.5698ZM13.21 22.3165V26.3821H8.85303V22.3165H13.21ZM7.66528 22.3165V26.3821H3.64215V22.3165H7.66528ZM3.64215 32.4352H7.66528V36.5005H3.64215V32.4352ZM8.85303 36.5005V32.4352H13.21V36.5005H8.85303ZM14.3981 36.5005V32.4352H18.4212V36.5005H14.3981Z" fill="#56ABF7"/>
<path d="M28.7469 11.4325H27.163C26.835 11.4325 26.5688 11.6983 26.5688 12.0264C26.5688 12.3544 26.835 12.6202 27.163 12.6202H28.7469C29.0746 12.6202 29.3408 12.3544 29.3408 12.0264C29.3408 11.6983 29.0746 11.4325 28.7469 11.4325Z" fill="#56ABF7"/>
<path d="M37.0612 11.4325H30.8051C30.4771 11.4325 30.2109 11.6983 30.2109 12.0264C30.2109 12.3544 30.4771 12.6202 30.8051 12.6202H37.0612C37.3893 12.6202 37.6551 12.3544 37.6551 12.0264C37.6551 11.6983 37.3893 11.4325 37.0612 11.4325Z" fill="#56ABF7"/>
<path d="M28.7469 24.8159H27.163C26.835 24.8159 26.5688 25.082 26.5688 25.4101C26.5688 25.7382 26.835 26.004 27.163 26.004H28.7469C29.0746 26.004 29.3408 25.7382 29.3408 25.4101C29.3408 25.082 29.0746 24.8159 28.7469 24.8159Z" fill="#56ABF7"/>
<path d="M37.6551 25.4101C37.6551 25.082 37.3893 24.8159 37.0612 24.8159H30.8051C30.4771 24.8159 30.2109 25.082 30.2109 25.4101C30.2109 25.7382 30.4771 26.004 30.8051 26.004H37.0612C37.3893 26.004 37.6551 25.7382 37.6551 25.4101Z" fill="#56ABF7"/>
<path d="M28.7469 21.4702H27.163C26.835 21.4702 26.5688 21.736 26.5688 22.0641C26.5688 22.3922 26.835 22.658 27.163 22.658H28.7469C29.0746 22.658 29.3408 22.3922 29.3408 22.0641C29.3408 21.736 29.0746 21.4702 28.7469 21.4702Z" fill="#56ABF7"/>
<path d="M37.0612 21.4702H30.8051C30.4771 21.4702 30.2109 21.736 30.2109 22.0641C30.2109 22.3922 30.4771 22.658 30.8051 22.658H37.0612C37.3893 22.658 37.6551 22.3922 37.6551 22.0641C37.6551 21.736 37.3893 21.4702 37.0612 21.4702Z" fill="#56ABF7"/>
<path d="M28.7469 18.1244H27.163C26.835 18.1244 26.5688 18.3902 26.5688 18.7183C26.5688 19.0463 26.835 19.3121 27.163 19.3121H28.7469C29.0746 19.3121 29.3408 19.0463 29.3408 18.7183C29.3408 18.3902 29.0746 18.1244 28.7469 18.1244Z" fill="#56ABF7"/>
<path d="M37.0612 18.1244H30.8051C30.4771 18.1244 30.2109 18.3902 30.2109 18.7183C30.2109 19.0463 30.4771 19.3121 30.8051 19.3121H37.0612C37.3893 19.3121 37.6551 19.0463 37.6551 18.7183C37.6551 18.3902 37.3893 18.1244 37.0612 18.1244Z" fill="#56ABF7"/>
<path d="M28.7469 14.7784H27.163C26.835 14.7784 26.5688 15.0443 26.5688 15.3723C26.5688 15.7004 26.835 15.9662 27.163 15.9662H28.7469C29.0746 15.9662 29.3408 15.7004 29.3408 15.3723C29.3408 15.0443 29.0746 14.7784 28.7469 14.7784Z" fill="#56ABF7"/>
<path d="M37.0612 14.7784H30.8051C30.4771 14.7784 30.2109 15.0443 30.2109 15.3723C30.2109 15.7004 30.4771 15.9662 30.8051 15.9662H37.0612C37.3893 15.9662 37.6551 15.7004 37.6551 15.3723C37.6551 15.0443 37.3893 14.7784 37.0612 14.7784Z" fill="#56ABF7"/>
<path d="M17.3424 3.95746H18.9263C19.2543 3.95746 19.5204 3.69135 19.5204 3.36328C19.5204 3.03522 19.2543 2.76941 18.9263 2.76941H17.3424C17.0143 2.76941 16.7485 3.03522 16.7485 3.36328C16.7485 3.69135 17.0143 3.95746 17.3424 3.95746Z" fill="#56ABF7"/>
<path d="M20.9855 3.95746H27.2419C27.5699 3.95746 27.8358 3.69135 27.8358 3.36328C27.8358 3.03522 27.5699 2.76941 27.2419 2.76941H20.9855C20.6577 2.76941 20.3916 3.03522 20.3916 3.36328C20.3916 3.69135 20.6577 3.95746 20.9855 3.95746V3.95746Z" fill="#56ABF7"/>
<path d="M17.3424 7.30341H18.9263C19.2543 7.30341 19.5204 7.03729 19.5204 6.70923C19.5204 6.38116 19.2543 6.11536 18.9263 6.11536H17.3424C17.0143 6.11536 16.7485 6.38116 16.7485 6.70923C16.7485 7.03729 17.0143 7.30341 17.3424 7.30341Z" fill="#56ABF7"/>
<path d="M20.9855 7.30341H27.2419C27.5699 7.30341 27.8358 7.03729 27.8358 6.70923C27.8358 6.38116 27.5699 6.11536 27.2419 6.11536H20.9855C20.6577 6.11536 20.3916 6.38116 20.3916 6.70923C20.3916 7.03729 20.6577 7.30341 20.9855 7.30341V7.30341Z" fill="#56ABF7"/>
<path d="M32.116 34.7852C32.1752 34.841 32.261 34.873 32.3516 34.873H32.366C32.5906 34.873 32.7737 34.6899 32.7737 34.4653V34.379C33.7005 34.1809 34.2315 33.5397 34.2315 32.6178C34.2315 31.5741 33.5323 31.1569 32.7737 30.864V29.4009C33.0178 29.4394 33.1817 29.5224 33.3141 29.5895C33.4283 29.6472 33.5186 29.693 33.6193 29.693C33.9419 29.693 34.0814 29.2987 34.0814 29.0976C34.0814 28.6685 33.4094 28.4695 32.7737 28.4259V28.3374C32.7737 28.1125 32.5906 27.9297 32.366 27.9297C32.1414 27.9297 31.9583 28.1125 31.9583 28.3374V28.4518C30.9869 28.6142 30.4299 29.2078 30.4299 30.0818C30.4299 31.1563 31.3091 31.4941 31.9583 31.7386V33.3804C31.6003 33.3124 31.3674 33.1317 31.1794 32.9858C31.0262 32.8668 30.9054 32.7728 30.7665 32.7728C30.4888 32.7728 30.2798 33.139 30.2798 33.3768C30.2798 33.8251 30.9683 34.3628 31.9583 34.4244V34.465C31.9583 34.5911 32.0162 34.7083 32.116 34.7852V34.7852ZM31.9583 29.4495V30.5536C31.7101 30.4395 31.4871 30.2872 31.4871 29.9738C31.4871 29.722 31.65 29.541 31.9583 29.4495ZM32.7737 33.3264V32.085C33.0502 32.2482 33.1741 32.4475 33.1741 32.7261C33.1741 33.0069 33.0358 33.2138 32.7737 33.3264V33.3264Z" fill="#56ABF7"/>
<path d="M15.8776 17.9263H17.1447C17.4727 17.9263 17.7385 17.6602 17.7385 17.3325C17.7385 17.0044 17.4727 16.7383 17.1447 16.7383H15.8776C15.5495 16.7383 15.2837 17.0044 15.2837 17.3325C15.2837 17.6602 15.5495 17.9263 15.8776 17.9263Z" fill="#56ABF7"/>
</g>
<defs>
<clipPath id="clip0">
<rect width="40" height="40" fill="white"/>
</clipPath>
</defs>
</svg>
