<svg width="40" height="40" viewBox="0 0 40 40" fill="none" xmlns="http://www.w3.org/2000/svg">
<g clip-path="url(#clip0)">
<path d="M38.8126 14.2542L33.8956 10.1505V4.32869C33.8956 3.82601 33.4569 3.44216 32.9451 3.44216H25.7889L22.9191 1.04761C21.2283 -0.350724 18.7789 -0.350724 17.0881 1.05675L14.2183 3.44216H6.97068C6.46801 3.44216 6.02018 3.81688 6.02018 4.32869V10.2419L1.19453 14.2542C0.993466 14.4278 0.874653 14.6928 0.883792 14.9579H0.902071V35.4212C0.902071 37.9437 2.93103 40 5.44439 40H34.5536C37.0761 40 39.0959 37.9345 39.0959 35.4212V14.9579H39.1142C39.1325 14.6837 39.0228 14.4278 38.8126 14.2542ZM33.8956 12.5268L36.7745 14.9213L33.8956 17.06V12.5268ZM18.2579 2.45509C19.2724 1.61426 20.7439 1.6234 21.7583 2.46423L22.9191 3.44216H17.0789L18.2579 2.45509ZM7.84807 5.27005H32.0677V18.4218L21.6578 26.172C20.6708 26.894 19.3364 26.894 18.3585 26.172L7.84807 18.3486V5.27005V5.27005ZM6.02018 12.609V16.9869L3.23264 14.9122L6.02018 12.609ZM37.2772 35.412C37.2863 36.9292 36.0708 38.163 34.5627 38.1722H5.44439C3.93638 38.163 2.72083 36.9292 2.72997 35.4212V16.7766L17.28 27.6435C18.8977 28.8408 21.1094 28.8408 22.7271 27.6435L37.2772 16.7766V35.412V35.412Z" fill="#56ABF7"/>
<path d="M19.2726 12.5817H14.3373C13.8346 12.5817 13.4233 12.9929 13.4233 13.4956C13.4233 13.9983 13.8346 14.4096 14.3373 14.4096H19.2726C19.7753 14.4096 20.1865 13.9983 20.1865 13.4956C20.1865 12.9929 19.7753 12.5817 19.2726 12.5817Z" fill="#56ABF7"/>
<path d="M25.6702 17.1514H14.3373C13.8346 17.1514 13.4233 17.5627 13.4233 18.0654C13.4233 18.568 13.8346 18.9793 14.3373 18.9793H25.6702C26.1729 18.9793 26.5842 18.568 26.5842 18.0654C26.5842 17.5627 26.1729 17.1514 25.6702 17.1514Z" fill="#56ABF7"/>
</g>
<defs>
<clipPath id="clip0">
<rect width="40" height="40" fill="white"/>
</clipPath>
</defs>
</svg>
