<svg width="40" height="40" viewBox="0 0 40 40" fill="none" xmlns="http://www.w3.org/2000/svg">
<g clip-path="url(#clip0)">
<path d="M35.8875 6.12026C36.16 6.36651 36.5804 6.34506 36.8266 6.07251C37.5179 5.2818 37.4783 4.09087 36.7363 3.34792C35.994 2.6053 34.8031 2.56436 34.0117 3.25501C33.7492 3.5032 33.733 3.91577 33.9753 4.18411C34.2174 4.45244 34.6296 4.4781 34.9035 4.24226C35.024 4.13408 35.1802 4.07398 35.3423 4.07333C35.7098 4.07333 36.0077 4.37123 36.0077 4.73864C36.008 4.90172 35.9479 5.0596 35.8387 5.1811C35.5928 5.45398 35.6146 5.87434 35.8875 6.12026Z" fill="#FCFCFC"/>
<path d="M38.0042 21.3715H0.746853C0.379438 21.3715 0.081543 21.6694 0.081543 22.0368C0.081543 22.4042 0.379438 22.7021 0.746853 22.7021H10.7265V26.0286C10.7265 26.396 11.0244 26.6939 11.3918 26.6939C11.7592 26.6939 12.0571 26.396 12.0571 26.0286V22.7021H38.0042C38.3716 22.7021 38.6695 23 38.6695 23.3674V38.0042C38.6695 38.3716 38.3716 38.6695 38.0042 38.6695H12.0571V38.0042C12.0571 37.6368 11.7592 37.3389 11.3918 37.3389C11.0244 37.3389 10.7265 37.6368 10.7265 38.0042V38.6695H1.41216C1.04475 38.6695 0.746853 38.9674 0.746853 39.3348C0.746853 39.7022 1.04475 40.0001 1.41216 40.0001H38.0042C39.1068 40.0001 40.0001 39.1064 40.0001 38.0042V23.3674C40.0001 22.2648 39.1068 21.3715 38.0042 21.3715Z" fill="#FCFCFC"/>
<path d="M11.3919 31.3511C11.7593 31.3511 12.0572 31.0532 12.0572 30.6858V29.3551C12.0572 28.9877 11.7593 28.6898 11.3919 28.6898C11.0245 28.6898 10.7266 28.9877 10.7266 29.3551V30.6858C10.7266 31.0532 11.0245 31.3511 11.3919 31.3511Z" fill="#FCFCFC"/>
<path d="M10.7266 35.3429C10.7266 35.7103 11.0245 36.0082 11.3919 36.0082C11.7593 36.0082 12.0572 35.7103 12.0572 35.3429V33.347C12.0572 32.9795 11.7593 32.6816 11.3919 32.6816C11.0245 32.6816 10.7266 32.9795 10.7266 33.347V35.3429Z" fill="#FCFCFC"/>
<path d="M36.674 32.6817C37.0415 32.6817 37.3393 32.3838 37.3393 32.0164V26.6939C37.3393 26.3265 37.0415 26.0286 36.674 26.0286H32.0169C31.6495 26.0286 31.3516 26.3265 31.3516 26.6939V32.0164C31.3516 32.3838 31.6495 32.6817 32.0169 32.6817H36.674ZM32.6822 27.3592H36.0087V31.351H32.6822V27.3592Z" fill="#FCFCFC"/>
<path d="M15.3841 27.3592H20.0412C20.4086 27.3592 20.7065 27.0613 20.7065 26.6939C20.7065 26.3265 20.4086 26.0286 20.0412 26.0286H15.3841C15.0166 26.0286 14.7188 26.3265 14.7188 26.6939C14.7188 27.0613 15.0166 27.3592 15.3841 27.3592Z" fill="#FCFCFC"/>
<path d="M24.6975 27.3592H28.6894C29.0568 27.3592 29.3547 27.0613 29.3547 26.6939C29.3547 26.3265 29.0568 26.0286 28.6894 26.0286H24.6975C24.3301 26.0286 24.0322 26.3265 24.0322 26.6939C24.0322 27.0613 24.3301 27.3592 24.6975 27.3592Z" fill="#FCFCFC"/>
<path d="M15.3841 30.0204H20.0412C20.4086 30.0204 20.7065 29.7225 20.7065 29.3551C20.7065 28.9877 20.4086 28.6898 20.0412 28.6898H15.3841C15.0166 28.6898 14.7188 28.9877 14.7188 29.3551C14.7188 29.7225 15.0166 30.0204 15.3841 30.0204Z" fill="#FCFCFC"/>
<path d="M15.3841 32.6817H28.6902C29.0577 32.6817 29.3556 32.3838 29.3556 32.0164C29.3556 31.649 29.0577 31.3511 28.6902 31.3511H15.3841C15.0166 31.3511 14.7188 31.649 14.7188 32.0164C14.7188 32.3838 15.0166 32.6817 15.3841 32.6817V32.6817Z" fill="#FCFCFC"/>
<path d="M15.3841 35.3429H20.0412C20.4086 35.3429 20.7065 35.045 20.7065 34.6776C20.7065 34.3102 20.4086 34.0123 20.0412 34.0123H15.3841C15.0166 34.0123 14.7188 34.3102 14.7188 34.6776C14.7188 35.045 15.0166 35.3429 15.3841 35.3429Z" fill="#FCFCFC"/>
<path d="M24.0322 34.6776C24.0322 35.045 24.3301 35.3429 24.6975 35.3429H36.0078C36.3752 35.3429 36.6731 35.045 36.6731 34.6776C36.6731 34.3102 36.3752 34.0123 36.0078 34.0123H24.6975C24.3301 34.0123 24.0322 34.3102 24.0322 34.6776Z" fill="#FCFCFC"/>
<path d="M24.6975 30.0204H26.6935C27.0609 30.0204 27.3588 29.7225 27.3588 29.3551C27.3588 28.9877 27.0609 28.6898 26.6935 28.6898H24.6975C24.3301 28.6898 24.0322 28.9877 24.0322 29.3551C24.0322 29.7225 24.3301 30.0204 24.6975 30.0204Z" fill="#FCFCFC"/>
<path d="M4.07302 26.6939H6.73426C7.10168 26.6939 7.39957 26.396 7.39957 26.0286C7.39957 25.6612 7.10168 25.3633 6.73426 25.3633H4.07302C3.70561 25.3633 3.40771 25.6612 3.40771 26.0286C3.40771 26.396 3.70561 26.6939 4.07302 26.6939Z" fill="#FCFCFC"/>
<path d="M4.07302 30.6857H6.73426C7.10168 30.6857 7.39957 30.3878 7.39957 30.0204C7.39957 29.653 7.10168 29.3551 6.73426 29.3551H4.07302C3.70561 29.3551 3.40771 29.653 3.40771 30.0204C3.40771 30.3878 3.70561 30.6857 4.07302 30.6857Z" fill="#FCFCFC"/>
<path d="M4.07302 34.6777H8.73019C9.09761 34.6777 9.3955 34.3798 9.3955 34.0124C9.3955 33.6449 9.09761 33.347 8.73019 33.347H4.07302C3.70561 33.347 3.40771 33.6449 3.40771 34.0124C3.40771 34.3798 3.70561 34.6777 4.07302 34.6777Z" fill="#FCFCFC"/>
<path d="M0.102369 6.67387C0.193655 7.02992 0.556196 7.24432 0.911916 7.15304C1.55643 6.98606 2.21265 6.86976 2.87536 6.80576L4.60913 8.82833L2.81266 12.4248C2.68467 12.6808 2.73502 12.9901 2.93708 13.1928L4.01561 14.2717L3.4208 17.2464C3.38539 17.4195 3.42015 17.5995 3.5176 17.747C3.61474 17.8941 3.76677 17.9968 3.93992 18.0322C3.98377 18.0407 4.02828 18.0449 4.07279 18.0449C4.3892 18.0449 4.66175 17.8224 4.72478 17.5124L5.39009 14.1859C5.43297 13.9686 5.36475 13.7441 5.20784 13.5872L4.21735 12.5892L6.00244 9.02779C6.12232 8.78805 6.08691 8.49925 5.91181 8.29589L4.59451 6.75833C7.74206 6.88276 10.7288 8.18089 12.9668 10.3977L9.99073 10.7304C9.7747 10.7544 9.584 10.8827 9.48005 11.0737C9.3761 11.2648 9.37187 11.4944 9.46933 11.689L11.1898 15.1299L8.39145 16.8094C8.18971 16.9287 8.06562 17.145 8.06464 17.3796V19.3755C8.06464 19.7429 8.36254 20.0408 8.72995 20.0408C9.09737 20.0408 9.39526 19.7429 9.39526 19.3755V17.7561L12.3992 15.9538C12.6955 15.7751 12.8056 15.3989 12.652 15.0887L11.0826 11.9505L14.0359 11.6224C15.7696 13.8302 16.7124 16.5557 16.7137 19.3628C16.7137 19.3794 16.7098 19.4346 16.7098 19.4512C16.7091 19.8202 17.006 20.1207 17.3751 20.124C17.5905 20.1217 17.7912 20.0142 17.9121 19.8358C17.9221 19.8251 17.9351 19.8212 17.9446 19.8098L23.4288 13.4595L29.0401 6.96267L29.0453 6.95487L32.9887 2.38802C34.2784 1.07917 36.3848 1.0639 37.6937 2.35358C39.0025 3.64327 39.0181 5.74965 37.7281 7.0585L24.0516 18.8716C23.8651 19.025 23.7764 19.2673 23.8196 19.5048C23.8631 19.7423 24.0314 19.9378 24.2601 20.0155C24.4885 20.0931 24.7412 20.0408 24.9202 19.879L27.026 18.0614L28.8111 19.8459C29.0709 20.1061 29.4926 20.1064 29.7528 19.8469C30.013 19.587 30.0137 19.1653 29.7538 18.9051L28.0379 17.1899L33.3045 12.6412L36.3033 19.6377C36.4079 19.882 36.6486 20.0408 36.9146 20.0408C37.0046 20.0411 37.0936 20.0226 37.1762 19.9869C37.514 19.8423 37.6706 19.4512 37.526 19.1133L34.357 11.7244L38.6357 8.02853C39.864 6.85807 40.3585 5.11195 39.9264 3.4711C39.4943 1.83056 38.204 0.554519 36.5586 0.14065C34.9132 -0.273219 33.1726 0.240706 32.0158 1.48199L28.352 5.72399L19.1387 1.77534C18.95 1.69315 18.7336 1.70419 18.554 1.80522L14.3188 4.1572C14.1362 4.25855 14.0118 4.4395 13.9829 4.64611C13.9537 4.85304 14.0235 5.06128 14.171 5.20909L22.0196 13.0551L17.9452 17.7726C17.6437 15.1406 16.5961 12.6496 14.926 10.5933C14.926 10.5868 14.9169 10.5819 14.9127 10.5754C12.2651 7.3041 8.28132 5.40368 4.07279 5.404C3.33536 5.4079 2.59923 5.4719 1.8722 5.59469L1.83029 5.60216C1.41447 5.66876 0.998653 5.75322 0.580561 5.86043C0.320674 5.92735 0.126409 6.14403 0.0884005 6.40976C0.0750814 6.4978 0.0799542 6.58778 0.102369 6.67387V6.67387ZM18.9146 3.12642L27.4398 6.77978L22.8912 12.0464L15.7378 4.89235L18.9146 3.12642Z" fill="#FCFCFC"/>
</g>
<defs>
<clipPath id="clip0">
<rect width="40" height="40" fill="white"/>
</clipPath>
</defs>
</svg>
