<svg width="40" height="40" viewBox="0 0 40 40" fill="none" xmlns="http://www.w3.org/2000/svg">
<g clip-path="url(#clip0)">
<path d="M24.4052 17.682L29.6132 21.3893C29.8447 21.5541 30.1551 21.5541 30.3865 21.3893L35.5945 17.682C36.6795 16.9135 37.3269 15.6688 37.3332 14.3393V6.45129C37.3336 6.18585 37.1765 5.94546 36.9332 5.83929L30.2665 2.95928C30.098 2.88662 29.907 2.88662 29.7385 2.95928L23.0719 5.83929C22.8286 5.94546 22.6715 6.18585 22.6719 6.45129V14.3393C22.677 15.6678 23.3224 16.9123 24.4052 17.682ZM23.9999 6.88929L29.9999 4.29795L35.9999 6.88929V14.3393C35.995 15.2391 35.5557 16.0811 34.8205 16.6L29.9999 20.028L25.1792 16.596C24.4449 16.0782 24.0057 15.2378 23.9999 14.3393V6.88929Z" fill="#56ABF7"/>
<path d="M28.2668 15.8666C28.5549 16.0828 28.9625 16.0311 29.1875 15.75L34.5208 9.08331C34.751 8.79575 34.7044 8.37609 34.4168 8.14598C34.1293 7.91586 33.7096 7.96242 33.4795 8.24998L28.5462 14.4126L26.4002 12.8C26.2096 12.6571 25.9573 12.6267 25.7383 12.7202C25.5193 12.8138 25.3668 13.0171 25.3383 13.2536C25.3098 13.49 25.4096 13.7237 25.6002 13.8666L28.2668 15.8666Z" fill="#56ABF7"/>
<path d="M1.33333 35.3334H2V38.0001C2 39.1046 2.89543 40.0001 4 40.0001H8C9.10457 40.0001 10 39.1046 10 38.0001V35.3334H26V38.0001C26 39.1046 26.8954 40.0001 28 40.0001H32C33.1046 40.0001 34 39.1046 34 38.0001V35.3334H34.6667C35.403 35.3334 36 34.7365 36 34.0001V24.0001C36.0025 23.0339 35.5812 22.1152 34.8473 21.4867L37.1407 19.8547C38.928 18.5855 39.9928 16.5316 40 14.3394V4.69874C40.0004 4.4333 39.8433 4.19292 39.6 4.08674L30.2667 0.0547438C30.0982 -0.0179224 29.9072 -0.0179224 29.7387 0.0547438L20.4 4.08674C20.1567 4.19292 19.9996 4.4333 20 4.69874V7.33341H9.91333C8.49993 7.33389 7.24048 8.22571 6.77067 9.55874L2.844 20.7161C1.21387 20.956 0.00455145 22.3524 0 24.0001V34.0001C0 34.7365 0.596954 35.3334 1.33333 35.3334ZM8.66667 38.0001C8.66667 38.3683 8.36819 38.6667 8 38.6667H4C3.63181 38.6667 3.33333 38.3683 3.33333 38.0001V35.3334H8.66667V38.0001ZM6 34.0001H4.66667V32.6667H6V34.0001ZM32.6667 38.0001C32.6667 38.3683 32.3682 38.6667 32 38.6667H28C27.6318 38.6667 27.3333 38.3683 27.3333 38.0001V35.3334H32.6667V38.0001ZM31.3333 34.0001H30V32.6667H31.3333V34.0001ZM21.3333 5.13674L30 1.39274L38.6667 5.13674V14.3367C38.6601 16.0978 37.8038 17.7473 36.3673 18.7661L30 23.3014L23.6327 18.7681C22.1964 17.7494 21.3402 16.1002 21.3333 14.3394V5.13674ZM31.3333 24.6667C31.7015 24.6667 32 24.9652 32 25.3334V26.6667C32 27.0349 31.7015 27.3334 31.3333 27.3334H27.3333C26.9651 27.3334 26.6667 27.0349 26.6667 26.6667C26.6667 25.5622 27.5621 24.6667 28.6667 24.6667H31.3333ZM20 11.3334V12.6667H15.3333V11.3334H20ZM20 10.0001H18.6667V8.66674H20V10.0001ZM8.02867 10.0001C8.31107 9.20131 9.06612 8.66715 9.91333 8.66674H17.3333V10.0001H15.3333C14.597 10.0001 14 10.597 14 11.3334V12.6667C14 13.4031 14.597 14.0001 15.3333 14.0001H20V14.3394C20.0072 16.5316 21.072 18.5855 22.8593 19.8547L24 20.6667H4.27467L8.02867 10.0001ZM1.33333 24.0001C1.33333 22.8955 2.22876 22.0001 3.33333 22.0001H25.8733L27.888 23.4347C26.3929 23.7939 25.3375 25.1291 25.3333 26.6667C25.3333 27.7713 26.2288 28.6667 27.3333 28.6667H31.3333C32.4379 28.6667 33.3333 27.7713 33.3333 26.6667V25.3334C33.3312 24.5099 32.8244 23.7719 32.0567 23.4741L33.7073 22.2987C34.3052 22.6565 34.6699 23.3033 34.6667 24.0001L34.6667 34.0001H32.6667V32.6667C32.6667 31.9304 32.0697 31.3334 31.3333 31.3334H30C29.2636 31.3334 28.6667 31.9304 28.6667 32.6667V34.0001H7.33333V32.6667C7.33333 31.9304 6.73638 31.3334 6 31.3334H4.66667C3.93029 31.3334 3.33333 31.9304 3.33333 32.6667V34.0001H1.33333V24.0001Z" fill="#56ABF7"/>
<path d="M12.0001 10H10.8594C10.0119 10.001 9.2566 10.5348 8.97278 11.3333L6.47012 18.4453C6.34788 18.7927 6.5304 19.1734 6.87778 19.2957C7.22517 19.4179 7.60588 19.2354 7.72812 18.888L10.2308 11.7787C10.3247 11.5119 10.5766 11.3334 10.8594 11.3333H12.0001C12.3683 11.3333 12.6668 11.0349 12.6668 10.6667C12.6668 10.2985 12.3683 10 12.0001 10Z" fill="#56ABF7"/>
<path d="M4.6665 28.6667H8.6665C9.77107 28.6667 10.6665 27.7713 10.6665 26.6667C10.6643 24.8267 9.17321 23.3356 7.33317 23.3334H4.6665C3.56193 23.3334 2.6665 24.2288 2.6665 25.3334V26.6667C2.6665 27.7713 3.56193 28.6667 4.6665 28.6667ZM3.99984 25.3334C3.99984 24.9652 4.29831 24.6667 4.6665 24.6667H7.33317C8.43774 24.6667 9.33317 25.5621 9.33317 26.6667C9.33317 27.0349 9.03469 27.3334 8.6665 27.3334H4.6665C4.29831 27.3334 3.99984 27.0349 3.99984 26.6667V25.3334Z" fill="#56ABF7"/>
<path d="M13.3338 32.6667H22.6672C23.4035 32.6667 24.0005 32.0698 24.0005 31.3334V28.6667C24.0005 27.9303 23.4035 27.3334 22.6672 27.3334H13.3338C12.5974 27.3334 12.0005 27.9303 12.0005 28.6667V31.3334C12.0005 32.0698 12.5974 32.6667 13.3338 32.6667ZM13.3338 28.6667H22.6672V31.3334H13.3338V28.6667Z" fill="#56ABF7"/>
</g>
<defs>
<clipPath id="clip0">
<rect width="40" height="40" fill="white"/>
</clipPath>
</defs>
</svg>
