<svg width="40" height="40" viewBox="0 0 40 40" fill="none" xmlns="http://www.w3.org/2000/svg">
<path d="M28.4277 20.6452C28.8111 20.6452 29.1819 20.7573 29.5013 20.9703L34.0071 23.9743C34.5394 24.3284 35.1581 24.5161 35.7967 24.5161H40V23.2258H35.7973C35.4143 23.2258 35.0425 23.1137 34.7231 22.9007L32.9032 21.6872V0H8.3871V3.87097H0V40H24.5161V36.129H32.9032V30.7012C32.9439 30.6915 32.9858 30.6883 33.0264 30.6786L36.0276 29.9285C36.6935 29.7618 37.3787 29.6774 38.0645 29.6774H40V28.3871H38.0645C37.2735 28.3871 36.4825 28.4844 35.7148 28.6763L32.7136 29.4263C31.1709 29.8116 29.529 29.7489 28.022 29.2465L26.9349 28.8839C25.9451 28.5541 24.9143 28.3871 23.871 28.3871H18.2412C18.2412 27.3201 19.1098 26.4516 20.1767 26.4516H27.2735C28.3408 26.4516 29.209 25.5831 29.209 24.5161C29.209 23.5263 28.4592 22.7174 27.5 22.6033L28.0295 20.6452H28.4277ZM27.6128 30.4703C28.6026 30.8008 29.6336 30.9677 30.6767 30.9677C30.9898 30.9677 31.302 30.9406 31.6129 30.9104V34.8387H24.5161V32.7284C24.7426 32.4672 24.9181 32.1582 25.0123 31.8085L25.5406 29.8516C25.8729 29.9194 26.2024 30 26.526 30.1084L27.6128 30.4703ZM24.2477 29.6922L23.767 31.4715C23.6419 31.9349 23.2195 32.2581 22.74 32.2581H22.5309C21.9446 32.2581 21.4677 31.7814 21.4677 31.1949C21.4677 31.1007 21.48 31.0077 21.5045 30.9173L21.8394 29.6774H23.871C23.9967 29.6774 24.122 29.6872 24.2477 29.6922V29.6922ZM20.5025 29.6774L20.2586 30.58C20.2044 30.78 20.1774 30.9863 20.1774 31.1949C20.1774 32.0672 20.66 32.8213 21.3666 33.2277L21.164 34.0367L22.4156 34.3498L22.6162 33.5484H22.74C22.9064 33.5484 23.0677 33.5251 23.2258 33.4917V38.7097H1.29032V5.16129H9.67742V1.29032H31.6129V20.8272L30.2174 19.8967C29.6853 19.5426 29.0666 19.3548 28.4277 19.3548H28.378L31.0632 9.42005C31.1174 9.22001 31.1445 9.01367 31.1445 8.80513C31.1445 7.50725 30.0885 6.45161 28.791 6.45161H28.5818C27.5208 6.45161 26.5864 7.16702 26.3095 8.19147L24.5161 14.8277V3.87097H10.9677V5.16129H23.2258V19.3548H21.8911C21.1889 19.3548 20.5277 19.5876 19.9748 20H13.5484V21.2903H18.6193L17.3289 22.5806H13.5484V23.871H16.0393L14.9613 24.949C14.5807 25.3289 14.3709 25.8348 14.3709 26.3735C14.3709 27.4839 15.2741 28.3871 16.3851 28.3871C16.5839 28.3871 16.7755 28.349 16.9613 28.2935C16.9607 28.325 16.9515 28.355 16.9515 28.3871C16.9515 29.0987 17.5302 29.6774 18.2419 29.6774H20.5025ZM25.4722 25.1613H23.0601L25.7844 15.0813L27.9974 15.8187L25.4722 25.1613ZM20.5226 21.2116C20.8833 20.8515 21.382 20.6452 21.8911 20.6452H22.9439L22.4175 22.5923C21.6012 22.6219 20.8361 22.9445 20.2555 23.5251L16.8961 26.8844C16.7613 27.0193 16.5748 27.0968 16.3845 27.0968C15.9851 27.0968 15.6606 26.7723 15.6606 26.3735C15.6606 26.1801 15.7362 25.9986 15.8729 25.8619L20.5226 21.2116ZM21.1678 24.4374C21.4116 24.1935 21.7219 24.0272 22.053 23.9406L21.7232 25.1613H20.4445L21.1678 24.4374ZM29.8173 9.08329L29.0272 12.0064L26.8142 11.2689L27.5548 8.52854C27.6805 8.06515 28.1026 7.74194 28.5818 7.74194H28.791C29.3775 7.74194 29.8541 8.21856 29.8541 8.80513C29.8541 8.89932 29.8419 8.99225 29.8173 9.08329V9.08329ZM26.4774 12.5167L28.6905 13.2542L28.3342 14.5709L26.1212 13.8335L26.4774 12.5167ZM27.2735 23.871C27.6292 23.871 27.9187 24.1608 27.9187 24.5161C27.9187 24.8715 27.6292 25.1613 27.2735 25.1613H26.8085L27.1576 23.871H27.2735Z" fill="#56ABF7"/>
<path d="M19.3548 6.45154H2.58057V12.9032H19.3548V6.45154ZM18.0644 11.6128H3.87089V7.74186H18.0644V11.6128Z" fill="#56ABF7"/>
<path d="M5.16113 9.03223H6.45146V10.3225H5.16113V9.03223Z" fill="#56ABF7"/>
<path d="M7.7417 9.03223H9.03202V10.3225H7.7417V9.03223Z" fill="#56ABF7"/>
<path d="M10.3228 9.03223H11.6131V10.3225H10.3228V9.03223Z" fill="#56ABF7"/>
<path d="M12.9033 9.03223H14.1936V10.3225H12.9033V9.03223Z" fill="#56ABF7"/>
<path d="M15.4839 9.03223H16.7742V10.3225H15.4839V9.03223Z" fill="#56ABF7"/>
<path d="M10.3225 20.6451H9.03218V23.2258H3.87089V18.0645H7.74186V16.7742H2.58057V24.5161H10.3225V20.6451Z" fill="#56ABF7"/>
<path d="M12.4475 14.3826L6.45204 20.378L5.61787 19.5439L4.70557 20.4562L6.45204 22.2026L13.3598 15.2949L12.4475 14.3826Z" fill="#56ABF7"/>
<path d="M9.03218 34.1936H3.87089V29.0323H7.74186V27.7419H2.58057V35.4839H10.3225V31.6129H9.03218V34.1936Z" fill="#56ABF7"/>
<path d="M5.61787 30.5116L4.70557 31.4239L6.45204 33.1704L13.3598 26.2626L12.4475 25.3503L6.45204 31.3458L5.61787 30.5116Z" fill="#56ABF7"/>
<path d="M20.645 35.4839H21.9353V36.7742H20.645V35.4839Z" fill="#56ABF7"/>
<path d="M12.2583 35.4839H19.3551V36.7742H12.2583V35.4839Z" fill="#56ABF7"/>
<path d="M13.5483 17.4193H21.9354V18.7096H13.5483V17.4193Z" fill="#56ABF7"/>
</svg>
