<svg width="40" height="40" viewBox="0 0 40 40" fill="none" xmlns="http://www.w3.org/2000/svg">
<path d="M39.2019 11.5983L31.0595 3.45593C30.544 2.94042 29.8587 2.65656 29.1297 2.65656C28.4006 2.65656 27.7153 2.94042 27.2 3.45593L25.2865 5.36927C24.992 5.66372 24.7822 6.01008 24.6505 6.37852L15.6977 4.77568C15.6971 4.77552 15.6964 4.77552 15.6957 4.77537C11.6703 3.9763 7.73993 6.59338 6.92814 10.6193L6.51522 12.6676C6.05916 14.9296 7.52855 17.1407 9.79051 17.5968C12.0526 18.0525 14.2637 16.5834 14.7198 14.3215L14.9722 13.0689L18.9869 13.42L29.4713 23.9043L31.3715 25.8045C31.7563 26.1893 31.7561 26.8154 31.3715 27.2002C30.9869 27.5849 30.3607 27.585 29.9759 27.2002L24.886 22.1102C24.5314 21.7557 23.9565 21.7557 23.6021 22.1102C23.2476 22.4648 23.2476 23.0396 23.6021 23.3941L28.6921 28.4841C28.8785 28.6705 28.9811 28.9184 28.9811 29.1819C28.9811 29.4455 28.8785 29.6932 28.6921 29.8796C28.3071 30.2644 27.6811 30.2643 27.2965 29.8796L22.2065 24.7897C21.852 24.4351 21.277 24.4351 20.9227 24.7897C20.5681 25.1442 20.5681 25.719 20.9227 26.0736L26.0126 31.1635C26.3974 31.5482 26.3974 32.1743 26.0126 32.5591C25.8262 32.7455 25.5784 32.8481 25.3149 32.8481C25.0513 32.8481 24.8035 32.7455 24.6171 32.5591L19.5271 27.4691C19.1726 27.1146 18.5976 27.1146 18.2432 27.4691C17.8887 27.8236 17.8887 28.3985 18.2432 28.753L23.3332 33.843C23.718 34.2277 23.7178 34.8539 23.3332 35.2386C22.9486 35.6233 22.3224 35.6234 21.9377 35.2386L3.92809 17.2294L1.54977 14.8511C1.19525 14.4965 0.620264 14.4965 0.265892 14.8511C-0.0886308 15.2056 -0.0886308 15.7804 0.265892 16.1349L2.64421 18.5133L5.2324 21.1014L3.80568 22.5282C3.33858 22.9953 3.0812 23.6164 3.0812 24.2772C3.0812 24.938 3.33843 25.5591 3.80568 26.0262L4.27126 26.4918C4.67965 26.9002 5.20576 27.148 5.77303 27.204C5.82902 27.7713 6.07687 28.2974 6.48526 28.7056L6.95084 29.1714C7.37013 29.5906 7.9038 29.8271 8.45231 29.8818C8.50784 30.4496 8.75599 30.9765 9.16483 31.3852L9.63042 31.8508C10.0388 32.2592 10.5649 32.507 11.1322 32.563C11.1882 33.1303 11.436 33.6564 11.8444 34.0648L12.31 34.5304C12.7922 35.0126 13.4256 35.2536 14.059 35.2536C14.6924 35.2536 15.3258 35.0126 15.808 34.5304L17.2347 33.1036L20.6536 36.5225C21.1831 37.052 21.8868 37.3434 22.6354 37.3434C23.3839 37.3434 24.0878 37.0518 24.6171 36.5225C25.1185 36.0211 25.4033 35.3624 25.4322 34.6582C26.1366 34.6293 26.7951 34.3446 27.2967 33.8431C27.8135 33.3262 28.0827 32.6561 28.1107 31.9776C28.7891 31.9496 29.4594 31.6804 29.9761 31.1637C30.493 30.6468 30.7622 29.9766 30.7901 29.2982C31.4686 29.2702 32.1389 29.001 32.6557 28.4841C33.7484 27.3913 33.7484 25.6134 32.6557 24.5206L31.3975 23.2625L36.0009 18.6591L39.202 15.458C40.2659 14.3938 40.2659 12.6623 39.2019 11.5983V11.5983ZM5.08956 24.7422C4.83308 24.4857 4.83308 24.0685 5.08956 23.812L6.42745 22.4742L7.82315 23.8698L6.48526 25.2077C6.22893 25.4642 5.81146 25.4641 5.55514 25.2077L5.08956 24.7422V24.7422ZM7.76914 27.4217C7.51266 27.1653 7.51266 26.7481 7.76914 26.4918L9.10703 25.1539L10.5027 26.5496L9.16499 27.8875C8.90851 28.1438 8.49104 28.1439 8.23487 27.8875L7.76914 27.4217ZM10.4486 30.1013C10.3243 29.9771 10.2559 29.8119 10.2559 29.6363C10.2559 29.4608 10.3243 29.2956 10.4486 29.1714L11.7865 27.8335L13.182 29.229L11.8441 30.5669C11.5878 30.8232 11.1705 30.8232 10.9141 30.5669L10.4486 30.1013ZM14.5238 33.2465C14.2675 33.503 13.85 33.5028 13.5937 33.2465L13.1281 32.7809C12.8717 32.5244 12.8717 32.1073 13.1281 31.8508L14.466 30.5129L15.8617 31.9086L14.5238 33.2465ZM30.1133 21.9785L20.0372 11.9023C19.8862 11.7513 19.687 11.6584 19.4743 11.6399L14.3217 11.1895C14.2949 11.1871 14.2683 11.186 14.2419 11.186C13.8139 11.186 13.4388 11.4879 13.3527 11.9146L12.9398 13.9629C12.6816 15.2433 11.4306 16.0749 10.1493 15.8169C9.52904 15.6919 8.99446 15.3327 8.64432 14.8057C8.29419 14.2787 8.17011 13.6468 8.29525 13.0264L8.70817 10.9782C9.32341 7.92644 12.3055 5.94335 15.3585 6.55934C15.3648 6.56055 15.3713 6.56191 15.3778 6.56297L24.2002 8.14251L25.2865 9.22878L34.0748 18.0171L30.1133 21.9785V21.9785ZM37.9178 14.1739L35.3585 16.7332L26.5702 7.9449C26.3977 7.7724 26.3027 7.54301 26.3027 7.29895C26.3027 7.05488 26.3977 6.82565 26.5702 6.653L28.4837 4.73951C28.6562 4.56702 28.8856 4.47199 29.1295 4.47199C29.3734 4.47199 29.6028 4.56702 29.7755 4.73951L37.9178 12.8819C38.0903 13.0544 38.1854 13.2838 38.1854 13.5278C38.1854 13.7719 38.0903 14.0015 37.9178 14.1739Z" fill="#56ABF7"/>
<path d="M35.7204 14.7963C36.2218 14.7963 36.6282 14.3898 36.6282 13.8884C36.6282 13.387 36.2218 12.9805 35.7204 12.9805C35.219 12.9805 34.8125 13.387 34.8125 13.8884C34.8125 14.3898 35.219 14.7963 35.7204 14.7963Z" fill="#56ABF7"/>
</svg>
