<svg width="27" height="28" viewBox="0 0 27 28" fill="none" xmlns="http://www.w3.org/2000/svg">
<g clip-path="url(#clip0)">
<path d="M13.4996 11.905C15.2366 11.905 16.6496 10.4915 16.6496 8.75498C16.6496 7.01843 15.2366 5.60498 13.4996 5.60498C11.7626 5.60498 10.3496 7.01843 10.3496 8.75498C10.3496 10.4915 11.7626 11.905 13.4996 11.905ZM13.4996 6.50498C14.7403 6.50498 15.7496 7.51433 15.7496 8.75498C15.7496 9.99563 14.7403 11.005 13.4996 11.005C12.259 11.005 11.2496 9.99563 11.2496 8.75498C11.2496 7.51433 12.259 6.50498 13.4996 6.50498Z" fill="#7D7D7D"/>
<path d="M13.4207 24.8457L20.3241 14.8751C22.9134 11.4231 22.539 5.74908 19.5227 2.73318C17.8928 1.10283 15.7256 0.205078 13.4207 0.205078C11.1158 0.205078 8.94858 1.10283 7.31868 2.73273C4.30233 5.74863 3.92793 11.4227 6.50688 14.8611L13.4207 24.8457ZM7.95498 3.36903C9.41523 1.90923 11.3561 1.10508 13.4207 1.10508C15.4853 1.10508 17.4261 1.90923 18.8864 3.36903C21.6089 6.09108 21.9441 11.2157 19.5942 14.3486L13.4207 23.2644L7.23723 14.3351C4.89723 11.2157 5.23293 6.09108 7.95498 3.36903Z" fill="#7D7D7D"/>
<path d="M18.9527 19.5582C18.7052 19.5281 18.4819 19.7054 18.4531 19.9524C18.4243 20.1995 18.6007 20.4231 18.8473 20.4519C23.5795 21.009 26.1 22.5102 26.1 23.3801C26.1 24.6014 21.3066 26.3051 13.5 26.3051C5.6934 26.3051 0.9 24.6014 0.9 23.3801C0.9 22.5102 3.42045 21.009 8.15265 20.4519C8.39925 20.4231 8.57565 20.199 8.54685 19.9524C8.5176 19.7054 8.2944 19.5272 8.04735 19.5582C3.3093 20.1162 0 21.6876 0 23.3801C0 25.2809 4.63725 27.2051 13.5 27.2051C22.3627 27.2051 27 25.2809 27 23.3801C27 21.6876 23.6907 20.1162 18.9527 19.5582Z" fill="#7D7D7D"/>
</g>
<defs>
<clipPath id="clip0">
<rect width="27" height="27" fill="white" transform="translate(0 0.205078)"/>
</clipPath>
</defs>
</svg>
