<svg width="40" height="40" viewBox="0 0 40 40" fill="none" xmlns="http://www.w3.org/2000/svg">
<path d="M37.5282 38.6517H36.4046V3.37078C36.4046 2.99836 36.1028 2.69664 35.7305 2.69664H23.1462C22.7739 2.69664 22.4721 2.99836 22.4721 3.37078V6.29211H21.1238V3.37078C21.1238 2.99836 20.8219 2.69664 20.4496 2.69664H17.5282V0.674141C17.5282 0.301719 17.2264 0 16.8541 0C16.4818 0 16.18 0.301719 16.18 0.674141V2.69664H13.2586C12.8863 2.69664 12.5845 2.99836 12.5845 3.37078V6.29211H10.562C10.1896 6.29211 9.88785 6.59383 9.88785 6.96625V12.5842H4.26988C3.89754 12.5842 3.59574 12.8859 3.59574 13.2584V38.6516H2.47199C2.09965 38.6516 1.79785 38.9534 1.79785 39.3258C1.79785 39.6982 2.09973 40 2.47199 40H37.5282C37.9006 40 38.2024 39.6983 38.2024 39.3259C38.2024 38.9534 37.9005 38.6517 37.5282 38.6517ZM13.9327 4.04492H19.7754V6.29211H13.9327V4.04492ZM11.6855 38.6517H11.2361V37.5281C11.2361 37.1557 10.9342 36.854 10.5619 36.854C10.1896 36.854 9.88777 37.1557 9.88777 37.5281V38.6517H9.43832V36.4045H11.6855V38.6517ZM16.1799 21.3483V22.508V38.6517H13.0338V35.7304C13.0338 35.358 12.7319 35.0563 12.3596 35.0563H8.76418C8.39184 35.0563 8.09004 35.358 8.09004 35.7304V38.6517H4.94395V13.9326H16.1799V21.3483ZM16.854 12.5843H11.2361V7.64047H22.472V20.6741H17.5282V18.427H19.5507C19.9231 18.427 20.2249 18.1252 20.2249 17.7528C20.2249 17.3804 19.923 17.0787 19.5507 17.0787H17.5282V14.8315H19.5507C19.9231 14.8315 20.2249 14.5298 20.2249 14.1573C20.2249 13.7849 19.923 13.4832 19.5507 13.4832H17.5282V13.2585C17.5282 12.886 17.2264 12.5843 16.854 12.5843ZM28.7642 38.6517H17.5282V22.508V22.0225H28.7642V38.6517ZM35.0563 38.6517H30.1125V21.3483V20.4494C30.1125 20.077 29.8106 19.7752 29.4383 19.7752C29.0661 19.7752 28.7642 20.077 28.7642 20.4494V20.6741H27.4159V20.4494C27.4159 20.077 27.114 19.7752 26.7418 19.7752C26.3695 19.7752 26.0676 20.077 26.0676 20.4494V20.6741H23.8204V6.96633V4.04492H35.0564V38.6517H35.0563Z" fill="#FCFCFC"/>
<path d="M20.4495 37.3035C20.8219 37.3035 21.1237 37.0017 21.1237 36.6294V24.0452C21.1237 23.6728 20.8218 23.371 20.4495 23.371C20.0773 23.371 19.7754 23.6728 19.7754 24.0452V36.6295C19.7754 37.0017 20.0772 37.3035 20.4495 37.3035Z" fill="#FCFCFC"/>
<path d="M23.1463 37.3035C23.5186 37.3035 23.8204 37.0017 23.8204 36.6294V24.0452C23.8204 23.6728 23.5186 23.371 23.1463 23.371C22.774 23.371 22.4722 23.6728 22.4722 24.0452V36.6295C22.4721 37.0017 22.774 37.3035 23.1463 37.3035Z" fill="#FCFCFC"/>
<path d="M25.8431 37.3035C26.2154 37.3035 26.5172 37.0017 26.5172 36.6294V24.0452C26.5172 23.6728 26.2153 23.371 25.8431 23.371C25.4708 23.371 25.1689 23.6728 25.1689 24.0452V36.6295C25.1689 37.0017 25.4708 37.3035 25.8431 37.3035Z" fill="#FCFCFC"/>
<path d="M26.7415 8.53935C27.1139 8.53935 27.4157 8.23763 27.4157 7.86521V6.96638C27.4157 6.59396 27.1138 6.29224 26.7415 6.29224C26.3693 6.29224 26.0674 6.59396 26.0674 6.96638V7.86528C26.0674 8.23763 26.3692 8.53935 26.7415 8.53935Z" fill="#FCFCFC"/>
<path d="M29.4383 8.53935C29.8106 8.53935 30.1124 8.23763 30.1124 7.86521V6.96638C30.1124 6.59396 29.8106 6.29224 29.4383 6.29224C29.066 6.29224 28.7642 6.59396 28.7642 6.96638V7.86528C28.7642 8.23763 29.066 8.53935 29.4383 8.53935Z" fill="#FCFCFC"/>
<path d="M32.1351 8.53935C32.5074 8.53935 32.8092 8.23763 32.8092 7.86521V6.96638C32.8092 6.59396 32.5073 6.29224 32.1351 6.29224C31.7628 6.29224 31.4609 6.59396 31.4609 6.96638V7.86528C31.4609 8.23763 31.7627 8.53935 32.1351 8.53935Z" fill="#FCFCFC"/>
<path d="M26.7415 13.0336C27.1139 13.0336 27.4157 12.7319 27.4157 12.3595V11.4606C27.4157 11.0882 27.1138 10.7864 26.7415 10.7864C26.3693 10.7864 26.0674 11.0882 26.0674 11.4606V12.3595C26.0674 12.7319 26.3692 13.0336 26.7415 13.0336Z" fill="#FCFCFC"/>
<path d="M29.4383 13.0336C29.8106 13.0336 30.1124 12.7319 30.1124 12.3595V11.4606C30.1124 11.0882 29.8106 10.7864 29.4383 10.7864C29.066 10.7864 28.7642 11.0882 28.7642 11.4606V12.3595C28.7642 12.7319 29.066 13.0336 29.4383 13.0336Z" fill="#FCFCFC"/>
<path d="M32.1351 13.0336C32.5074 13.0336 32.8092 12.7319 32.8092 12.3595V11.4606C32.8092 11.0882 32.5073 10.7864 32.1351 10.7864C31.7628 10.7864 31.4609 11.0882 31.4609 11.4606V12.3595C31.4609 12.7319 31.7627 13.0336 32.1351 13.0336Z" fill="#FCFCFC"/>
<path d="M26.7415 17.5281C27.1139 17.5281 27.4157 17.2264 27.4157 16.854V15.9551C27.4157 15.5827 27.1138 15.2809 26.7415 15.2809C26.3693 15.2809 26.0674 15.5827 26.0674 15.9551V16.854C26.0674 17.2263 26.3692 17.5281 26.7415 17.5281Z" fill="#FCFCFC"/>
<path d="M29.4383 17.5281C29.8106 17.5281 30.1124 17.2264 30.1124 16.854V15.9551C30.1124 15.5827 29.8106 15.2809 29.4383 15.2809C29.066 15.2809 28.7642 15.5827 28.7642 15.9551V16.854C28.7642 17.2263 29.066 17.5281 29.4383 17.5281Z" fill="#FCFCFC"/>
<path d="M32.1351 17.5281C32.5074 17.5281 32.8092 17.2264 32.8092 16.854V15.9551C32.8092 15.5827 32.5073 15.2809 32.1351 15.2809C31.7628 15.2809 31.4609 15.5827 31.4609 15.9551V16.854C31.4609 17.2263 31.7627 17.5281 32.1351 17.5281Z" fill="#FCFCFC"/>
<path d="M7.86555 19.3259C8.23789 19.3259 8.53969 19.0241 8.53969 18.6517V17.7528C8.53969 17.3804 8.23781 17.0787 7.86555 17.0787C7.49328 17.0787 7.19141 17.3804 7.19141 17.7528V18.6517C7.19141 19.0241 7.49328 19.3259 7.86555 19.3259Z" fill="#FCFCFC"/>
<path d="M10.5618 19.3259C10.9342 19.3259 11.236 19.0241 11.236 18.6517V17.7528C11.236 17.3804 10.9341 17.0787 10.5618 17.0787C10.1896 17.0787 9.8877 17.3804 9.8877 17.7528V18.6517C9.8877 19.0241 10.1895 19.3259 10.5618 19.3259Z" fill="#FCFCFC"/>
<path d="M13.2586 19.3259C13.631 19.3259 13.9328 19.0241 13.9328 18.6517V17.7528C13.9328 17.3804 13.6309 17.0787 13.2586 17.0787C12.8863 17.0787 12.5845 17.3804 12.5845 17.7528V18.6517C12.5845 19.0241 12.8863 19.3259 13.2586 19.3259Z" fill="#FCFCFC"/>
<path d="M7.86555 23.8202C8.23789 23.8202 8.53969 23.5185 8.53969 23.1461V22.2472C8.53969 21.8748 8.23781 21.5731 7.86555 21.5731C7.49328 21.5731 7.19141 21.8748 7.19141 22.2472V23.1461C7.19141 23.5185 7.49328 23.8202 7.86555 23.8202Z" fill="#FCFCFC"/>
<path d="M10.5618 23.8202C10.9342 23.8202 11.236 23.5185 11.236 23.1461V22.2472C11.236 21.8748 10.9341 21.5731 10.5618 21.5731C10.1896 21.5731 9.8877 21.8748 9.8877 22.2472V23.1461C9.8877 23.5185 10.1895 23.8202 10.5618 23.8202Z" fill="#FCFCFC"/>
<path d="M13.2586 23.8202C13.631 23.8202 13.9328 23.5185 13.9328 23.1461V22.2472C13.9328 21.8748 13.6309 21.5731 13.2586 21.5731C12.8863 21.5731 12.5845 21.8748 12.5845 22.2472V23.1461C12.5845 23.5185 12.8863 23.8202 13.2586 23.8202Z" fill="#FCFCFC"/>
<path d="M7.86555 28.3146C8.23789 28.3146 8.53969 28.0129 8.53969 27.6405V26.7416C8.53969 26.3692 8.23781 26.0674 7.86555 26.0674C7.49328 26.0674 7.19141 26.3692 7.19141 26.7416V27.6405C7.19141 28.0129 7.49328 28.3146 7.86555 28.3146Z" fill="#FCFCFC"/>
<path d="M10.5618 28.3146C10.9342 28.3146 11.236 28.0129 11.236 27.6405V26.7416C11.236 26.3692 10.9341 26.0674 10.5618 26.0674C10.1896 26.0674 9.8877 26.3692 9.8877 26.7416V27.6405C9.8877 28.0129 10.1895 28.3146 10.5618 28.3146Z" fill="#FCFCFC"/>
<path d="M13.2586 28.3146C13.631 28.3146 13.9328 28.0129 13.9328 27.6405V26.7416C13.9328 26.3692 13.6309 26.0674 13.2586 26.0674C12.8863 26.0674 12.5845 26.3692 12.5845 26.7416V27.6405C12.5845 28.0129 12.8863 28.3146 13.2586 28.3146Z" fill="#FCFCFC"/>
<path d="M7.86555 32.809C8.23789 32.809 8.53969 32.5072 8.53969 32.1348V31.2359C8.53969 30.8635 8.23781 30.5618 7.86555 30.5618C7.49328 30.5618 7.19141 30.8635 7.19141 31.2359V32.1348C7.19141 32.5072 7.49328 32.809 7.86555 32.809Z" fill="#FCFCFC"/>
<path d="M10.5618 32.809C10.9342 32.809 11.236 32.5072 11.236 32.1348V31.2359C11.236 30.8635 10.9341 30.5618 10.5618 30.5618C10.1896 30.5618 9.8877 30.8635 9.8877 31.2359V32.1348C9.8877 32.5072 10.1895 32.809 10.5618 32.809Z" fill="#FCFCFC"/>
<path d="M13.2586 32.809C13.631 32.809 13.9328 32.5072 13.9328 32.1348V31.2359C13.9328 30.8635 13.6309 30.5618 13.2586 30.5618C12.8863 30.5618 12.5845 30.8635 12.5845 31.2359V32.1348C12.5845 32.5072 12.8863 32.809 13.2586 32.809Z" fill="#FCFCFC"/>
<path d="M32.1351 22.0225C32.5074 22.0225 32.8092 21.7208 32.8092 21.3484V20.4495C32.8092 20.077 32.5073 19.7753 32.1351 19.7753C31.7628 19.7753 31.4609 20.077 31.4609 20.4495V21.3484C31.4609 21.7207 31.7627 22.0225 32.1351 22.0225Z" fill="#FCFCFC"/>
<path d="M32.1351 26.5169C32.5074 26.5169 32.8092 26.2152 32.8092 25.8428V24.9439C32.8092 24.5714 32.5073 24.2697 32.1351 24.2697C31.7628 24.2697 31.4609 24.5714 31.4609 24.9439V25.8428C31.4609 26.2151 31.7627 26.5169 32.1351 26.5169Z" fill="#FCFCFC"/>
<path d="M32.1351 31.0112C32.5074 31.0112 32.8092 30.7095 32.8092 30.3371V29.4382C32.8092 29.0658 32.5073 28.764 32.1351 28.764C31.7628 28.764 31.4609 29.0658 31.4609 29.4382V30.3371C31.4609 30.7094 31.7627 31.0112 32.1351 31.0112Z" fill="#FCFCFC"/>
<path d="M32.1351 35.5056C32.5074 35.5056 32.8092 35.2039 32.8092 34.8315V33.9326C32.8092 33.5601 32.5073 33.2584 32.1351 33.2584C31.7628 33.2584 31.4609 33.5601 31.4609 33.9326V34.8315C31.4609 35.2038 31.7627 35.5056 32.1351 35.5056Z" fill="#FCFCFC"/>
<path d="M20.2245 10.5618C20.2245 10.1894 19.9226 9.88763 19.5503 9.88763H14.1571C13.7847 9.88763 13.4829 10.1894 13.4829 10.5618C13.4829 10.9342 13.7848 11.2359 14.1571 11.2359H19.5503C19.9227 11.2359 20.2245 10.9342 20.2245 10.5618Z" fill="#FCFCFC"/>
</svg>
