<svg width="40" height="25" viewBox="0 0 40 25" fill="none" xmlns="http://www.w3.org/2000/svg">
<path d="M17.432 25H0.944V22.624C3.44 20.656 5.372 19.096 6.74 17.944C8.132 16.768 9.464 15.532 10.736 14.236C12.032 12.916 12.944 11.752 13.472 10.744C14 9.712 14.264 8.692 14.264 7.684C14.264 6.244 13.772 5.152 12.788 4.408C11.804 3.664 10.628 3.292 9.26 3.292C6.5 3.292 4.328 4.3 2.744 6.316L0.908 4.408C1.82 3.208 3.008 2.284 4.472 1.636C5.96 0.963998 7.556 0.627998 9.26 0.627998C11.444 0.627998 13.328 1.24 14.912 2.464C16.52 3.688 17.324 5.428 17.324 7.684C17.324 9.916 16.364 12.148 14.444 14.38C12.524 16.588 9.596 19.24 5.66 22.336H17.432V25ZM35.7161 25H32.7281V18.916H21.3161V16.432L31.6121 0.987998H35.7161V16.288H39.1001V18.916H35.7161V25ZM32.7281 16.288V3.76L24.3041 16.288H32.7281Z" fill="#FCFCFC"/>
</svg>
