<svg width="19" height="26" viewBox="0 0 19 26" fill="none" xmlns="http://www.w3.org/2000/svg">
<path d="M10.088 25.432C8.48 25.432 7.064 25.096 5.84 24.424C4.616 23.752 3.644 22.84 2.924 21.688C2.228 20.512 1.7 19.204 1.34 17.764C1.004 16.3 0.836 14.728 0.836 13.048C0.836 10.792 1.172 8.752 1.844 6.928C2.516 5.104 3.596 3.604 5.084 2.428C6.596 1.228 8.432 0.627998 10.592 0.627998C13.352 0.627998 15.572 1.588 17.252 3.508L15.74 5.74C14.348 4.108 12.632 3.292 10.592 3.292C9.104 3.292 7.832 3.76 6.776 4.696C5.744 5.632 4.988 6.796 4.508 8.188C4.052 9.556 3.824 11.068 3.824 12.724C3.824 13.132 3.836 13.444 3.86 13.66C4.46 12.7 5.384 11.836 6.632 11.068C7.904 10.3 9.248 9.916 10.664 9.916C12.944 9.916 14.816 10.588 16.28 11.932C17.768 13.252 18.512 15.136 18.512 17.584C18.512 19.768 17.744 21.628 16.208 23.164C14.672 24.676 12.632 25.432 10.088 25.432ZM9.98 22.768C11.708 22.768 13.052 22.252 14.012 21.22C14.996 20.164 15.488 18.988 15.488 17.692C15.488 16.012 14.972 14.728 13.94 13.84C12.908 12.952 11.576 12.508 9.944 12.508C8.768 12.508 7.64 12.844 6.56 13.516C5.48 14.164 4.604 15.028 3.932 16.108C4.1 17.884 4.676 19.444 5.66 20.788C6.644 22.108 8.084 22.768 9.98 22.768Z" fill="#FCFCFC"/>
</svg>
