<svg width="44" height="44" viewBox="0 0 44 44" fill="none" xmlns="http://www.w3.org/2000/svg">
<g clip-path="url(#clip0)">
<path d="M20.2598 29.8441C20.5951 29.5081 20.5951 28.9642 20.2598 28.6282C19.9241 28.2932 19.3803 28.2932 19.0442 28.6282C18.7092 28.9642 18.7092 29.5081 19.0442 29.8441C19.3803 30.1791 19.9241 30.1791 20.2598 29.8441Z" fill="#FCFCFC"/>
<path d="M16.1953 9.45044C16.1953 14.6614 20.4348 18.9012 25.6458 18.9012C30.8567 18.9012 35.0962 14.6614 35.0962 9.45044C35.0962 4.23947 30.8567 0 25.6458 0C20.4348 0 16.1953 4.23947 16.1953 9.45044ZM33.3781 9.45044C33.3781 13.7141 29.9094 17.1828 25.6458 17.1828C21.3821 17.1828 17.9134 13.7141 17.9134 9.45044C17.9134 5.18714 21.3821 1.71842 25.6458 1.71842C29.9094 1.71842 33.3781 5.18714 33.3781 9.45044Z" fill="#FCFCFC"/>
<path d="M9.93879 43.7458C10.2718 44.0815 10.8139 44.0852 11.1513 43.7528L15.3166 39.6493C16.0242 38.9417 16.2394 37.894 15.9282 36.9832L16.8242 36.1192C17.3066 35.6532 17.9417 35.3964 18.6131 35.3964H30.0344C32.0607 35.3964 33.9758 34.6183 35.4277 33.2054C35.4874 33.1473 34.9741 33.7519 43.2194 23.8972C44.4424 22.4504 44.2594 20.2778 42.8112 19.0535C41.3721 17.8407 39.2163 18.0149 37.99 19.4369L32.9204 24.6475C32.2802 23.8596 31.304 23.3685 30.2493 23.3685H20.6689C19.3056 22.7982 17.8591 22.5095 16.3667 22.5095C12.2296 22.5095 8.61717 24.4203 6.67854 28.0028C5.8618 27.848 5.00041 28.0951 4.38072 28.7148L0.293648 32.8139C-0.0400309 33.1486 -0.0407023 33.6901 0.292306 34.0258L9.93879 43.7458ZM16.3663 24.2276C17.6822 24.2276 18.9545 24.4924 20.1486 25.0148C20.2573 25.0624 20.3745 25.0869 20.493 25.0869H30.2493C31.1808 25.0869 31.9677 25.8466 31.9677 26.805C31.9677 27.7527 31.1969 28.5234 30.2493 28.5234H23.2396C22.7653 28.5234 22.3806 28.9081 22.3806 29.3825C22.3806 29.8571 22.7653 30.2415 23.2396 30.2415H30.2493C32.1442 30.2415 33.6858 28.7 33.6858 26.805C33.6858 26.654 33.675 26.5042 33.6555 26.3559C38.5597 21.3148 39.2512 20.6064 39.2808 20.5712C39.8931 19.8484 40.98 19.7568 41.7031 20.3664C42.4269 20.9784 42.5185 22.0647 41.9045 22.7915L34.1987 32.0036C33.0734 33.0838 31.5961 33.6783 30.0344 33.6783H18.6131C17.4939 33.6783 16.4345 34.1064 15.6308 34.8828L14.9007 35.5874L8.17002 28.8571C9.74308 25.906 12.6948 24.2276 16.3663 24.2276ZM5.5966 29.929C5.87992 29.6457 6.31498 29.5946 6.66041 29.8081C6.80912 29.8988 6.38212 29.51 14.1017 37.2189C14.4451 37.5623 14.4267 38.1095 14.1064 38.4298L10.5555 41.928L2.11378 33.4219L5.5966 29.929Z" fill="#FCFCFC"/>
<path d="M24.6171 4.29492V5.30167C23.6171 5.65616 22.8987 6.61121 22.8987 7.73142C22.8987 9.15241 24.0548 10.3089 25.4761 10.3089C25.9498 10.3089 26.3352 10.6942 26.3352 11.1679C26.3352 11.6416 25.9498 12.027 25.4761 12.027C25.1092 12.027 24.7128 11.7963 24.3606 11.377C24.0551 11.0138 23.5133 10.9672 23.1501 11.2723C22.7869 11.5778 22.7399 12.1196 23.0454 12.4828C23.5046 13.029 24.0447 13.4097 24.6171 13.6017V14.6044C24.6171 15.0791 25.0018 15.4634 25.4761 15.4634C25.9505 15.4634 26.3352 15.0791 26.3352 14.6044V13.5977C27.3352 13.2428 28.0536 12.2878 28.0536 11.1679C28.0536 9.74658 26.8975 8.59046 25.4761 8.59046C25.0025 8.59046 24.6171 8.20508 24.6171 7.73142C24.6171 7.25775 25.0025 6.87204 25.4761 6.87204C25.7806 6.87204 26.1019 7.02747 26.4053 7.3212C26.7464 7.65119 27.2902 7.64212 27.6202 7.30139C27.9502 6.96033 27.9411 6.41651 27.6004 6.08652C27.1643 5.66455 26.7279 5.42587 26.3352 5.29562V4.29492C26.3352 3.82025 25.9505 3.43555 25.4761 3.43555C25.0018 3.43555 24.6171 3.82025 24.6171 4.29492Z" fill="#FCFCFC"/>
</g>
<defs>
<clipPath id="clip0">
<rect width="43.9141" height="44" fill="white"/>
</clipPath>
</defs>
</svg>
