<svg width="44" height="44" viewBox="0 0 44 44" fill="none" xmlns="http://www.w3.org/2000/svg">
<path d="M33.2929 15.0535C33.1883 14.8043 33.0602 14.5694 32.9111 14.3515H35.1484C37.3281 14.3515 39.1015 12.5781 39.1015 10.3984C39.1015 8.2187 37.3281 6.4453 35.1484 6.4453H28.2665C28.704 5.80919 28.9609 5.03962 28.9609 4.21093C28.9609 2.03122 27.1875 0.257812 25.0078 0.257812H3.95312C1.7734 0.257812 0 2.03122 0 4.21093C0 6.39064 1.7734 8.16405 3.95312 8.16405H10.835C10.3975 8.80016 10.1406 9.56972 10.1406 10.3984C10.1406 11.2271 10.3974 11.9967 10.835 12.6328H8.59373C6.41402 12.6328 4.64062 14.4062 4.64062 16.5859C4.64062 17.8378 5.22619 18.9549 6.13722 19.6797C5.22619 20.4044 4.64062 21.5215 4.64062 22.7734C4.64062 24.0252 5.22619 25.1423 6.13722 25.8671C5.22619 26.5919 4.64062 27.709 4.64062 28.9609C4.64062 30.2127 5.22619 31.3298 6.13722 32.0546C5.22619 32.7794 4.64062 33.8965 4.64062 35.1484C4.64062 37.3281 6.41402 39.1015 8.59373 39.1015H18.7214C21.3895 41.9552 25.185 43.7422 29.3907 43.7422C37.4463 43.7422 44 37.1884 44 29.1328C44 22.4283 39.4599 16.7649 33.2929 15.0535ZM35.1484 8.16405C36.3805 8.16405 37.3827 9.16642 37.3827 10.3984C37.3827 11.6304 36.3805 12.6328 35.1484 12.6328H29.6484H14.0937C12.8616 12.6328 11.8594 11.6304 11.8594 10.3984C11.8594 9.16642 12.8616 8.16405 14.0937 8.16405H35.1484ZM3.95312 6.4453C2.72103 6.4453 1.71875 5.44293 1.71875 4.21093C1.71875 2.97893 2.72103 1.97656 3.95312 1.97656H25.0078C26.2398 1.97656 27.2421 2.97893 27.2421 4.21093C27.2421 5.44293 26.2398 6.4453 25.0078 6.4453H3.95312ZM8.59373 14.3515H29.6484C29.9945 14.3515 30.326 14.432 30.6233 14.576C30.2169 14.5419 29.8059 14.5235 29.3907 14.5235C25.3563 14.5235 21.6988 16.1674 19.0525 18.8203H8.59373C7.36174 18.8203 6.35936 17.8179 6.35936 16.5859C6.35936 15.3539 7.36174 14.3515 8.59373 14.3515ZM8.59373 20.539H17.5841C16.6085 21.8756 15.8542 23.3831 15.3752 25.0078H8.59373C7.36165 25.0078 6.35936 24.0055 6.35936 22.7734C6.35936 21.5414 7.36165 20.539 8.59373 20.539ZM8.59373 26.7265H14.9806C14.8502 27.5097 14.7813 28.3133 14.7813 29.1328C14.7813 29.8329 14.8319 30.5212 14.9276 31.1953H8.59373C7.36165 31.1953 6.35936 30.193 6.35936 28.9609C6.35936 27.7288 7.36165 26.7265 8.59373 26.7265ZM8.59373 37.3827C7.36165 37.3827 6.35936 36.3805 6.35936 35.1484C6.35936 33.9163 7.36165 32.914 8.59373 32.914H15.2785C15.7121 34.5307 16.4165 36.0375 17.3404 37.3827H8.59373ZM29.3907 42.0234C22.2828 42.0234 16.5001 36.2407 16.5001 29.1328C16.5001 22.025 22.2828 16.2422 29.3907 16.2422C36.4985 16.2422 42.2813 22.025 42.2813 29.1328C42.2813 36.2407 36.4985 42.0234 29.3907 42.0234Z" fill="#FCFCFC"/>
</svg>
