<svg width="40" height="40" viewBox="0 0 40 40" fill="none" xmlns="http://www.w3.org/2000/svg">
<g clip-path="url(#clip0)">
<path d="M19.9992 34.6667C18.5285 34.6667 17.3325 33.4707 17.3325 32C17.3325 30.5294 18.5285 29.3334 19.9992 29.3334C21.4699 29.3334 22.6659 30.5294 22.6659 32C22.6659 33.4707 21.4699 34.6667 19.9992 34.6667ZM19.9992 30.6667C19.2639 30.6667 18.6659 31.2647 18.6659 32C18.6659 32.7354 19.2639 33.3334 19.9992 33.3334C20.7345 33.3334 21.3325 32.7354 21.3325 32C21.3325 31.2647 20.7345 30.6667 19.9992 30.6667Z" fill="#56ABF7"/>
<path d="M30.666 39.9999H9.33268C8.96468 39.9999 8.66602 39.7019 8.66602 39.3332V24.6665C8.66602 24.2979 8.96468 23.9999 9.33268 23.9999H30.666C31.034 23.9999 31.3327 24.2979 31.3327 24.6665V39.3332C31.3327 39.7019 31.034 39.9999 30.666 39.9999ZM9.99935 38.6665H29.9994V25.3332H9.99935V38.6665Z" fill="#56ABF7"/>
<path d="M25.333 37.3333H14.6663C14.2983 37.3333 13.9997 37.0353 13.9997 36.6666C13.9997 35.564 13.1023 34.6666 11.9997 34.6666C11.6317 34.6666 11.333 34.3686 11.333 34V30C11.333 29.6313 11.6317 29.3333 11.9997 29.3333C13.1023 29.3333 13.9997 28.436 13.9997 27.3333C13.9997 26.9646 14.2983 26.6666 14.6663 26.6666H25.333C25.701 26.6666 25.9997 26.9646 25.9997 27.3333C25.9997 28.436 26.897 29.3333 27.9997 29.3333C28.3677 29.3333 28.6663 29.6313 28.6663 30V34C28.6663 34.3686 28.3677 34.6666 27.9997 34.6666C26.897 34.6666 25.9997 35.564 25.9997 36.6666C25.9997 37.0353 25.701 37.3333 25.333 37.3333ZM15.2657 36H24.733C24.9983 34.696 26.0283 33.666 27.3323 33.4006V30.6C26.0283 30.3346 24.9983 29.3046 24.733 28.0006H15.2657C15.0003 29.3046 13.9703 30.3346 12.6663 30.6V33.4006C13.9703 33.666 15.0003 34.696 15.2657 36Z" fill="#56ABF7"/>
<path d="M27.9994 18.6666H13.3327C12.9647 18.6666 12.666 18.3686 12.666 18V6.66662C12.666 6.46662 12.756 6.27729 12.9107 6.15062L20.244 0.150622C20.4894 -0.0500446 20.8427 -0.0500446 21.0887 0.150622L28.422 6.15062C28.576 6.27729 28.666 6.46662 28.666 6.66662V18C28.666 18.3686 28.3674 18.6666 27.9994 18.6666ZM13.9993 17.3333H27.3327V6.98262L20.666 1.52796L13.9993 6.98262V17.3333Z" fill="#56ABF7"/>
<path d="M22.6662 18.6666H18.6662C18.2982 18.6666 17.9995 18.3686 17.9995 18V11.3333C17.9995 10.9646 18.2982 10.6666 18.6662 10.6666H22.6662C23.0342 10.6666 23.3329 10.9646 23.3329 11.3333V18C23.3329 18.3686 23.0342 18.6666 22.6662 18.6666ZM19.3328 17.3333H21.9995V12H19.3328V17.3333Z" fill="#56ABF7"/>
<path d="M9.9988 9.99994C9.8048 9.99994 9.6128 9.91594 9.48146 9.75394C9.2488 9.46794 9.2928 9.04794 9.5788 8.81594L20.2455 0.149276C20.5301 -0.0827236 20.9515 -0.0393903 21.1828 0.24661C21.4155 0.53261 21.3715 0.95261 21.0855 1.18461L10.4188 9.85128C10.2955 9.95128 10.1468 9.99994 9.9988 9.99994Z" fill="#56ABF7"/>
<path d="M31.3322 9.99996C31.1842 9.99996 31.0355 9.9513 30.9122 9.85063L20.2455 1.18396C19.9595 0.951296 19.9162 0.531296 20.1482 0.245962C20.3802 -0.039371 20.8008 -0.0820376 21.0855 0.148629L31.7522 8.8153C32.0382 9.04796 32.0815 9.46796 31.8495 9.7533C31.7188 9.91596 31.5262 9.99996 31.3322 9.99996Z" fill="#56ABF7"/>
<path d="M35.9992 30.6666C35.8305 30.6666 35.6612 30.6026 35.5319 30.4753C35.2692 30.2166 35.2659 29.7946 35.5239 29.5326C37.5899 27.4333 38.7339 24.634 38.6625 21.8533C38.5985 19.3573 37.5659 17.0679 35.7545 15.4066L34.1872 13.7979C33.9305 13.5339 33.9365 13.1126 34.2005 12.8553C34.4645 12.5986 34.8859 12.6046 35.1432 12.8686L36.6832 14.4506C38.7365 16.3319 39.9225 18.9586 39.9959 21.8193C40.0765 24.96 38.7925 28.112 36.4745 30.468C36.3439 30.6 36.1719 30.6666 35.9992 30.6666Z" fill="#56ABF7"/>
<path d="M38.6664 14.6666C38.6304 14.6666 38.5931 14.6639 38.5557 14.6573L34.5557 13.9906C34.1931 13.9299 33.9471 13.5866 34.0077 13.224C34.0684 12.8613 34.4104 12.6133 34.7751 12.676L38.7751 13.3426C39.1377 13.4033 39.3837 13.7466 39.3231 14.1093C39.2691 14.4353 38.9864 14.6666 38.6664 14.6666Z" fill="#56ABF7"/>
<path d="M35.3321 18.6666C35.0061 18.6666 34.7208 18.4273 34.6734 18.0946L34.0068 13.428C33.9548 13.0633 34.2081 12.7253 34.5721 12.6733C34.9381 12.624 35.2741 12.8746 35.3261 13.2393L35.9928 17.906C36.0448 18.2706 35.7914 18.6086 35.4274 18.6606C35.3948 18.6646 35.3634 18.6666 35.3321 18.6666Z" fill="#56ABF7"/>
<path d="M5.33279 30.6666C5.15945 30.6666 4.98545 30.5986 4.85479 30.4646L3.31479 28.8826C1.26145 27.0013 0.0754533 24.3746 0.00211995 21.5139C-0.0785467 18.3733 1.20545 15.2213 3.52345 12.8653C3.78212 12.6026 4.20412 12.6006 4.46612 12.8573C4.72879 13.1159 4.73212 13.5379 4.47412 13.7999C2.40812 15.8993 1.26412 18.6986 1.33545 21.4793C1.39945 23.9753 2.43212 26.2646 4.24345 27.926L5.81079 29.5346C6.06745 29.7986 6.06145 30.22 5.79745 30.4773C5.66812 30.604 5.50079 30.6666 5.33279 30.6666Z" fill="#56ABF7"/>
<path d="M5.33339 30.6666C5.29739 30.6666 5.26006 30.664 5.22272 30.6573L1.22272 29.9906C0.860055 29.93 0.614055 29.5866 0.674721 29.224C0.735388 28.8613 1.07672 28.6133 1.44205 28.676L5.44206 29.3426C5.80472 29.4033 6.05072 29.7466 5.99006 30.1093C5.93606 30.4353 5.65339 30.6666 5.33339 30.6666Z" fill="#56ABF7"/>
<path d="M5.3321 30.6666C5.0061 30.6666 4.72077 30.4273 4.67343 30.0946L4.00677 25.428C3.95477 25.0633 4.2081 24.7253 4.5721 24.6733C4.93877 24.6246 5.2741 24.8746 5.3261 25.2393L5.99277 29.906C6.04477 30.2706 5.79143 30.6086 5.42743 30.6606C5.39543 30.6646 5.36343 30.6666 5.3321 30.6666Z" fill="#56ABF7"/>
<path d="M29.9993 18.6666H11.3327C10.9647 18.6666 10.666 18.3686 10.666 17.9999C10.666 17.6313 10.9647 17.3333 11.3327 17.3333H29.9993C30.3673 17.3333 30.666 17.6313 30.666 17.9999C30.666 18.3686 30.3673 18.6666 29.9993 18.6666Z" fill="#56ABF7"/>
<path d="M21.9993 8.66663H19.3327C18.9647 8.66663 18.666 8.36863 18.666 7.99996V5.33329C18.666 4.96463 18.9647 4.66663 19.3327 4.66663H21.9993C22.3673 4.66663 22.666 4.96463 22.666 5.33329V7.99996C22.666 8.36863 22.3673 8.66663 21.9993 8.66663ZM19.9993 7.33329H21.3327V5.99996H19.9993V7.33329Z" fill="#56ABF7"/>
</g>
<defs>
<clipPath id="clip0">
<rect width="40" height="40" fill="white"/>
</clipPath>
</defs>
</svg>
