<svg width="40" height="40" viewBox="0 0 40 40" fill="none" xmlns="http://www.w3.org/2000/svg">
<path d="M37.1887 5.33331H2.81133C1.26133 5.33331 0 6.59465 0 8.14465V8.66665V15.3333V31.8553C0 33.4053 1.26133 34.6666 2.81133 34.6666H37.1887C38.7387 34.6666 40 33.4053 40 31.8553V15.3333V8.66665V8.14465C40 6.59465 38.7387 5.33331 37.1887 5.33331ZM2 10.6666C2.368 10.6666 2.66667 10.368 2.66667 9.99998H5.33333C5.33333 10.368 5.632 10.6666 6 10.6666C6.368 10.6666 6.66667 10.368 6.66667 9.99998H9.33333C9.33333 10.368 9.632 10.6666 10 10.6666C10.368 10.6666 10.6667 10.368 10.6667 9.99998H13.3333C13.3333 10.368 13.632 10.6666 14 10.6666C14.368 10.6666 14.6667 10.368 14.6667 9.99998H17.3333C17.3333 10.368 17.632 10.6666 18 10.6666C18.368 10.6666 18.6667 10.368 18.6667 9.99998H21.3333C21.3333 10.368 21.632 10.6666 22 10.6666C22.368 10.6666 22.6667 10.368 22.6667 9.99998H25.3333C25.3333 10.368 25.632 10.6666 26 10.6666C26.368 10.6666 26.6667 10.368 26.6667 9.99998H29.3333C29.3333 10.368 29.632 10.6666 30 10.6666C30.368 10.6666 30.6667 10.368 30.6667 9.99998H33.3333C33.3333 10.368 33.632 10.6666 34 10.6666C34.368 10.6666 34.6667 10.368 34.6667 9.99998H37.3333C37.3333 10.368 37.632 10.6666 38 10.6666C38.368 10.6666 38.6667 10.368 38.6667 9.99998V14C38.6667 13.632 38.368 13.3333 38 13.3333C37.632 13.3333 37.3333 13.632 37.3333 14H34.6667C34.6667 13.632 34.368 13.3333 34 13.3333C33.632 13.3333 33.3333 13.632 33.3333 14H30.6667C30.6667 13.632 30.368 13.3333 30 13.3333C29.632 13.3333 29.3333 13.632 29.3333 14H26.6667C26.6667 13.632 26.368 13.3333 26 13.3333C25.632 13.3333 25.3333 13.632 25.3333 14H22.6667C22.6667 13.632 22.368 13.3333 22 13.3333C21.632 13.3333 21.3333 13.632 21.3333 14H18.6667C18.6667 13.632 18.368 13.3333 18 13.3333C17.632 13.3333 17.3333 13.632 17.3333 14H14.6667C14.6667 13.632 14.368 13.3333 14 13.3333C13.632 13.3333 13.3333 13.632 13.3333 14H10.6667C10.6667 13.632 10.368 13.3333 10 13.3333C9.632 13.3333 9.33333 13.632 9.33333 14H6.66667C6.66667 13.632 6.368 13.3333 6 13.3333C5.632 13.3333 5.33333 13.632 5.33333 14H2.66667C2.66667 13.632 2.368 13.3333 2 13.3333C1.632 13.3333 1.33333 13.632 1.33333 14V9.99998C1.33333 10.368 1.632 10.6666 2 10.6666ZM38.6667 31.8553C38.6667 32.6706 38.004 33.3333 37.1887 33.3333H2.81133C1.996 33.3333 1.33333 32.6706 1.33333 31.8553V15.3333H38.6667V31.8553ZM1.33333 8.66665V8.14465C1.33333 7.32931 1.996 6.66665 2.81133 6.66665H37.1887C38.004 6.66665 38.6667 7.32931 38.6667 8.14465V8.66665H1.33333Z" fill="#56ABF7"/>
<path d="M33.766 31.3333H36.6667V16.6666H22V31.3333H24.9007H33.766ZM26 30V29.9966C26 29.7066 26.158 29.4406 26.3873 29.3153L28.106 28.4686C28.452 28.2966 28.6667 27.9506 28.6667 27.5653V26.6173L28.264 26.4433C27.6567 26.182 27.26 25.676 27.0513 24.896L26.956 24.5406L26.6053 24.4313C26.528 24.4073 26.4453 24.332 26.4453 24.2226V23.778C26.4453 23.684 26.5087 23.6166 26.568 23.5853L26.8813 23.4186L26.9187 23.0653C26.96 22.6686 27.0467 22.3053 27.1793 21.9846C27.2367 21.844 27.2853 21.7393 27.3253 21.654C27.4287 21.432 27.4913 21.268 27.514 21.084C28.0013 21.2873 28.5533 21.3693 29.1407 21.322C29.204 21.3166 29.2687 21.314 29.3347 21.314C31.2807 21.314 31.6473 22.2033 31.7493 23.0726L31.7907 23.4206L32.1007 23.5846C32.16 23.616 32.224 23.6826 32.224 23.778V24.2226C32.224 24.332 32.1413 24.4073 32.064 24.4313L31.7133 24.5406L31.618 24.896C31.4093 25.676 31.0127 26.1826 30.4053 26.4433L30 26.6173V27.5693C30 27.9493 30.21 28.294 30.5493 28.4673L32.2293 29.3246C32.4893 29.4546 32.6547 29.712 32.666 30.0006H26V30ZM23.3333 18H35.3333V30H33.998C33.986 29.204 33.5413 28.4906 32.8287 28.1326L31.4167 27.412C32.066 26.9966 32.534 26.3713 32.8127 25.5446C33.2693 25.2673 33.556 24.7726 33.556 24.222V23.7773C33.556 23.326 33.3593 22.9053 33.0273 22.614C32.7893 21.3486 31.9307 19.98 29.334 19.98C29.232 19.98 29.1313 19.984 29.034 19.992C28.684 20.0193 28.1767 19.992 27.7427 19.7C27.5393 19.564 27.4373 19.4593 27.3853 19.3926C27.1727 19.124 26.818 19.032 26.5027 19.1613C26.1873 19.2913 26.0027 19.6073 26.0413 19.9453C26.0607 20.1166 26.09 20.3166 26.134 20.536C26.19 20.8166 26.194 20.8966 26.1913 20.918C26.1853 20.9413 26.1473 21.024 26.1167 21.0906C26.07 21.1906 26.0127 21.314 25.9453 21.4786C25.8 21.8306 25.6953 22.2146 25.6313 22.6253C25.3047 22.9166 25.1127 23.3333 25.1127 23.778V24.2226C25.1127 24.7733 25.4 25.268 25.856 25.5453C26.134 26.3686 26.5993 26.9926 27.2447 27.4073L25.7747 28.132C25.0907 28.5053 24.6667 29.2193 24.6667 29.9966V30H23.3333V18Z" fill="#56ABF7"/>
<path d="M4.00016 19.3333H10.0002C10.3688 19.3333 10.6668 19.0353 10.6668 18.6667C10.6668 18.298 10.3688 18 10.0002 18H4.00016C3.6315 18 3.3335 18.298 3.3335 18.6667C3.3335 19.0353 3.6315 19.3333 4.00016 19.3333Z" fill="#56ABF7"/>
<path d="M12.6667 19.3333H18.6667C19.0353 19.3333 19.3333 19.0353 19.3333 18.6667C19.3333 18.298 19.0353 18 18.6667 18H12.6667C12.298 18 12 18.298 12 18.6667C12 19.0353 12.298 19.3333 12.6667 19.3333Z" fill="#56ABF7"/>
<path d="M4.00016 22.6666H4.66683C5.0355 22.6666 5.3335 22.3686 5.3335 22C5.3335 21.6313 5.0355 21.3333 4.66683 21.3333H4.00016C3.6315 21.3333 3.3335 21.6313 3.3335 22C3.3335 22.3686 3.6315 22.6666 4.00016 22.6666Z" fill="#56ABF7"/>
<path d="M8.6665 22.6666C9.03517 22.6666 9.33317 22.3686 9.33317 22C9.33317 21.6313 9.03517 21.3333 8.6665 21.3333H7.33317C6.9645 21.3333 6.6665 21.6313 6.6665 22C6.6665 22.3686 6.9645 22.6666 7.33317 22.6666H8.6665Z" fill="#56ABF7"/>
<path d="M11.3332 22.6666H11.9998C12.3685 22.6666 12.6665 22.3686 12.6665 22C12.6665 21.6313 12.3685 21.3333 11.9998 21.3333H11.3332C10.9645 21.3333 10.6665 21.6313 10.6665 22C10.6665 22.3686 10.9645 22.6666 11.3332 22.6666Z" fill="#56ABF7"/>
<path d="M16 22.6666C16.3687 22.6666 16.6667 22.3686 16.6667 22C16.6667 21.6313 16.3687 21.3333 16 21.3333H14.6667C14.298 21.3333 14 21.6313 14 22C14 22.3686 14.298 22.6666 14.6667 22.6666H16Z" fill="#56ABF7"/>
<path d="M18.1933 21.5266C18.0727 21.6526 18 21.8193 18 21.9999C18 22.1799 18.0727 22.3466 18.1933 22.4733C18.3193 22.5933 18.4933 22.6666 18.6667 22.6666C18.84 22.6666 19.0133 22.5933 19.14 22.4733C19.26 22.3466 19.3333 22.1733 19.3333 21.9999C19.3333 21.8266 19.26 21.6526 19.14 21.5266C18.8933 21.2799 18.44 21.2799 18.1933 21.5266Z" fill="#56ABF7"/>
<path d="M7.76712 24.9333C6.30712 25.6933 5.81512 27.1473 5.63645 28.6546C5.36045 28.4233 5.08445 28.1927 4.80912 27.9613C4.15579 27.414 3.20779 28.352 3.86645 28.904C4.48979 29.426 5.11379 29.9487 5.73712 30.4713C6.17579 30.8393 6.85512 30.6067 6.87512 30C6.92379 28.556 6.99179 26.8386 8.44045 26.0846C9.20179 25.6886 8.52845 24.5373 7.76712 24.9333Z" fill="#56ABF7"/>
<path d="M16.6041 26.9146C15.6321 26.8533 14.2094 28.3513 13.4601 27.0166C13.2867 26.7073 12.8514 26.5913 12.5481 26.7773C11.6041 27.3566 10.3701 28.19 9.37739 27.1106C8.79539 26.478 7.85406 27.4226 8.43472 28.0533C9.68139 29.4086 11.2854 28.996 12.7007 28.2286C13.0194 28.5853 13.4147 28.846 13.9254 28.9493C14.4541 29.056 16.6087 28.1886 16.7254 28.3486C17.2267 29.0346 18.3841 28.37 17.8767 27.6753C17.5321 27.2046 17.2141 26.9526 16.6041 26.9146Z" fill="#56ABF7"/>
<path d="M28.0002 12.6666C28.3684 12.6666 28.6668 12.3682 28.6668 12C28.6668 11.6318 28.3684 11.3333 28.0002 11.3333C27.632 11.3333 27.3335 11.6318 27.3335 12C27.3335 12.3682 27.632 12.6666 28.0002 12.6666Z" fill="#56ABF7"/>
<path d="M32.0002 12.6666C32.3684 12.6666 32.6668 12.3682 32.6668 12C32.6668 11.6318 32.3684 11.3333 32.0002 11.3333C31.632 11.3333 31.3335 11.6318 31.3335 12C31.3335 12.3682 31.632 12.6666 32.0002 12.6666Z" fill="#56ABF7"/>
<path d="M16.0002 12.6666C16.3684 12.6666 16.6668 12.3682 16.6668 12C16.6668 11.6318 16.3684 11.3333 16.0002 11.3333C15.632 11.3333 15.3335 11.6318 15.3335 12C15.3335 12.3682 15.632 12.6666 16.0002 12.6666Z" fill="#56ABF7"/>
<path d="M20.0002 12.6666C20.3684 12.6666 20.6668 12.3682 20.6668 12C20.6668 11.6318 20.3684 11.3333 20.0002 11.3333C19.632 11.3333 19.3335 11.6318 19.3335 12C19.3335 12.3682 19.632 12.6666 20.0002 12.6666Z" fill="#56ABF7"/>
<path d="M24.0002 12.6666C24.3684 12.6666 24.6668 12.3682 24.6668 12C24.6668 11.6318 24.3684 11.3333 24.0002 11.3333C23.632 11.3333 23.3335 11.6318 23.3335 12C23.3335 12.3682 23.632 12.6666 24.0002 12.6666Z" fill="#56ABF7"/>
<path d="M36.0002 12.6666C36.3684 12.6666 36.6668 12.3682 36.6668 12C36.6668 11.6318 36.3684 11.3333 36.0002 11.3333C35.632 11.3333 35.3335 11.6318 35.3335 12C35.3335 12.3682 35.632 12.6666 36.0002 12.6666Z" fill="#56ABF7"/>
<path d="M12.0002 12.6666C12.3684 12.6666 12.6668 12.3682 12.6668 12C12.6668 11.6318 12.3684 11.3333 12.0002 11.3333C11.632 11.3333 11.3335 11.6318 11.3335 12C11.3335 12.3682 11.632 12.6666 12.0002 12.6666Z" fill="#56ABF7"/>
<path d="M4.00016 12.6666C4.36835 12.6666 4.66683 12.3682 4.66683 12C4.66683 11.6318 4.36835 11.3333 4.00016 11.3333C3.63197 11.3333 3.3335 11.6318 3.3335 12C3.3335 12.3682 3.63197 12.6666 4.00016 12.6666Z" fill="#56ABF7"/>
<path d="M8.00016 12.6666C8.36835 12.6666 8.66683 12.3682 8.66683 12C8.66683 11.6318 8.36835 11.3333 8.00016 11.3333C7.63197 11.3333 7.3335 11.6318 7.3335 12C7.3335 12.3682 7.63197 12.6666 8.00016 12.6666Z" fill="#56ABF7"/>
</svg>
