<svg width="40" height="40" viewBox="0 0 40 40" fill="none" xmlns="http://www.w3.org/2000/svg">
<path d="M39.4141 4.21922C39.7377 4.21922 40 3.95688 40 3.63328V0.585938C40 0.262344 39.7377 0 39.4141 0H0.585938C0.262344 0 0 0.262344 0 0.585938V3.63328C0 3.95688 0.262344 4.21922 0.585938 4.21922H1.92234V35.7808H0.585938C0.262344 35.7808 0 36.0431 0 36.3667V39.4141C0 39.7377 0.262344 40 0.585938 40H39.4141C39.7377 40 40 39.7377 40 39.4141V36.3667C40 36.0431 39.7377 35.7808 39.4141 35.7808H38.0777V4.21922H39.4141ZM1.17188 1.17188H38.8281V3.04734H33.4375C33.1139 3.04734 32.8516 3.30969 32.8516 3.63328C32.8516 3.95688 33.1139 4.21922 33.4375 4.21922H34.0548V35.7808H33.2966V27.4734C33.2966 25.3081 31.6809 23.5165 29.5949 23.233V4.21922H30.7031C31.0267 4.21922 31.2891 3.95688 31.2891 3.63328C31.2891 3.30969 31.0267 3.04734 30.7031 3.04734H1.17188V1.17188ZM14.4284 35.7808V32.7567H20.692C21.0155 32.7567 21.2779 32.4944 21.2779 32.1708C21.2779 31.8472 21.0155 31.5848 20.692 31.5848H14.4284V28.5608C28.0834 28.5616 16.9945 28.5612 25.5722 28.5608V31.5848H23.4263C23.1027 31.5848 22.8404 31.8472 22.8404 32.1708C22.8404 32.4944 23.1027 32.7567 23.4263 32.7567H25.5722V35.7808H14.4284ZM7.87531 35.7808V32.7567H10.4056V35.7808H7.87531ZM7.87531 28.5607H10.4056V31.5848H7.87531V28.5607ZM10.4056 27.3888H7.87719C7.91695 25.9101 8.99383 24.6855 10.4056 24.4187V27.3888ZM11.5775 18.6495C11.5775 18.3259 11.3152 18.0636 10.9916 18.0636C10.668 18.0636 10.4056 18.3259 10.4056 18.6495V23.233C8.31805 23.5163 6.70344 25.3094 6.70344 27.4734V35.7808H5.94516V4.21922H10.4056V15.837C10.4056 16.1606 10.668 16.423 10.9916 16.423C11.3152 16.423 11.5775 16.1606 11.5775 15.837V4.21922H13.2565V35.7808H11.5775V18.6495ZM25.5722 4.21922V7.29617C24.283 5.39945 22.1555 4.34883 20 4.34883C17.8376 4.34883 15.7136 5.40508 14.4284 7.29539V4.21922H25.5722ZM17.4494 26.3325C16.907 25.7891 16.56 25.1032 16.4418 24.3594C17.0068 24.3057 17.4503 23.8289 17.4503 23.2501V22.1509C18.347 22.6145 19.266 22.8889 20.0001 22.8889C20.7341 22.8889 21.6531 22.6145 22.5498 22.1509V23.2501C22.5498 23.8289 22.9934 24.3057 23.5584 24.3594C23.4402 25.1031 23.0933 25.7891 22.5508 26.3325C21.1633 27.7223 18.8754 27.761 17.4494 26.3325ZM25.5722 23.1929H23.7216V21.4212C24.4552 20.8791 25.1007 20.2265 25.5722 19.459V23.1929ZM25.5562 11.5012L25.1377 17.1859C24.9482 19.7581 21.6023 21.7171 20.0001 21.7171C18.3979 21.7171 15.052 19.7582 14.8625 17.1859L14.4439 11.5012C14.2071 8.28656 16.7409 5.5207 20.0002 5.5207C23.2234 5.5207 25.7956 8.25078 25.5562 11.5012ZM16.2784 21.4212V23.1929H14.4284V19.4598C14.8997 20.2268 15.5448 20.8791 16.2784 21.4212ZM14.4284 24.3648H15.2599C15.3962 25.4997 15.9348 26.5763 16.8663 27.3888H14.4284V24.3648V24.3648ZM24.7401 24.3648H25.5722V27.3888H23.1337C24.0647 26.5766 24.6038 25.5002 24.7401 24.3648ZM26.7441 4.21922H28.423V35.7808H26.7441V4.21922ZM32.1226 27.3888H29.5949V24.4196C30.9844 24.682 32.0819 25.8859 32.1226 27.3888ZM29.5949 28.5607H32.1247V31.5848H29.5949V28.5607V28.5607ZM29.5949 32.7567H32.1247V35.7808H29.5949V32.7567V32.7567ZM3.09422 4.21922H4.77328V35.7808H3.09422V4.21922ZM38.8281 38.8281H1.17188V36.9527H38.8281V38.8281ZM36.9058 35.7808H35.2267V4.21922H36.9058V35.7808Z" fill="#56ABF7"/>
</svg>
