<svg width="40" height="40" viewBox="0 0 40 40" fill="none" xmlns="http://www.w3.org/2000/svg">
<path d="M36.0938 4.76562H18.9062C16.7523 4.76562 15 6.51797 15 8.67188V12.5781H3.90625C1.75234 12.5781 0 14.3305 0 16.4844V34.4531C0 34.7563 0.175391 35.032 0.449844 35.1606C0.555625 35.2101 0.66875 35.2344 0.781172 35.2344C0.960547 35.2344 1.13828 35.1726 1.28141 35.0534L5.75164 31.3281H21.0938C23.2477 31.3281 25 29.5758 25 27.4219V23.5156H34.2484L38.7186 27.2409C38.8618 27.3602 39.0395 27.4219 39.2188 27.4219C39.3313 27.4219 39.4444 27.3976 39.5501 27.3481C39.8246 27.2195 40 26.9438 40 26.6406V8.67188C40 6.51797 38.2477 4.76562 36.0938 4.76562ZM23.4375 27.4219C23.4375 28.7142 22.3861 29.7656 21.0938 29.7656H5.46875C5.28602 29.7656 5.10906 29.8297 4.96859 29.9466L1.5625 32.7851V16.4844C1.5625 15.192 2.61391 14.1406 3.90625 14.1406H21.0938C22.3861 14.1406 23.4375 15.192 23.4375 16.4844V27.4219ZM38.4375 24.9726L35.0314 22.1341C34.8909 22.0172 34.714 21.9531 34.5312 21.9531H25V18.0316L25.592 16.4062H29.4574L30.6688 19.8675C30.7815 20.1894 31.0834 20.3909 31.4062 20.3909C31.4918 20.3909 31.5788 20.3766 31.6643 20.3468C32.0715 20.2043 32.2861 19.7586 32.1436 19.3513L28.3155 8.41383C28.2064 8.10227 27.9132 7.89281 27.583 7.8907H27.5781C27.25 7.8907 26.9566 8.09586 26.8441 8.40453L24.5576 14.6811C23.905 13.4325 22.5974 12.5781 21.0938 12.5781H16.5625V8.67188C16.5625 7.37953 17.6139 6.32812 18.9062 6.32812H36.0938C37.3861 6.32812 38.4375 7.37953 38.4375 8.67188V24.9726ZM26.1613 14.8438L27.5634 10.9947L28.9105 14.8438H26.1613Z" fill="#56ABF7"/>
<path d="M8.59375 20.3906H12.1875H12.1883H13.2812C13.7117 20.3906 14.0625 20.0398 14.0625 19.6094C14.0625 19.1789 13.7117 18.8281 13.2812 18.8281H12.5451L10.0836 15.9742C9.93516 15.8016 9.71953 15.7031 9.49219 15.7031C9.30469 15.7031 9.12344 15.7702 8.98203 15.893C8.82422 16.0289 8.72812 16.2187 8.71328 16.4266C8.69766 16.6352 8.76406 16.8367 8.90078 16.9946L10.4822 18.8281H8.59375C8.16328 18.8281 7.8125 19.1789 7.8125 19.6094C7.8125 20.0398 8.16328 20.3906 8.59375 20.3906Z" fill="#56ABF7"/>
<path d="M16.4062 18.8281C15.9758 18.8281 15.625 19.1789 15.625 19.6094C15.625 20.0398 15.9758 20.3906 16.4062 20.3906C16.8367 20.3906 17.1875 20.0398 17.1875 19.6094C17.1875 19.1789 16.8367 18.8281 16.4062 18.8281Z" fill="#56ABF7"/>
<path d="M16.8122 23.293L15.3278 22.1211C15.0497 21.9014 14.6585 21.8966 14.375 22.1093L11.7188 24.1015L9.06252 22.1093C8.71736 21.8504 8.22759 21.9204 7.96877 22.2656C7.70994 22.6107 7.77986 23.1005 8.12502 23.3593L10.4167 25.0781L8.12502 26.7968C7.77986 27.0557 7.70994 27.5454 7.96877 27.8906C8.12228 28.0952 8.35681 28.2032 8.59439 28.2032C8.75744 28.2032 8.92197 28.1522 9.06252 28.0468L11.7188 26.0546L14.375 28.0468C14.5156 28.1523 14.68 28.2032 14.8431 28.2032C15.0806 28.2032 15.3153 28.0952 15.4688 27.8906C15.7276 27.5454 15.6577 27.0557 15.3125 26.7968L13.0209 25.0781L14.8316 23.72L15.8441 24.5193C16.1828 24.7867 16.6741 24.7289 16.9413 24.3903C17.2087 24.0516 17.1509 23.5603 16.8122 23.293Z" fill="#56ABF7"/>
<path d="M5.46875 15.7031H4.6875C3.82594 15.7031 3.125 16.4041 3.125 17.2656V18.0469C3.125 18.4783 3.47477 18.8281 3.90625 18.8281C4.33773 18.8281 4.6875 18.4783 4.6875 18.0469V17.2656H5.46875C5.90023 17.2656 6.25 16.9158 6.25 16.4844C6.25 16.053 5.90023 15.7031 5.46875 15.7031Z" fill="#56ABF7"/>
<path d="M20.3125 7.89062H19.5312C18.6697 7.89062 17.9688 8.59156 17.9688 9.45312V10.2344C17.9688 10.6658 18.3185 11.0156 18.75 11.0156C19.1815 11.0156 19.5312 10.6658 19.5312 10.2344V9.45312H20.3125C20.744 9.45312 21.0938 9.10328 21.0938 8.67188C21.0938 8.24047 20.744 7.89062 20.3125 7.89062Z" fill="#56ABF7"/>
<path d="M35.1562 7.89062H34.375C33.9435 7.89062 33.5938 8.24047 33.5938 8.67188C33.5938 9.10328 33.9435 9.45312 34.375 9.45312H35.1562V10.2344C35.1562 10.6658 35.506 11.0156 35.9375 11.0156C36.369 11.0156 36.7188 10.6658 36.7188 10.2344V9.45312C36.7188 8.59156 36.0178 7.89062 35.1562 7.89062Z" fill="#56ABF7"/>
<path d="M21.0938 25.0781C20.6623 25.0781 20.3125 25.428 20.3125 25.8594V26.6406H19.5312C19.0998 26.6406 18.75 26.9905 18.75 27.4219C18.75 27.8533 19.0998 28.2031 19.5312 28.2031H20.3125C21.1741 28.2031 21.875 27.5022 21.875 26.6406V25.8594C21.875 25.428 21.5252 25.0781 21.0938 25.0781Z" fill="#56ABF7"/>
</svg>
