<svg width="60" height="60" viewBox="0 0 60 60" fill="none" xmlns="http://www.w3.org/2000/svg">
<path d="M36.0029 20.9855C36.0029 21.5376 36.4501 21.9858 37.0033 21.9858H47.0073C47.5605 21.9858 48.0076 21.5376 48.0076 20.9855C48.0076 20.4333 47.5605 19.9851 47.0073 19.9851H37.0033C36.4501 19.985 36.0029 20.4332 36.0029 20.9855Z" fill="#56ABF7"/>
<path d="M42.0059 26.9879C42.0059 27.5401 42.453 27.9883 43.0062 27.9883H49.0086C49.5619 27.9883 50.009 27.5401 50.009 26.9879C50.009 26.4357 49.5619 25.9875 49.0086 25.9875H43.0062C42.453 25.9874 42.0059 26.4356 42.0059 26.9879Z" fill="#56ABF7"/>
<path d="M41.0051 15.9834C41.5583 15.9834 42.0055 15.5352 42.0055 14.983C42.0055 14.4309 41.5583 13.9827 41.0051 13.9827H39.0043C38.451 13.9827 38.0039 14.4309 38.0039 14.983C38.0039 15.5352 38.451 15.9834 39.0043 15.9834H41.0051Z" fill="#56ABF7"/>
<path d="M29.0004 25.9873C28.4471 25.9873 28 26.4355 28 26.9877C28 27.5398 28.4471 27.988 29.0004 27.988H39.0043C39.5576 27.988 40.0047 27.5398 40.0047 26.9877C40.0047 26.4355 39.5576 25.9873 39.0043 25.9873H29.0004Z" fill="#56ABF7"/>
<path d="M34.0024 53.9986H14.9948C13.3402 53.9986 11.9936 52.652 11.9936 50.9974V4.97888C11.9936 4.4267 11.5465 3.97852 10.9933 3.97852C8.2352 3.97852 5.99121 6.22238 5.99121 8.98056C5.99121 9.53273 6.43834 9.98092 6.99157 9.98092C7.5448 9.98092 7.99193 9.53273 7.99193 8.98056C7.99193 7.67597 8.82828 6.56353 9.99277 6.1504V50.9974C9.99277 53.7554 12.2366 55.9994 14.9948 55.9994H34.0024C34.5556 55.9994 35.0027 55.5512 35.0027 54.9991C35.0027 54.4469 34.5556 53.9986 34.0024 53.9986Z" fill="#56ABF7"/>
<path d="M18.9955 21.9858H33.0011C33.5543 21.9858 34.0015 21.5376 34.0015 20.9855C34.0015 20.4333 33.5543 19.9851 33.0011 19.9851H18.9955C18.4422 19.9851 17.9951 20.4333 17.9951 20.9855C17.9951 21.5376 18.4422 21.9858 18.9955 21.9858Z" fill="#56ABF7"/>
<path d="M18.9955 15.9834H22.997C23.5503 15.9834 23.9974 15.5352 23.9974 14.983C23.9974 14.4309 23.5503 13.9827 22.997 13.9827H18.9955C18.4422 13.9827 17.9951 14.4309 17.9951 14.983C17.9951 15.5352 18.4422 15.9834 18.9955 15.9834Z" fill="#56ABF7"/>
<path d="M35.0026 13.9824H26.9994C26.4462 13.9824 25.999 14.4306 25.999 14.9828C25.999 15.535 26.4462 15.9832 26.9994 15.9832H35.0026C35.5559 15.9832 36.003 15.535 36.003 14.9828C36.0031 14.4306 35.5559 13.9824 35.0026 13.9824Z" fill="#56ABF7"/>
<path d="M49.0081 0H10.9929C6.03982 0 2.00825 4.02055 1.98926 8.96855V8.98051V8.99153V9.0036V9.01556C2.00227 12.2059 3.72398 15.178 6.49001 16.7787C6.9682 17.0548 7.57946 16.8917 7.85649 16.4146C8.13457 15.9364 7.9695 15.3242 7.49236 15.048C5.3356 13.7985 3.99408 11.4796 3.9901 8.99165C3.99713 5.13604 7.13538 2.00084 10.9929 2.00084H49.0081C52.8687 2.00084 56.0109 5.14214 56.0109 9.0036V51.0204C56.0109 51.5276 55.8688 52.0368 55.6017 52.491C55.3226 52.9672 55.4806 53.5805 55.9568 53.8605C56.1169 53.9546 56.291 53.9986 56.4631 53.9986C56.8062 53.9986 57.1403 53.8226 57.3264 53.5054C57.7746 52.7441 58.0116 51.8848 58.0116 51.0204V9.0036C58.0117 4.03861 53.9731 0 49.0081 0Z" fill="#56ABF7"/>
<path d="M52.0097 45.9953C52.0097 42.685 49.3176 39.9929 46.0073 39.9929C42.6969 39.9929 40.0049 42.685 40.0049 45.9953C40.0049 49.3057 42.6969 51.9977 46.0073 51.9977C49.3176 51.9977 52.0097 49.3057 52.0097 45.9953ZM46.0073 49.9969C43.8003 49.9969 42.0057 48.2021 42.0057 45.9953C42.0057 43.7885 43.8005 41.9938 46.0073 41.9938C48.2142 41.9938 50.0089 43.7885 50.0089 45.9953C50.0089 48.2021 48.2142 49.9969 46.0073 49.9969Z" fill="#56ABF7"/>
<path d="M44.201 52.9992C43.7239 52.7232 43.1116 52.8872 42.8344 53.3654L40.6806 57.0979L40.3385 56.5817C40.1655 56.3186 39.8784 56.1525 39.5642 56.1346L38.9459 56.0975L41.1358 52.306C41.4119 51.8278 41.2479 51.2156 40.7697 50.9394C40.2915 50.6623 39.6793 50.8264 39.4022 51.3056L36.404 56.4987C36.231 56.7988 36.226 57.168 36.39 57.473C36.554 57.7781 36.8642 57.9773 37.2113 57.9972L38.945 58.1012L39.9023 59.5508C40.0874 59.8319 40.4015 59.9999 40.7367 59.9999H40.7677C41.1129 59.9889 41.43 59.7998 41.6041 59.4997L44.5682 54.3656C44.8443 53.8876 44.6803 53.2753 44.201 52.9992Z" fill="#56ABF7"/>
<path d="M52.6373 51.3524C52.3602 50.8733 51.7469 50.7092 51.2707 50.9863C50.7916 51.2624 50.6274 51.8747 50.9035 52.3528L53.0674 56.0973L52.4492 56.1343C52.1351 56.1533 51.848 56.3194 51.6739 56.5814L51.3338 57.0976L49.191 53.3841C48.9129 52.9059 48.3006 52.7419 47.8234 53.018C47.3452 53.2941 47.1812 53.9064 47.4573 54.3846L50.4104 59.4996C50.5845 59.7997 50.9017 59.9888 51.2468 59.9999H51.2779C51.612 59.9999 51.9271 59.8317 52.1132 59.5507L53.0696 58.1022L54.8023 57.9972C55.1494 57.9771 55.4595 57.778 55.6236 57.473C55.7878 57.168 55.7817 56.7988 55.6097 56.4987L52.6373 51.3524Z" fill="#56ABF7"/>
<path d="M18.9955 27.9883H24.9979C25.5511 27.9883 25.9982 27.5401 25.9982 26.9879C25.9982 26.4357 25.5511 25.9875 24.9979 25.9875H18.9955C18.4422 25.9875 17.9951 26.4357 17.9951 26.9879C17.9951 27.5401 18.4422 27.9883 18.9955 27.9883Z" fill="#56ABF7"/>
<path d="M18.9955 33.9905H31.0003C31.5535 33.9905 32.0006 33.5423 32.0006 32.9901C32.0006 32.4379 31.5535 31.9897 31.0003 31.9897H18.9955C18.4422 31.9897 17.9951 32.4379 17.9951 32.9901C17.9951 33.5423 18.4422 33.9905 18.9955 33.9905Z" fill="#56ABF7"/>
<path d="M19.1025 46.4424C19.3486 46.9366 19.9499 47.1367 20.4441 46.8906C20.9382 46.6435 21.1394 46.0423 20.8912 45.5481C19.9008 43.5673 19.6787 41.7906 20.2949 40.7932C20.6231 40.262 21.1953 39.9928 21.9976 39.9928C22.4748 39.9928 22.6529 40.1568 22.7649 40.3169C23.5102 41.3914 22.802 44.6636 22.0607 46.6444C21.8956 47.0856 22.0607 47.5818 22.4568 47.8369C22.851 48.0901 23.3722 48.0351 23.7054 47.703C24.1326 47.2768 24.5958 46.8516 24.999 46.5065V46.9957C24.999 47.3998 25.2421 47.765 25.6162 47.919C25.9903 48.0751 26.4195 47.989 26.7066 47.703C27.1638 47.2468 27.6939 46.7995 28.1401 46.4775C28.1282 46.5025 28.1161 46.5265 28.1041 46.5495C27.951 46.8596 27.968 47.2278 28.1502 47.5218C28.3333 47.816 28.6544 47.996 29.0005 47.996H33.0021C33.5553 47.996 34.0024 47.5478 34.0024 46.9957C34.0024 46.4435 33.5553 45.9953 33.0021 45.9953H30.3981C30.4791 45.5191 30.4592 45.0349 30.218 44.6448C29.9629 44.2316 29.5187 43.9945 29.0005 43.9945C28.3822 43.9945 27.655 44.3706 26.9908 44.8368C26.9398 44.4006 26.6816 44.0415 26.2895 43.8795C26.0224 43.7694 25.6782 43.6254 24.8429 44.1266C25.172 42.4029 25.2681 40.4161 24.4097 39.1777C24.0346 38.6364 23.3123 37.9922 21.9978 37.9922C20.4992 37.9922 19.2896 38.6134 18.5925 39.7419C17.595 41.3565 17.78 43.7985 19.1025 46.4424Z" fill="#56ABF7"/>
<path d="M46.0066 32.9901C46.0066 32.4379 45.5595 31.9897 45.0063 31.9897H35.0023C34.4491 31.9897 34.002 32.4379 34.002 32.9901C34.002 33.5423 34.4491 33.9905 35.0023 33.9905H45.0063C45.5595 33.9905 46.0066 33.5423 46.0066 32.9901Z" fill="#56ABF7"/>
</svg>
