<svg width="60" height="60" viewBox="0 0 60 60" fill="none" xmlns="http://www.w3.org/2000/svg">
<path d="M30 49C27.794 49 26 50.794 26 53C26 55.206 27.794 57 30 57C32.206 57 34 55.206 34 53C34 50.794 32.206 49 30 49ZM30 55C28.897 55 28 54.103 28 53C28 51.897 28.897 51 30 51C31.103 51 32 51.897 32 53C32 54.103 31.103 55 30 55Z" fill="#56ABF7"/>
<path d="M26 5H30C30.553 5 31 4.553 31 4C31 3.447 30.553 3 30 3H26C25.447 3 25 3.447 25 4C25 4.553 25.447 5 26 5Z" fill="#56ABF7"/>
<path d="M33 5H34C34.553 5 35 4.553 35 4C35 3.447 34.553 3 34 3H33C32.447 3 32 3.447 32 4C32 4.553 32.447 5 33 5Z" fill="#56ABF7"/>
<path d="M56.6115 4.56888C56.2205 4.17788 55.5885 4.17788 55.1975 4.56888C54.8065 4.95988 54.8065 5.59188 55.1975 5.98288C58.9335 9.71888 58.9335 15.7979 55.1975 19.5349C54.8065 19.9259 54.8065 20.5579 55.1975 20.9489C55.3925 21.1439 55.6485 21.2419 55.9045 21.2419C56.1605 21.2419 56.4165 21.1439 56.6115 20.9489C61.1275 16.4339 61.1275 9.08488 56.6115 4.56888Z" fill="#56ABF7"/>
<path d="M52.4006 6.84501C52.0096 6.45401 51.3776 6.45401 50.9866 6.84501C50.5956 7.23601 50.5956 7.86801 50.9866 8.25901C52.2236 9.49601 52.9046 11.144 52.9046 12.898C52.9046 14.652 52.2236 16.299 50.9866 17.536C50.5956 17.927 50.5956 18.559 50.9866 18.95C51.1816 19.145 51.4376 19.243 51.6936 19.243C51.9496 19.243 52.2056 19.145 52.4006 18.95C54.0156 17.336 54.9046 15.186 54.9046 12.898C54.9046 10.61 54.0166 8.45901 52.4006 6.84501Z" fill="#56ABF7"/>
<path d="M4.80198 5.98288C5.19298 5.59188 5.19298 4.95988 4.80198 4.56888C4.41098 4.17788 3.77898 4.17788 3.38798 4.56888C-1.12802 9.08488 -1.12802 16.4329 3.38798 20.9489C3.58298 21.1439 3.83898 21.2419 4.09498 21.2419C4.35098 21.2419 4.60698 21.1439 4.80198 20.9489C5.19298 20.5579 5.19298 19.9259 4.80198 19.5349C1.06498 15.7989 1.06498 9.71988 4.80198 5.98288Z" fill="#56ABF7"/>
<path d="M9.01273 6.56888C8.62173 6.17788 7.98973 6.17788 7.59873 6.56888C5.98373 8.18288 5.09473 10.3329 5.09473 12.6209C5.09473 14.9089 5.98373 17.0589 7.59873 18.6739C7.79373 18.8689 8.04973 18.9669 8.30573 18.9669C8.56173 18.9669 8.81773 18.8689 9.01273 18.6739C9.40373 18.2829 9.40373 17.6509 9.01273 17.2599C7.77573 16.0229 7.09473 14.3749 7.09473 12.6209C7.09473 10.8669 7.77473 9.21988 9.01273 7.98288C9.40273 7.59288 9.40273 6.95988 9.01273 6.56888Z" fill="#56ABF7"/>
<path fill-rule="evenodd" clip-rule="evenodd" d="M17.405 0H42.595C45.023 0 47 1.977 47 4.405V55.595C47 58.023 45.023 60 42.594 60H17.405C14.977 60 13 58.023 13 55.594V41H15V46H45V8H15V36H13V4.405C13 1.977 14.977 0 17.405 0ZM42.594 2H17.405C16.079 2 15 3.079 15 4.405V6H45V4.405C45 3.079 43.921 2 42.594 2ZM17.405 58H42.595C43.921 58 45 56.921 45 55.595V48H15V55.595C15 56.921 16.079 58 17.405 58Z" fill="#56ABF7"/>
</svg>
