<svg width="40" height="40" viewBox="0 0 40 40" fill="none" xmlns="http://www.w3.org/2000/svg">
<path d="M38.9686 12.588C37.5979 11.2173 35.3675 11.2173 33.9963 12.5884C33.5746 13.0105 30.882 15.7052 30.4707 16.117V6.83016C30.4707 5.89109 30.105 5.00828 29.4409 4.3443L26.1265 1.02969C25.4625 0.365625 24.5796 0 23.6405 0H3.51758C1.57906 0 0.00195312 1.57711 0.00195312 3.51562V36.4844C0.00195312 38.4229 1.57906 40 3.51758 40H26.9551C28.8936 40 30.4707 38.4229 30.4707 36.4844V26.0649L38.9685 17.5599C40.3425 16.186 40.3428 13.9621 38.9686 12.588ZM23.4395 2.34375C23.6609 2.34375 24.0876 2.30539 24.4692 2.68695L27.7837 6.00156C28.1556 6.37352 28.127 6.78109 28.127 7.03125H23.4395V2.34375ZM28.127 36.4844C28.127 37.1305 27.6013 37.6562 26.9551 37.6562H3.51758C2.87141 37.6562 2.3457 37.1305 2.3457 36.4844V3.51562C2.3457 2.86945 2.87141 2.34375 3.51758 2.34375H21.0957V8.20312C21.0957 8.85031 21.6204 9.375 22.2676 9.375H28.127V18.4627C28.127 18.4627 24.6696 21.923 24.6695 21.9231L23.013 23.5797C22.8844 23.7083 22.7873 23.8652 22.7298 24.0377L21.0725 29.0096C20.9321 29.4307 21.0417 29.895 21.3556 30.2088C21.6699 30.5231 22.1344 30.6322 22.5548 30.492L27.5267 28.8347C27.6993 28.7772 27.8562 28.6802 27.9848 28.5516L28.127 28.4094V36.4844ZM25.4988 24.4084L27.1561 26.0656L26.523 26.6987L24.0372 27.5273L24.8658 25.0413L25.4988 24.4084ZM28.813 24.408L27.1558 22.7507C28.0383 21.8675 31.9577 17.9447 32.789 17.1127L34.4462 18.77L28.813 24.408ZM37.3109 15.903L36.1029 17.112L34.4456 15.4548L35.6541 14.2453C36.1112 13.7884 36.8545 13.7884 37.3114 14.2453C37.7682 14.7023 37.7706 15.4432 37.3109 15.903Z" fill="#FCFCFC"/>
<path d="M22.2676 11.7188H5.86133C5.21414 11.7188 4.68945 12.2434 4.68945 12.8906C4.68945 13.5378 5.21414 14.0625 5.86133 14.0625H22.2676C22.9148 14.0625 23.4395 13.5378 23.4395 12.8906C23.4395 12.2434 22.9148 11.7188 22.2676 11.7188Z" fill="#FCFCFC"/>
<path d="M17.5801 16.4062H5.86133C5.21414 16.4062 4.68945 16.9309 4.68945 17.5781C4.68945 18.2253 5.21414 18.75 5.86133 18.75H17.5801C18.2273 18.75 18.752 18.2253 18.752 17.5781C18.752 16.9309 18.2273 16.4062 17.5801 16.4062Z" fill="#FCFCFC"/>
<path d="M17.5801 21.0938H5.86133C5.21414 21.0938 4.68945 21.6184 4.68945 22.2656C4.68945 22.9128 5.21414 23.4375 5.86133 23.4375H17.5801C18.2273 23.4375 18.752 22.9128 18.752 22.2656C18.752 21.6184 18.2273 21.0938 17.5801 21.0938Z" fill="#FCFCFC"/>
<path d="M17.5801 25.7812H5.86133C5.21414 25.7812 4.68945 26.3059 4.68945 26.9531C4.68945 27.6003 5.21414 28.125 5.86133 28.125H17.5801C18.2273 28.125 18.752 27.6003 18.752 26.9531C18.752 26.3059 18.2273 25.7812 17.5801 25.7812Z" fill="#FCFCFC"/>
<path d="M22.2676 32.9688H15.2363C14.5891 32.9688 14.0645 33.4934 14.0645 34.1406C14.0645 34.7878 14.5891 35.3125 15.2363 35.3125H22.2676C22.9148 35.3125 23.4395 34.7878 23.4395 34.1406C23.4395 33.4934 22.9148 32.9688 22.2676 32.9688Z" fill="#FCFCFC"/>
</svg>
