<svg width="40" height="40" viewBox="0 0 40 40" fill="none" xmlns="http://www.w3.org/2000/svg">
<path d="M38.9382 13.7274L26.2721 1.06146C25.5884 0.377783 24.6766 0.0012207 23.7045 0.0012207C22.7326 0.0012207 21.8207 0.377627 21.137 1.0613L1.06023 21.1381C0.376563 21.8218 0 22.7336 0 23.7056C0 24.6776 0.376563 25.5895 1.06023 26.2731L2.62211 27.835C2.62227 27.8351 2.62234 27.8352 2.6225 27.8354C2.62266 27.8355 2.62281 27.8357 2.62297 27.8358L13.1198 38.3327H11.6664C11.2063 38.3327 10.8331 38.7058 10.8331 39.166C10.8331 39.6261 11.2063 39.9993 11.6664 39.9993H16.2905C16.2916 39.9993 16.2927 39.9994 16.2938 39.9994C16.2948 39.9994 16.2959 39.9993 16.297 39.9993L28.3323 39.9994C28.7925 39.9994 29.1656 39.6263 29.1656 39.1661C29.1656 38.7059 28.7925 38.3329 28.3323 38.3329L19.468 38.3327L38.9383 18.8624C40.3539 17.4466 40.3539 15.143 38.9382 13.7274ZM37.7598 17.684L17.6829 37.7608C17.3147 38.129 16.8225 38.3319 16.2968 38.3327H16.2905C15.7649 38.3318 15.2729 38.129 14.9048 37.7608L4.39023 27.2461L23.6711 7.96513C23.9965 7.63974 23.9965 7.11208 23.6711 6.78669C23.3456 6.4613 22.8181 6.4613 22.4926 6.78677L3.21172 26.0678L2.23859 25.0947C1.86977 24.7258 1.66664 24.2326 1.66664 23.7057C1.66664 23.1788 1.86977 22.6854 2.23867 22.3165L22.3154 2.23981C22.6843 1.87099 23.1777 1.66786 23.7045 1.66786C24.2314 1.66786 24.7248 1.87099 25.0937 2.23989L29.6017 6.74786L10.3206 26.0291C9.99524 26.3544 9.99524 26.8821 10.3206 27.2076C10.4834 27.3703 10.6966 27.4516 10.9098 27.4516C11.123 27.4516 11.3363 27.3702 11.4991 27.2076L30.7802 7.92638L37.7598 14.9058C38.5256 15.6717 38.5256 16.918 37.7598 17.684Z" fill="#FCFCFC"/>
<path d="M20.5312 24.0675C20.2058 23.7421 19.6783 23.7422 19.3527 24.0675L12.7953 30.6248C12.4699 30.9502 12.4699 31.4777 12.7953 31.8033C12.958 31.966 13.1713 32.0473 13.3845 32.0473C13.5977 32.0473 13.811 31.9659 13.9738 31.8033L20.5311 25.246C20.8566 24.9205 20.8566 24.3929 20.5312 24.0675Z" fill="#FCFCFC"/>
<path d="M17.8412 30.2923L15.1518 32.9818C14.8264 33.3072 14.8264 33.8348 15.1518 34.1603C15.3145 34.3229 15.5278 34.4043 15.741 34.4043C15.9543 34.4043 16.1675 34.3229 16.3302 34.1603L19.0197 31.4708C19.345 31.1454 19.345 30.6178 19.0197 30.2923C18.6943 29.9669 18.1668 29.9669 17.8412 30.2923Z" fill="#FCFCFC"/>
<path d="M20.3164 27.8176L19.9629 28.171C19.6374 28.4964 19.6374 29.024 19.9628 29.3496C20.1254 29.5123 20.3388 29.5937 20.552 29.5937C20.7652 29.5937 20.9785 29.5123 21.1411 29.3496L21.4947 28.9961C21.8201 28.6707 21.8201 28.1432 21.4947 27.8177C21.1695 27.4923 20.6418 27.4922 20.3164 27.8176Z" fill="#FCFCFC"/>
<path d="M31.8018 12.7963C31.6455 12.6401 31.4336 12.5522 31.2126 12.5522C30.9916 12.5522 30.7797 12.6401 30.6234 12.7963L27.0878 16.3318C26.9316 16.4881 26.8438 16.7 26.8438 16.921C26.8438 17.142 26.9316 17.354 27.0878 17.5102L29.4448 19.867C29.6076 20.0297 29.8209 20.1111 30.0341 20.1111C30.2474 20.1111 30.4605 20.0297 30.6233 19.867L34.1587 16.3317C34.4841 16.0063 34.4841 15.4787 34.1587 15.1533L31.8018 12.7963ZM30.034 18.0994L28.8555 16.921L31.2125 14.564L32.3909 15.7426L30.034 18.0994Z" fill="#FCFCFC"/>
<path d="M25.0262 6.26458C25.2395 6.26458 25.4528 6.18317 25.6155 6.02036L25.969 5.66669C26.2943 5.34122 26.2942 4.81356 25.9687 4.48825C25.6434 4.16294 25.1156 4.16302 24.7903 4.48848L24.4368 4.84216C24.1115 5.16763 24.1116 5.69528 24.437 6.02059C24.5998 6.18333 24.8129 6.26458 25.0262 6.26458Z" fill="#FCFCFC"/>
<path d="M8.37588 27.9732L8.02236 28.3267C7.69697 28.652 7.69697 29.1796 8.02236 29.5052C8.1851 29.6678 8.39838 29.7492 8.61158 29.7492C8.82479 29.7492 9.03807 29.6678 9.2008 29.5052L9.55432 29.1517C9.87971 28.8262 9.87971 28.2986 9.55432 27.9732C9.22885 27.6477 8.70135 27.6477 8.37588 27.9732Z" fill="#FCFCFC"/>
</svg>
