<svg width="40" height="40" viewBox="0 0 40 40" fill="none" xmlns="http://www.w3.org/2000/svg">
<g clip-path="url(#clip0)">
<path d="M39.6312 18.1372L20.8075 1.30453C20.7746 1.27162 20.7417 1.24694 20.7006 1.22226C20.2892 0.827359 19.6311 0.810905 19.195 1.19758L0.371333 18.0303C-0.0893862 18.4417 -0.122295 19.141 0.280835 19.6017C0.502968 19.8485 0.807372 19.9719 1.11178 19.9719C1.37504 19.9719 1.63831 19.8814 1.85222 19.6922L5.2418 16.6564V17.2487V26.0353V36.2863C5.2418 37.8248 6.49232 39.0835 8.03903 39.0835C8.06371 39.0835 8.08016 39.0835 8.10484 39.0835C8.12952 39.0835 8.14598 39.0835 8.17066 39.0835H13.979C15.427 39.0835 16.6035 37.9071 16.6035 36.4591V26.4796C16.6035 26.2574 16.7845 26.0764 17.0066 26.0764H23.0042C23.2263 26.0764 23.4073 26.2574 23.4073 26.4796V36.4591C23.4073 37.9071 24.5838 39.0835 26.0318 39.0835H31.9718C33.5349 39.0835 34.769 37.5451 34.769 35.5788V26.4302V23.633V16.7633L38.1586 19.7991C38.3725 19.9884 38.6358 20.0789 38.899 20.0789C39.2034 20.0789 39.5078 19.9554 39.73 19.7086C40.1249 19.2479 40.0837 18.5486 39.6312 18.1372ZM32.5394 23.6247V26.422V35.5623C32.5394 36.3604 32.1445 36.8458 31.9635 36.8458H26.0235C25.8014 36.8458 25.6204 36.6648 25.6204 36.4426V26.4796C25.6204 25.0316 24.4439 23.8551 22.996 23.8551H16.9984C15.5504 23.8551 14.3739 25.0316 14.3739 26.4796V36.4591C14.3739 36.6812 14.1929 36.8622 13.9708 36.8622H8.16243C8.13775 36.8622 8.1213 36.8622 8.09662 36.8622C8.07193 36.8622 8.05548 36.8622 8.0308 36.8622C7.71817 36.8622 7.4549 36.6072 7.4549 36.2863V26.0271V17.2405V14.6654L19.9437 3.5094L32.5394 14.7724V23.6247Z" fill="#FCFCFC"/>
</g>
<defs>
<clipPath id="clip0">
<rect width="40" height="40" fill="white"/>
</clipPath>
</defs>
</svg>
