<svg width="40" height="40" viewBox="0 0 40 40" fill="none" xmlns="http://www.w3.org/2000/svg">
<path d="M10.6269 36.8746C10.2815 36.8746 10.002 36.5953 10.002 36.2496C10.002 33.838 11.965 31.8755 14.3767 31.8755C14.7224 31.8755 15.0016 32.155 15.0016 32.5004C15.0016 32.8462 14.7224 33.1254 14.3767 33.1254C12.6538 33.1254 11.2519 34.5267 11.2519 36.2496C11.2519 36.5953 10.9727 36.8746 10.6269 36.8746Z" fill="#FCFCFC"/>
<path d="M16.8763 33.126L14.3764 33.1254C14.031 33.1254 13.7515 32.8456 13.7515 32.5005C13.7515 32.155 14.0316 31.8755 14.3764 31.8755L16.8763 31.8761C17.222 31.8761 17.5012 32.1562 17.5012 32.5011C17.5012 32.8468 17.2214 33.126 16.8763 33.126Z" fill="#FCFCFC"/>
<path d="M10.6269 38.7501C10.2815 38.7501 10.002 38.4708 10.002 38.1251V36.429C10.002 36.0833 10.2815 35.8041 10.6269 35.8041C10.9727 35.8041 11.2519 36.0833 11.2519 36.429V38.1251C11.2519 38.4708 10.9727 38.7501 10.6269 38.7501Z" fill="#FCFCFC"/>
<path d="M29.3757 36.8746C29.0303 36.8746 28.7507 36.5953 28.7507 36.2496C28.7507 34.5267 27.3489 33.1254 25.6259 33.1254C25.2805 33.1254 25.001 32.8462 25.001 32.5004C25.001 32.155 25.2805 31.8755 25.6259 31.8755C28.0376 31.8755 30.0007 33.838 30.0007 36.2496C30.0007 36.5953 29.7214 36.8746 29.3757 36.8746Z" fill="#FCFCFC"/>
<path d="M23.1259 33.126C22.7811 33.126 22.501 32.8468 22.501 32.5011C22.501 32.1562 22.7805 31.8761 23.1259 31.8761L25.6258 31.8755C25.9709 31.8755 26.2507 32.155 26.2507 32.5005C26.2507 32.8456 25.9715 33.1254 25.6258 33.1254L23.1259 33.126Z" fill="#FCFCFC"/>
<path d="M29.3755 38.7501C29.03 38.7501 28.7505 38.4708 28.7505 38.1251V36.429C28.7505 36.0833 29.03 35.8041 29.3755 35.8041C29.7212 35.8041 30.0004 36.0833 30.0004 36.429V38.1251C30.0004 38.4708 29.7212 38.7501 29.3755 38.7501Z" fill="#FCFCFC"/>
<path d="M28.1254 39.9999H11.8764C11.531 39.9999 11.2515 39.7207 11.2515 39.375C11.2515 39.0295 11.531 38.75 11.8764 38.75H28.1254C28.4712 38.75 28.7504 39.0295 28.7504 39.375C28.7504 39.7207 28.4712 39.9999 28.1254 39.9999Z" fill="#FCFCFC"/>
<path d="M16.8764 33.126C16.531 33.126 16.2515 32.8467 16.2515 32.501V30.5007C16.2515 30.155 16.531 29.8757 16.8764 29.8757C17.2222 29.8757 17.5014 30.155 17.5014 30.5007V32.501C17.5014 32.8467 17.2222 33.126 16.8764 33.126Z" fill="#FCFCFC"/>
<path d="M23.1259 33.1253C22.7805 33.1253 22.501 32.8461 22.501 32.5004V30.5007C22.501 30.155 22.7805 29.8757 23.1259 29.8757C23.4717 29.8757 23.7509 30.155 23.7509 30.5007V32.5004C23.7509 32.8461 23.4717 33.1253 23.1259 33.1253Z" fill="#FCFCFC"/>
<path d="M20.001 31.8755C15.8655 31.8755 12.5015 28.5114 12.5015 24.3759C12.5015 24.0305 12.781 23.751 13.1264 23.751C13.4722 23.751 13.7514 24.0305 13.7514 24.3759C13.7514 27.8221 16.5549 30.6255 20.001 30.6255C23.4471 30.6255 26.2506 27.8221 26.2506 24.3759C26.2506 24.0305 26.5301 23.751 26.8756 23.751C27.2213 23.751 27.5005 24.0305 27.5005 24.3759C27.5005 28.5114 24.1365 31.8755 20.001 31.8755Z" fill="#FCFCFC"/>
<path d="M13.1264 25.0015C12.781 25.0015 12.5015 24.7223 12.5015 24.3766V18.7513C12.5015 18.4059 12.781 18.1263 13.1264 18.1263C13.4722 18.1263 13.7514 18.4059 13.7514 18.7513V24.3766C13.7514 24.7223 13.4722 25.0015 13.1264 25.0015Z" fill="#FCFCFC"/>
<path d="M26.8759 25.0021C26.5305 25.0021 26.251 24.7229 26.251 24.3772V18.7513C26.251 18.4059 26.5305 18.1263 26.8759 18.1263C27.2217 18.1263 27.5009 18.4059 27.5009 18.7513V24.3772C27.5009 24.7229 27.2217 25.0021 26.8759 25.0021Z" fill="#FCFCFC"/>
<path d="M26.8762 19.3762C26.5308 19.3762 26.2513 19.097 26.2513 18.7512C26.2513 17.3725 25.1301 16.2514 23.7514 16.2514C23.406 16.2514 23.1265 15.9722 23.1265 15.6264C23.1265 15.281 23.406 15.0015 23.7514 15.0015C25.8195 15.0015 27.5012 16.6832 27.5012 18.7512C27.5012 19.097 27.222 19.3762 26.8762 19.3762Z" fill="#FCFCFC"/>
<path d="M23.7514 16.2515C23.406 16.2515 23.1265 15.9723 23.1265 15.6265V13.1267C23.1265 12.7812 23.406 12.5017 23.7514 12.5017C24.0972 12.5017 24.3764 12.7812 24.3764 13.1267V15.6265C24.3764 15.9723 24.0972 16.2515 23.7514 16.2515Z" fill="#FCFCFC"/>
<path d="M23.7506 13.7516H18.7509C18.4055 13.7516 18.126 13.4724 18.126 13.1267C18.126 12.7812 18.4055 12.5017 18.7509 12.5017H23.7506C24.0964 12.5017 24.3756 12.7812 24.3756 13.1267C24.3756 13.4724 24.0964 13.7516 23.7506 13.7516Z" fill="#FCFCFC"/>
<path d="M13.1264 19.3763C12.781 19.3763 12.5015 19.0971 12.5015 18.7513C12.5015 15.3055 15.3049 12.5023 18.7511 12.5023C19.0968 12.5023 19.376 12.7818 19.376 13.1273C19.376 13.473 19.0968 13.7522 18.7511 13.7522C15.9943 13.7522 13.7514 15.9945 13.7514 18.7513C13.7514 19.0971 13.4722 19.3763 13.1264 19.3763Z" fill="#FCFCFC"/>
<path d="M26.8765 22.501C26.7166 22.501 26.5567 22.4397 26.4347 22.3179L24.5598 20.443C24.3154 20.1986 24.3154 19.8037 24.5598 19.5593C24.8042 19.3149 25.1991 19.3149 25.4435 19.5593L27.3184 21.4342C27.5628 21.6786 27.5628 22.0735 27.3184 22.3179C27.1966 22.4397 27.0364 22.501 26.8765 22.501Z" fill="#FCFCFC"/>
<path d="M20.0012 21.8761C17.1983 21.8761 14.8059 20.6057 14.7052 20.5517C14.4016 20.3881 14.2878 20.0101 14.451 19.7055C14.614 19.4025 14.9914 19.2856 15.2972 19.4507C15.3189 19.4626 17.5221 20.6262 20.0012 20.6262C22.4928 20.6262 24.6829 19.4632 24.7046 19.4507C25.0079 19.2874 25.3878 19.4013 25.5508 19.7049C25.7141 20.0088 25.6002 20.3881 25.2966 20.5511C25.1965 20.6057 22.8041 21.8761 20.0012 21.8761V21.8761Z" fill="#FCFCFC"/>
<path d="M13.1267 22.501C12.9668 22.501 12.8069 22.4397 12.6848 22.3179C12.4404 22.0735 12.4404 21.6786 12.6848 21.4342L14.5597 19.5593C14.8041 19.3149 15.199 19.3149 15.4434 19.5593C15.6878 19.8037 15.6878 20.1986 15.4434 20.443L13.5685 22.3179C13.4468 22.4397 13.2866 22.501 13.1267 22.501Z" fill="#FCFCFC"/>
<path d="M18.1266 34.3753C17.9667 34.3753 17.8068 34.314 17.6847 34.1922L16.4348 32.9429C16.1904 32.6985 16.1904 32.3036 16.4348 32.0592C16.6792 31.8151 17.0741 31.8151 17.3185 32.0592L18.5684 33.3085C18.8129 33.5529 18.8129 33.9478 18.5684 34.1922C18.4467 34.314 18.2865 34.3753 18.1266 34.3753Z" fill="#FCFCFC"/>
<path d="M18.1262 34.3753C17.8644 34.3753 17.6206 34.2096 17.5339 33.9477C17.4243 33.6203 17.6013 33.266 17.9288 33.1574L19.8036 32.5324C20.1329 32.4223 20.4848 32.5999 20.5943 32.9273C20.7036 33.2547 20.5266 33.609 20.1991 33.718L18.3243 34.3429C18.258 34.3646 18.1912 34.3753 18.1262 34.3753V34.3753Z" fill="#FCFCFC"/>
<path d="M21.8762 34.3753C21.7163 34.3753 21.5564 34.314 21.4343 34.1922C21.1899 33.9478 21.1899 33.5529 21.4343 33.3085L22.6842 32.0592C22.9287 31.8151 23.3235 31.8151 23.568 32.0592C23.8124 32.3036 23.8124 32.6985 23.568 32.9429L22.318 34.1922C22.1963 34.314 22.0361 34.3753 21.8762 34.3753Z" fill="#FCFCFC"/>
<path d="M21.8765 34.3753C21.8115 34.3753 21.7447 34.3646 21.6791 34.343L19.8042 33.718C19.4774 33.6091 19.2998 33.2554 19.4093 32.9274C19.5186 32.6005 19.8692 32.4223 20.1997 32.5325L22.0746 33.1574C22.4014 33.2661 22.579 33.6198 22.4698 33.9478C22.3822 34.2096 22.1384 34.3753 21.8765 34.3753V34.3753Z" fill="#FCFCFC"/>
<path d="M28.1259 40C27.7805 40 27.501 39.7208 27.501 39.375C27.501 39.0296 27.7805 38.75 28.1259 38.75C28.4711 38.75 28.7509 38.4702 28.7509 38.1251C28.7509 37.7796 29.0304 37.5001 29.3759 37.5001C29.7216 37.5001 30.0008 37.7796 30.0008 38.1251C30.0008 39.159 29.1595 40 28.1259 40Z" fill="#FCFCFC"/>
<path d="M11.8768 40C10.8433 40 10.002 39.159 10.002 38.1251C10.002 37.7796 10.2815 37.5001 10.6269 37.5001C10.9727 37.5001 11.2519 37.7796 11.2519 38.1251C11.2519 38.4702 11.532 38.75 11.8768 38.75C12.2226 38.75 12.5018 39.0296 12.5018 39.375C12.5018 39.7208 12.2226 40 11.8768 40Z" fill="#FCFCFC"/>
<path d="M20.0204 36.8752C19.6747 36.8752 19.3921 36.5959 19.3921 36.2502C19.3921 35.9048 19.6686 35.6252 20.0134 35.6252H20.0204C20.3652 35.6252 20.6454 35.9048 20.6454 36.2502C20.6454 36.5959 20.3652 36.8752 20.0204 36.8752Z" fill="#FCFCFC"/>
<path d="M5.02139 22.4992C4.67564 22.4992 4.39307 22.22 4.39307 21.8742C4.39307 21.5288 4.66954 21.2493 5.01437 21.2493H5.02139C5.36621 21.2493 5.64635 21.5288 5.64635 21.8742C5.64635 22.22 5.36621 22.4992 5.02139 22.4992Z" fill="#FCFCFC"/>
<path d="M5.00217 24.3753C2.59051 24.3753 0.627441 22.4122 0.627441 20.0006C0.627441 17.5889 2.5899 15.6259 5.00217 15.6252C6.17092 15.6252 7.26948 16.0808 8.09585 16.9063C8.92191 17.7327 9.37689 18.8312 9.37689 20C9.37689 22.4122 7.41382 24.3753 5.00217 24.3753ZM5.00339 16.8752C3.27986 16.8758 1.87736 18.2777 1.87736 20.0006C1.87736 21.7235 3.27925 23.1254 5.00217 23.1254C6.72508 23.1254 8.12697 21.7235 8.12697 20C8.12697 18.2771 6.72569 16.8752 5.00339 16.8752Z" fill="#FCFCFC"/>
<path d="M5.0024 20.6255C4.65696 20.6255 4.37744 20.3463 4.37744 20.0006V18.1245C4.37744 17.779 4.65696 17.4995 5.0024 17.4995C5.34814 17.4995 5.62736 17.779 5.62736 18.1245V20.0006C5.62736 20.3463 5.34814 20.6255 5.0024 20.6255Z" fill="#FCFCFC"/>
<path d="M10.6267 20.6261H8.7524C8.40697 20.6261 8.12744 20.3469 8.12744 20.0012C8.12744 19.6557 8.40697 19.3762 8.7524 19.3762H10.6267C10.9724 19.3762 11.2516 19.6557 11.2516 20.0012C11.2516 20.3469 10.9724 20.6261 10.6267 20.6261Z" fill="#FCFCFC"/>
<path d="M35.0199 22.5004C34.6742 22.5004 34.3916 22.2212 34.3916 21.8755C34.3916 21.53 34.6681 21.2505 35.0129 21.2505H35.0199C35.3647 21.2505 35.6449 21.53 35.6449 21.8755C35.6449 22.2212 35.3647 22.5004 35.0199 22.5004V22.5004Z" fill="#FCFCFC"/>
<path d="M35.0012 24.3759C32.5895 24.3759 30.6265 22.4128 30.6265 20C30.6265 17.5883 32.5889 15.6259 35.0006 15.6259C37.4122 15.6259 39.3753 17.5889 39.3753 20.0006C39.3747 22.4122 37.4122 24.3753 35.0012 24.3759ZM35.0006 16.8758C33.2777 16.8758 31.8764 18.2771 31.8764 20C31.8764 21.7235 33.2783 23.126 35.0012 23.126C36.7235 23.1254 38.1248 21.7235 38.1254 20.0006C38.1254 18.2777 36.7235 16.8758 35.0006 16.8758Z" fill="#FCFCFC"/>
<path d="M35.0006 20.6261C34.6557 20.6261 34.3756 20.3469 34.3756 20.0012L34.375 18.1257C34.375 17.7809 34.6545 17.5007 35 17.5007C35.3451 17.5007 35.6249 17.7803 35.6249 18.1257L35.6255 20.0012C35.6255 20.3463 35.3463 20.6261 35.0006 20.6261Z" fill="#FCFCFC"/>
<path d="M31.2503 20.6268L29.3754 20.6261C29.03 20.6261 28.7505 20.3463 28.7505 20.0012C28.7505 19.6557 29.0306 19.3762 29.3754 19.3762L31.2503 19.3768C31.5961 19.3768 31.8753 19.657 31.8753 20.0018C31.8753 20.3475 31.5955 20.6268 31.2503 20.6268Z" fill="#FCFCFC"/>
<path d="M31.0694 11.4526C30.724 11.4526 30.4414 11.173 30.4414 10.8276C30.4414 10.4819 30.7176 10.2026 31.0627 10.2026H31.0694C31.4146 10.2026 31.6944 10.4819 31.6944 10.8276C31.6944 11.173 31.4146 11.4526 31.0694 11.4526Z" fill="#FCFCFC"/>
<path d="M31.0505 13.3281C31.0499 13.3281 31.0499 13.3281 31.0505 13.3281C28.6379 13.3281 26.6758 11.365 26.6758 8.95212C26.6758 6.54016 28.6379 4.57739 31.0499 4.57739C33.4616 4.57739 35.424 6.54016 35.424 8.95212C35.424 11.3638 33.4616 13.3268 31.0505 13.3281ZM31.0499 5.82731C29.3267 5.82731 27.9257 7.2289 27.9257 8.95212C27.9257 10.6756 29.3267 12.0781 31.0499 12.0781C32.7722 12.0769 34.1741 10.675 34.1741 8.95212C34.1741 7.2289 32.7728 5.82731 31.0499 5.82731Z" fill="#FCFCFC"/>
<path d="M31.051 9.5783C30.7059 9.5783 30.426 9.29877 30.426 8.95395L30.4248 7.07845C30.4248 6.73271 30.704 6.45288 31.0492 6.45288H31.0498C31.3946 6.45288 31.6747 6.7321 31.6747 7.07723L31.6759 8.95272C31.6759 9.29816 31.3958 9.5783 31.051 9.5783Z" fill="#FCFCFC"/>
<path d="M27.072 13.5554C26.9121 13.5554 26.7522 13.494 26.6301 13.3723C26.3857 13.1279 26.3857 12.7324 26.6301 12.4886L27.9563 11.1636C28.2007 10.9194 28.5956 10.9194 28.8401 11.1636C29.0845 11.408 29.0845 11.8038 28.8401 12.0473L27.5138 13.3723C27.3921 13.494 27.2319 13.5554 27.072 13.5554Z" fill="#FCFCFC"/>
<path d="M20.0219 6.87455C19.6761 6.87455 19.3936 6.59534 19.3936 6.24959C19.3936 5.90385 19.67 5.62463 20.0149 5.62463H20.0219C20.3667 5.62463 20.6468 5.90385 20.6468 6.24959C20.6468 6.59534 20.3667 6.87455 20.0219 6.87455Z" fill="#FCFCFC"/>
<path d="M20.0018 8.75067C20.0012 8.75067 20.0012 8.75067 20.0018 8.75067C17.5895 8.75067 15.6265 6.7876 15.6265 4.37473C15.6265 1.96307 17.5895 0 20.0012 0C22.4129 0 24.3759 1.96307 24.3759 4.37473C24.3759 6.78577 22.4135 8.74945 20.0018 8.75067ZM20.0012 1.24992C18.2783 1.24992 16.8764 2.65181 16.8764 4.37473C16.8764 6.09825 18.2783 7.50075 20.0012 7.50075C21.7241 7.49953 23.126 6.09764 23.126 4.37473C23.126 2.65181 21.7241 1.24992 20.0012 1.24992Z" fill="#FCFCFC"/>
<path d="M20.0009 5.0009C19.6555 5.0009 19.376 4.72168 19.376 4.37594V2.49984C19.376 2.1541 19.6555 1.87488 20.0009 1.87488C20.3467 1.87488 20.6259 2.1541 20.6259 2.49984V4.37594C20.6259 4.72168 20.3467 5.0009 20.0009 5.0009Z" fill="#FCFCFC"/>
<path d="M20.0024 10.6255C19.657 10.6255 19.3774 10.3463 19.3774 10.0006V8.12569C19.3774 7.78026 19.657 7.50073 20.0024 7.50073C20.3481 7.50073 20.6274 7.78026 20.6274 8.12569V10.0006C20.6274 10.3463 20.3481 10.6255 20.0024 10.6255Z" fill="#FCFCFC"/>
<path d="M8.9742 11.4498C8.62877 11.4498 8.34619 11.1705 8.34619 10.8248C8.34619 10.4794 8.62236 10.1998 8.96749 10.1998H8.9742C9.31934 10.1998 9.59917 10.4794 9.59917 10.8248C9.59917 11.1705 9.31934 11.4498 8.9742 11.4498Z" fill="#FCFCFC"/>
<path d="M8.95432 13.3268C7.78496 13.3268 6.68609 12.8712 5.86003 12.0442C5.03458 11.2182 4.57898 10.1187 4.57959 8.95053C4.57959 6.53888 6.54175 4.57581 8.9537 4.57581C11.3654 4.57581 13.3278 6.53888 13.3278 8.95053C13.3284 11.3619 11.3666 13.3246 8.95432 13.3268ZM8.9537 5.82573C7.23049 5.82573 5.82951 7.22762 5.82951 8.95053C5.82951 9.78575 6.1545 10.5706 6.74437 11.1611C7.33363 11.7513 8.11849 12.0769 8.95309 12.0769C10.6766 12.0753 12.0785 10.6731 12.0779 8.95053C12.0779 7.22762 10.6766 5.82573 8.9537 5.82573Z" fill="#FCFCFC"/>
<path d="M8.95357 9.5764C8.60783 9.5764 8.32861 9.29688 8.32861 8.95144V7.07564C8.32861 6.73021 8.60783 6.45068 8.95357 6.45068C9.29901 6.45068 9.57853 6.73021 9.57853 7.07564V8.95144C9.57853 9.29688 9.29901 9.5764 8.95357 9.5764Z" fill="#FCFCFC"/>
<path d="M12.932 13.5542C12.7721 13.5542 12.6122 13.4928 12.4901 13.3711L11.1645 12.0455C10.9204 11.801 10.9204 11.4062 11.1645 11.1617C11.409 10.9176 11.8038 10.9176 12.0483 11.1617L13.3739 12.4873C13.6183 12.7318 13.6183 13.1266 13.3739 13.3711C13.2515 13.4928 13.0913 13.5542 12.932 13.5542Z" fill="#FCFCFC"/>
</svg>
