<svg width="71" height="72" viewBox="0 0 71 72" fill="none" xmlns="http://www.w3.org/2000/svg">
<path d="M35.4999 72C44.9823 72 53.8969 68.2552 60.6022 61.4557C67.3072 54.6561 71 45.6158 71 35.9999C71 26.3842 67.3072 17.3439 60.6022 10.5443C53.897 3.7447 44.9823 0 35.4999 0C15.9251 0 0 16.1494 0 35.9999C0 45.6158 3.69269 54.6561 10.3978 61.4557C17.103 68.2552 26.0177 72 35.4999 72Z" fill="#444444"/>
<path d="M1.22821 36C1.22821 26.717 4.79314 17.9894 11.2663 11.4251C17.7394 4.8606 26.3457 1.24561 35.4999 1.24561C44.654 1.24561 53.2604 4.8606 59.7334 11.4251C66.2066 17.9894 69.7715 26.7168 69.7715 36C69.7715 55.1637 54.3973 70.7544 35.4999 70.7544C26.3457 70.7544 17.7394 67.1393 11.2663 60.575C4.79314 54.0105 1.22821 45.2831 1.22821 36Z" fill="white"/>
<path d="M35.5 2.67786C17.3526 2.67786 2.64081 17.5969 2.64081 35.9999C2.64081 54.4029 17.3526 69.322 35.5 69.322C53.6474 69.322 68.3592 54.4029 68.3592 35.9999C68.3592 17.5969 53.6474 2.67786 35.5 2.67786V2.67786Z" fill="black" fill-opacity="0.96"/>
<path d="M35.4999 57.285C23.908 57.285 14.5106 47.7553 14.5106 36C14.5106 24.2448 23.908 14.715 35.4999 14.715C47.0919 14.715 56.4893 24.2448 56.4893 36C56.4893 47.7553 47.092 57.285 35.4999 57.285Z" fill="white"/>
<path d="M15.8609 35.9999H35.5V16.0842C24.6538 16.0842 15.8609 25.0011 15.8609 35.9999ZM35.5 35.9999V55.9157C46.3462 55.9157 55.139 46.999 55.139 35.9999H35.5Z" fill="black"/>
<path d="M20.0753 15.6916C19.3796 15.0058 18.3041 14.7991 17.2944 15.4339C17.4873 14.9271 17.4085 14.4099 17.3061 14.1245C16.8712 13.3201 16.7193 13.2195 16.3608 12.9144C15.2004 11.9269 13.979 12.77 13.1055 13.8256L8.88516 18.926L15.5195 24.5714L19.9702 19.1928C20.9871 17.9638 21.1444 16.7454 20.0753 15.6916ZM36.5994 13.268L38.8777 7.14392V13.268H40.6094V4.49719H38.0077L35.6412 10.777H35.6657L33.2993 4.49719H30.6978V13.268H32.4292V7.14392L34.7078 13.268H36.5994ZM59.8804 16.9169L56.6202 21.5976L61.6744 19.1643L63.0126 20.8402L55.0575 24.7507L53.487 22.768L56.616 18.1284L56.5974 18.1052L51.4717 20.2442L49.8857 18.2742L55.3118 11.1964L56.65 12.8723L53.2521 17.3797L58.4447 15.119L59.8804 16.9169Z" fill="white"/>
<path d="M14.0278 15.088C14.3214 14.733 14.9852 14.7475 15.412 15.1106C15.8813 15.51 15.8824 16.0762 15.5673 16.4569L13.061 19.4858L11.4929 18.1514L14.0278 15.088ZM18.487 18.6611L15.8446 21.8545L14.1876 20.4445L16.8514 17.2251C17.1522 16.8616 17.8229 16.7557 18.2752 17.1408C18.7872 17.5763 18.8379 18.237 18.487 18.6611Z" fill="#444444"/>
</svg>
