<svg width="72" height="48" viewBox="0 0 72 48" fill="none" xmlns="http://www.w3.org/2000/svg">
<g clip-path="url(#clip0)">
<path d="M12.5099 43.3763H9.41948V47.9969H7.26183V37.6636H9.41948V41.7989H12.5113V37.6636H14.669V47.9969H12.5099V43.3763ZM69.0676 39.241H72V37.6636H63.9832V39.241H66.9114V47.9969H69.0676V39.241V39.241ZM52.591 46.4209L52.5938 37.6636H50.4333V47.9969H56.6057V46.4209H52.591V46.4209ZM27.4569 46.2756C27.4893 46.3744 27.574 46.4153 27.6827 46.4153C27.797 46.4153 27.876 46.3857 27.907 46.2798L30.1465 37.6651H32.053L29.5045 47.1052C29.3577 47.702 28.9781 48.0011 28.3939 48.0011H26.4042C25.8185 48.0011 25.4051 47.7133 25.2781 47.0911L22.6674 37.6636H25.1835L27.4569 46.2756V46.2756ZM2.94651 46.4167C2.34959 46.4167 2.15626 46.27 2.15626 45.6238L2.15909 40.0283C2.15909 39.4075 2.30302 39.2396 2.94933 39.2396H6.4363V37.6622H1.6172C0.513678 37.6622 0.00142832 38.2322 0.00142832 39.2763L1.71661e-05 46.3814C1.71661e-05 47.5327 0.591291 47.9969 1.61156 47.9969H6.4363V46.4181H2.94651V46.4167ZM18.1221 43.3763V45.6252C18.1221 46.2827 18.314 46.4181 18.9123 46.4181H22.9031V47.9969H17.5788C16.4978 47.9969 15.9658 47.4748 15.9658 46.3814V39.2777C15.9658 38.2195 16.464 37.6636 17.5802 37.6636H22.4543V39.241H18.9137C18.2576 39.241 18.1235 39.4315 18.1235 40.0297V41.7989H22.4092V43.3763H18.1221V43.3763ZM35.8335 42.0797C35.3749 42.0797 35.1195 42.3534 35.1195 42.7992C35.1195 43.025 35.2338 43.1858 35.3241 43.348L38.0476 47.9969H40.7175L37.8656 43.6359L38.3496 43.633C39.3487 43.633 39.9625 43.1759 39.9625 42.0176L39.9611 39.2777C39.9611 38.1984 39.4517 37.6636 38.3468 37.6636H32.3352V47.9955H34.4915V39.241H37.0132C37.6807 39.241 37.8007 39.4315 37.8007 40.0297L37.8063 41.2896C37.8063 41.9005 37.637 42.0797 37.0132 42.0797H35.8335V42.0797ZM42.7595 47.9969C41.7731 47.9969 41.1465 47.5553 41.1465 46.3814L41.1493 39.2777C41.1493 38.2463 41.6249 37.6636 42.7637 37.6636H47.5165C48.6299 37.6636 49.128 38.2195 49.128 39.2777L49.1308 46.3814C49.1308 47.5115 48.5494 47.9969 47.5165 47.9969H42.7595" fill="white"/>
<path d="M46.1829 46.4167C46.7685 46.4167 46.9746 46.2926 46.9746 45.6238L46.9731 40.0283C46.9731 39.337 46.7474 39.2396 46.1829 39.2396H44.0958C43.3789 39.2396 43.3055 39.4879 43.3055 40.0283V45.6238C43.3055 46.2446 43.4735 46.4167 44.0958 46.4167H46.1829Z" fill="black"/>
<path d="M59.181 43.3762L59.1796 45.6251C59.1796 46.2826 59.3729 46.4181 59.9713 46.4181H63.962V47.9968H58.6349C57.5568 47.9968 57.022 47.4748 57.022 46.3814L57.0248 39.2776C57.0248 38.2195 57.5229 37.6636 58.6391 37.6636H63.5133V39.2409H59.9713C59.3137 39.2409 59.1824 39.4314 59.1824 40.0296V41.7988H63.4667V43.3762H59.181" fill="white"/>
<path d="M47.1759 0.000366211C48.0226 0.000366211 48.4883 0.457489 48.4883 1.32377L48.4897 4.32893C48.4897 5.04001 48.8284 5.19379 49.3435 5.19379L69.5992 5.19097C70.0987 5.19097 70.8297 5.48866 70.8297 6.3366C70.8297 6.65687 70.7352 6.80924 70.5955 7.08013L64.2058 19.5635C63.7598 20.3889 63.1192 20.6231 62.233 20.6231L49.3435 20.6273C48.7494 20.6273 48.4897 20.8771 48.4897 21.4908L48.4925 24.4945C48.4925 25.4187 47.9662 25.8024 47.1759 25.8024H23.9892C23.199 25.8024 22.674 25.3919 22.674 24.4861L22.6754 21.4837C22.6754 20.9081 22.4525 20.6189 21.8189 20.6189L1.2682 20.6217C0.360828 20.6217 0.0348511 19.9755 0.0348511 19.4761C0.0348511 19.2856 0.0842415 19.0994 0.1675 18.9385L6.62918 6.30979C6.93682 5.67349 7.5295 5.18956 8.54553 5.18956L21.8189 5.18533C22.3749 5.18533 22.674 4.95394 22.674 4.32187L22.6754 1.31671C22.6769 0.488528 23.1228 0.000366211 23.9892 0.000366211H47.1759Z" fill="white"/>
<path d="M43.6118 4.01001C44.189 4.01001 44.4754 4.26679 44.4754 4.88052V8.34562C44.4754 8.94101 44.7506 9.20343 45.3475 9.20343H63.7942C64.3812 9.20343 64.5745 9.59001 64.5745 9.89758C64.5743 10.0102 64.5467 10.1211 64.4941 10.2207L61.4121 16.2465C61.2188 16.5964 60.8773 16.6105 60.6346 16.6105H45.3461C44.7139 16.6105 44.4825 16.8969 44.4825 17.4726L44.4811 20.9405C44.4811 21.5147 44.2271 21.7927 43.6118 21.7927H27.5528C27.0138 21.7927 26.6864 21.6036 26.6864 20.932L26.685 17.4669C26.685 16.8349 26.3943 16.6077 25.8185 16.6077H7.07274C6.6127 16.6077 6.29378 16.3199 6.29378 15.9178C6.29378 15.7993 6.322 15.692 6.37421 15.5933L9.45477 9.56885C9.57189 9.35722 9.76522 9.20626 10.2309 9.20626L25.8185 9.21049C26.3576 9.21049 26.6906 8.99321 26.6906 8.33998V4.87205C26.6906 4.25832 26.9573 4.01283 27.5528 4.01283L43.6118 4.01001Z" fill="black"/>
<path d="M51.6215 25.0137C51.6215 24.7802 51.7143 24.5563 51.8794 24.3912C52.0445 24.2261 52.2685 24.1333 52.5021 24.1333C52.7356 24.1333 52.9596 24.2261 53.1247 24.3912C53.2899 24.5563 53.3826 24.7802 53.3826 25.0137C53.3699 25.2386 53.2716 25.45 53.1078 25.6047C52.9441 25.7594 52.7273 25.8456 52.5021 25.8456C52.2768 25.8456 52.06 25.7594 51.8963 25.6047C51.7326 25.45 51.6342 25.2386 51.6215 25.0137ZM53.2768 25.0137C53.276 24.861 53.2299 24.7119 53.1444 24.5853C53.0589 24.4587 52.9379 24.3603 52.7965 24.3024C52.6551 24.2445 52.4998 24.2298 52.35 24.2601C52.2003 24.2904 52.0629 24.3644 51.9552 24.4727C51.8474 24.581 51.7742 24.7188 51.7447 24.8686C51.7152 25.0185 51.7308 25.1737 51.7894 25.3148C51.8481 25.4558 51.9472 25.5763 52.0743 25.6611C52.2014 25.7458 52.3507 25.7911 52.5035 25.7911C52.6053 25.7909 52.7061 25.7706 52.8002 25.7314C52.8942 25.6923 52.9795 25.6349 53.0514 25.5627C53.1232 25.4905 53.1801 25.4049 53.2188 25.3106C53.2574 25.2164 53.2772 25.1155 53.2768 25.0137V25.0137ZM52.9438 25.5061H52.7998L52.5176 25.0532H52.2974V25.5061H52.1775V24.5241H52.6065C52.6912 24.5241 52.773 24.5269 52.8464 24.5707C52.9212 24.613 52.9565 24.7033 52.9565 24.7823C52.9565 24.977 52.821 25.049 52.6446 25.0518L52.9438 25.5061V25.5061ZM52.4809 24.9587C52.6192 24.9587 52.8337 24.9827 52.8337 24.7823C52.8337 24.6299 52.701 24.6102 52.5754 24.6102H52.2974V24.9587H52.4809Z" fill="white"/>
<path d="M70.0751 46.6551C70.0751 46.1684 70.4703 45.7733 70.9585 45.7733C71.4454 45.7733 71.8348 46.1684 71.8348 46.6551C71.8348 47.1419 71.4454 47.5355 70.9585 47.5355C70.8427 47.5357 70.728 47.5131 70.6209 47.4689C70.5138 47.4248 70.4165 47.36 70.3345 47.2782C70.2524 47.1965 70.1873 47.0994 70.1428 46.9925C70.0983 46.8856 70.0753 46.7709 70.0751 46.6551V46.6551ZM71.7332 46.6551C71.7378 46.5505 71.7211 46.4461 71.6843 46.3481C71.6474 46.2501 71.5911 46.1606 71.5187 46.085C71.4463 46.0093 71.3594 45.9491 71.2631 45.9079C71.1669 45.8667 71.0633 45.8455 70.9585 45.8454C70.8538 45.8453 70.7502 45.8663 70.6538 45.9074C70.5575 45.9484 70.4705 46.0084 70.3979 46.0839C70.3254 46.1595 70.269 46.2489 70.2319 46.3468C70.1949 46.4447 70.178 46.5491 70.1824 46.6537C70.1907 46.8536 70.276 47.0426 70.4203 47.1811C70.5647 47.3197 70.757 47.3971 70.9571 47.3973C71.1572 47.3975 71.3497 47.3204 71.4943 47.1821C71.6389 47.0438 71.7245 46.855 71.7332 46.6551V46.6551ZM71.3974 47.1447H71.2549L70.9726 46.6918H70.7511V47.1447H70.6311V46.1627H71.0615C71.1462 46.1627 71.228 46.1655 71.2986 46.2093C71.3762 46.2488 71.4101 46.3419 71.4101 46.4209C71.4101 46.6156 71.2774 46.6876 71.0996 46.6904L71.3974 47.1447V47.1447ZM70.9373 46.5959C71.077 46.5959 71.2887 46.6184 71.2887 46.4209C71.2887 46.2685 71.1561 46.2488 71.0319 46.2488H70.7511V46.5959H70.9373Z" fill="white"/>
</g>
<defs>
<clipPath id="clip0">
<rect width="72" height="48" fill="white"/>
</clipPath>
</defs>
</svg>
