<svg width="129" height="27" viewBox="0 0 129 27" fill="none" xmlns="http://www.w3.org/2000/svg">
<path fill-rule="evenodd" clip-rule="evenodd" d="M14.0044 0.422119C6.78214 0.422119 0.926575 6.27701 0.926575 13.5C0.926575 20.7229 6.78214 26.5778 14.0044 26.5778C21.2274 26.5778 27.0829 20.7229 27.0829 13.5C27.0829 6.27701 21.2274 0.422119 14.0044 0.422119V0.422119ZM14.0058 25.8805C11.0175 25.8805 8.22089 24.8842 6.13719 23.0554C4.10989 21.2748 2.53523 18.4455 2.14648 15.4382C3.06804 21.1572 8.0272 25.5258 14.0058 25.5258C20.6402 25.5258 26.0187 20.1473 26.0187 13.5129C26.0187 10.7604 24.9904 8.06508 23.4327 6.03982C25.0108 7.25702 26.3734 10.7237 26.3734 13.5129C26.3734 20.343 20.8359 25.8805 14.0058 25.8805ZM12.8701 12.5682L13.9276 1.72494L14.0044 1.72426H14.0316L14.1356 13.135L15.9556 12.0469L14.1247 1.72562C20.5729 1.79019 25.7815 7.03614 25.7815 13.5C25.7815 15.5769 25.2432 17.5274 24.2999 19.221L16.1262 12.382L15.3521 12.821L24.2442 19.3188L24.1762 19.4357L14.1764 13.6828V15.7121L24.1076 19.5506C22.049 22.9799 18.2948 25.2757 14.0037 25.2757C9.7174 25.2757 5.96592 22.9847 3.90669 19.5608L13.8318 15.6911V13.6624L3.82038 19.4153L3.75446 19.3012L12.6153 12.821L11.8412 12.382L3.68989 19.185C2.7285 17.4446 2.22567 15.4882 2.22872 13.5C2.22872 7.08711 7.35506 1.87174 13.7333 1.72698L12.1382 12.1292L12.8701 12.5682V12.5682ZM14.0044 1.12484C7.1736 1.12484 1.63677 6.66235 1.63677 13.4925C1.63677 16.2667 2.64328 18.8907 4.17854 21.1572C4.69912 22.1311 5.26252 22.7339 6.01418 23.5297C3.06872 21.1769 1.16308 17.5552 1.16308 13.4918C1.16308 6.40002 6.91195 0.650469 14.0044 0.650469C21.0969 0.650469 26.9552 6.65012 26.7445 13.4918C26.5664 6.81662 20.7224 1.12484 14.0044 1.12484V1.12484ZM71.4517 14.3658C71.4517 12.0721 70.4377 10.2127 68.2112 10.2127C66.1445 10.2127 64.9695 12.0721 64.9695 14.3658C64.9695 16.6595 65.9515 18.5189 68.2112 18.5189C70.4057 18.5189 71.0507 17.4315 71.3878 15.6924L70.6314 15.6897C70.5675 16.3346 70.1468 17.7877 68.5341 17.8196C66.6943 17.857 66.5659 15.496 66.5972 14.3665L66.6291 13.7208C66.6291 13.0113 66.5652 10.9134 68.2751 10.9134C69.6303 10.9134 69.824 12.6566 69.824 13.7208H66.6291L66.5972 14.3665H71.4517V14.3658V14.3658ZM33.2749 7.35488L33.2423 7.87139H33.7262C34.0809 7.87139 34.5336 7.90333 34.5336 8.35528L34.3725 17.1019C34.3725 17.4248 34.2108 17.7795 33.5651 17.7795H33.0812L33.0486 18.296H36.308V17.7795H35.7596C35.3396 17.7795 35.0494 17.6504 35.0494 17.1019L35.2105 8.71072L38.6962 17.7469H39.051L42.5687 8.61353L42.7304 17.1019C42.7304 17.3921 42.4395 17.7795 41.9876 17.7795H41.31V18.296H45.4088V17.7795H44.9249C44.5701 17.7795 44.1501 17.5858 44.1501 17.1339L43.9884 8.4844C43.9884 8.19353 44.3112 7.87139 44.634 7.87139H45.247V7.35488H42.3097L39.2759 15.2942L36.2421 7.35488H33.2749V7.35488ZM55.9782 18.3028V17.8835H55.6553C55.3652 17.8835 54.8486 17.7863 54.8486 17.2052V12.9773C54.8486 11.6541 55.5262 11.1702 56.2038 11.1702C56.462 11.1702 56.6238 11.2994 56.5586 11.7833C56.494 12.2671 56.9133 12.59 57.2688 12.558C57.6242 12.5261 58.0761 12.4608 58.0109 11.5576C57.9457 10.6544 57.4305 10.2344 56.5266 10.2344C55.8164 10.2344 55.2353 10.6864 55.0743 10.9127C54.8867 11.1757 54.6543 11.0737 54.6223 10.7835C54.5904 10.4933 54.4613 10.2032 54.1384 10.2997C53.521 10.497 52.8813 10.6162 52.2342 10.6544V10.9772C53.5893 10.9127 53.4609 11.5902 53.4609 11.9131V17.2059C53.4609 17.787 52.9444 17.8842 52.6535 17.8842H52.2015V18.3035H55.9782V18.3028V18.3028ZM63.1678 10.7258C62.6921 10.3785 62.094 10.1794 61.3662 10.1794C59.3008 10.1794 58.1251 12.0388 58.1251 14.3332C58.1251 16.6269 59.1064 18.4754 61.3662 18.4863C63.3669 18.4965 63.8515 17.367 64.1879 15.6272L63.4315 15.6238C63.3669 16.2687 63.1413 17.7537 61.689 17.7863C59.8499 17.8278 59.7208 15.462 59.7527 14.3332C59.7527 13.623 59.8499 10.7822 61.3988 10.7822C62.7213 10.7822 63.5287 11.7187 63.5287 12.7837H63.948V10.0727H63.5933L63.1678 10.7258ZM109.858 17.8189C108.018 17.8563 107.89 15.4953 107.921 14.3658H112.776C112.776 12.0721 111.763 10.2127 109.535 10.2127C107.47 10.2127 106.295 12.0721 106.295 14.3658C106.295 16.6595 107.276 18.5189 109.535 18.5189C111.73 18.5189 112.376 17.4315 112.712 15.6924L111.957 15.689C111.891 16.3346 111.472 17.7877 109.858 17.8189V17.8189ZM109.601 10.9127C110.956 10.9127 111.149 12.6559 111.149 13.7202H107.954C107.954 13.0106 107.89 10.9127 109.601 10.9127ZM83.3252 17.8189C81.4855 17.8563 81.3571 15.4953 81.3883 14.3658H86.2428C86.2428 12.0721 85.2288 10.2127 83.0024 10.2127C80.937 10.2127 79.7606 12.0721 79.7606 14.3658C79.7606 16.6595 80.7427 18.5189 83.0024 18.5189C85.1969 18.5189 85.8418 17.4315 86.1789 15.6924L85.4225 15.689C85.3586 16.3346 84.9393 17.7877 83.3252 17.8189V17.8189ZM83.0663 10.9127C84.4228 10.9127 84.6151 12.6559 84.6151 13.7202H81.4203C81.4203 13.0106 81.3571 10.9127 83.0663 10.9127ZM49.0719 17.8189C47.2329 17.8563 47.1037 15.4953 47.1357 14.3658H51.9902C51.9902 12.0721 50.9762 10.2127 48.7498 10.2127C46.6837 10.2127 45.5087 12.0721 45.5087 14.3658C45.5087 16.6595 46.4901 18.5189 48.7498 18.5189C50.9443 18.5189 51.5899 17.4315 51.9263 15.6924L51.1699 15.6897C51.1053 16.3346 50.686 17.7877 49.0719 17.8189V17.8189ZM48.8137 10.9127C50.1695 10.9127 50.3625 12.6559 50.3625 13.7202H47.1676C47.1676 13.0106 47.1037 10.9127 48.8137 10.9127ZM78.4802 16.6174V7.61245C78.4802 7.24138 78.2879 6.9342 77.9637 7.03138C77.3466 7.22898 76.707 7.34817 76.0601 7.38615V7.70896C76.996 7.6444 77.0931 7.93527 77.0931 8.25809V11.0336C76.6738 10.6463 76.1893 10.2589 75.3187 10.2589C74.2211 10.2589 72.1877 11.1301 72.1877 14.1959C72.1877 18.2308 74.5439 18.4884 75.2541 18.4884C75.9643 18.4884 76.9001 17.908 77.0938 17.6008C77.1094 17.5362 77.2066 17.4553 77.2386 17.6008C77.2719 17.8917 77.4812 18.3266 77.804 18.2301C78.4213 18.0328 79.0608 17.9136 79.7076 17.8753V17.5525C78.3518 17.6178 78.4802 16.9395 78.4802 16.6174V16.6174ZM77.0931 15.6489C77.0612 17.4234 76.1254 17.9725 75.3506 17.9725C73.6081 17.9406 73.7365 15.2942 73.7365 14.164C73.7365 13.0338 73.8018 10.8073 75.3826 11.001C76.9647 11.1947 77.0938 12.8727 77.0938 13.8731V15.6489H77.0931V15.6489ZM97.4259 13.6828V12.9406H93.1667V13.6828H97.4259ZM87.2982 15.5592V18.3021H87.6523L87.9751 17.5919C88.298 17.8828 88.9762 18.3667 89.8468 18.3667C90.7187 18.3667 91.9455 17.8828 92.43 16.9796C92.9132 16.0757 92.6876 14.5908 91.59 14.1388C90.629 13.7433 89.7863 13.2696 89.1373 12.9447C88.9354 12.8485 88.7698 12.6898 88.6653 12.4921C88.5607 12.2943 88.5227 12.0682 88.5569 11.8471C88.6541 11.3306 89.1054 10.7822 90.1377 10.7496C91.1707 10.7176 91.6865 11.5889 91.817 12.5893H92.1711V10.0081H91.8483L91.4928 10.6211C90.8159 10.1692 90.5251 10.1046 89.912 10.1046C89.299 10.1046 88.266 10.4274 87.685 11.3313C87.1046 12.2352 87.2656 13.6542 88.6541 14.236C90.0412 14.8164 90.6875 15.1718 91.0742 15.3655C91.4616 15.5592 91.6872 16.334 91.4296 16.7859C91.1707 17.2372 90.6875 17.7544 89.9127 17.7544C89.138 17.7544 87.9126 17.2052 87.6217 15.5599H87.2982V15.5592V15.5592ZM103.492 12.3895C104.268 12.1958 105.042 10.808 105.042 9.87218C105.042 8.93635 104.687 7.35488 102.427 7.35488H97.5863V7.77421C98.0708 7.77421 98.9095 7.87139 98.9095 8.67809V16.65C98.9095 17.1019 98.8775 17.8441 97.5863 17.8441V18.296H101.557C102.75 18.296 105.494 18.1988 105.559 15.0366C105.559 13.9709 105.042 12.7123 103.492 12.3895V12.3895ZM100.297 7.87139H101.911C103.106 7.87139 103.589 8.74198 103.589 9.87218C103.589 11.26 103.17 12.3249 101.911 12.3249H100.297V7.87139ZM101.943 17.7795H100.297V12.8414H102.137C103.203 12.8414 104.138 13.5836 104.138 15.197C104.138 16.8111 103.169 17.7795 101.943 17.7795V17.7795ZM118.74 12.4289V17.2052C118.74 17.7863 118.223 17.8835 117.933 17.8835H117.739V18.3028H121.257V17.8835H120.934C120.643 17.8835 120.126 17.7863 120.126 17.2052V12.4615C120.094 10.299 118.158 10.2344 117.481 10.2344C116.77 10.2344 115.995 10.6864 115.835 10.9127C115.646 11.1757 115.414 11.0737 115.382 10.7835C115.35 10.4933 115.222 10.2032 114.897 10.2997C114.28 10.497 113.641 10.6162 112.994 10.6544V10.9772C114.349 10.9127 114.221 11.5902 114.221 11.9131V17.2059C114.221 17.787 113.704 17.8842 113.413 17.8842H112.962V18.3035H116.737V17.8842H116.414C116.123 17.8842 115.607 17.787 115.607 17.2059V12.978C115.607 12.2685 115.866 11.1383 117.189 11.0411C118.514 10.9446 118.74 11.8159 118.74 12.4289V12.4289ZM122.005 12.5906L122.586 10.3962H128.073L123.361 17.8516H125.877C126.458 17.8516 126.91 17.6252 127.523 16.1403H127.782L127.266 18.3028H121.649L126.33 10.8481H124.231C123.715 10.8481 123.135 10.8481 122.328 12.5906H122.005V12.5906Z" fill="white"/>
</svg>
