<svg width="63" height="49" viewBox="0 0 63 49" fill="none" xmlns="http://www.w3.org/2000/svg">
<path fill-rule="evenodd" clip-rule="evenodd" d="M10.2376 23.6469V24.4778C10.2376 36.2026 19.7752 45.7838 31.4997 45.7838C41.256 45.7838 49.4806 39.2216 51.9746 30.2968L17.8497 30.6906L26.075 24.3467L10.2376 23.6469ZM11.0255 18.7908C13.519 9.77827 21.744 3.21569 31.5 3.21569C43.2252 3.21569 52.7621 12.7533 52.7621 24.4778V25.528L36.925 24.8282L45.3687 18.397L11.0255 18.7908ZM7.4816 23.5155L0.0441513 23.2095V18.8781L8.13775 18.7908C10.719 8.29092 20.2126 0.459717 31.5 0.459717C44.7562 0.459717 55.5184 11.2219 55.5184 24.4778C55.5184 24.8722 55.5184 25.2216 55.4751 25.6154L62.9559 25.9214V30.2095L54.8626 30.2968C52.2373 40.7526 42.7877 48.5405 31.5 48.5405C18.2002 48.5405 7.43793 37.778 7.43793 24.4778C7.43793 24.1717 7.43793 23.8656 7.4816 23.5155Z" fill="white"/>
</svg>
