<svg width="88" height="21" viewBox="0 0 88 21" fill="none" xmlns="http://www.w3.org/2000/svg">
<path fill-rule="evenodd" clip-rule="evenodd" d="M47.3557 7.48903L43.8937 15.1516H31.5933V12.8629H43.1092V7.48903H24.1797V20.5249H49.6545L52.8778 12.8629H58.6343L61.8667 20.5249H70.0658L64.2221 7.48903H47.3557ZM64.4813 5.46844H87.4259V0.094595H64.4813V5.46844ZM21.6554 7.49496L4.28143 5.47006H21.6554V0.0962169H6.17786C0.857826 0.0962169 0.195227 3.25524 0.195227 5.47006L21.6554 9.49019V7.49496ZM0.185074 12.1248V12.4043L12.4768 15.1494H0.185074V20.5228H15.7759C19.6778 20.5228 21.6613 19.0557 21.6458 15.1494L0.185074 12.1248ZM21.6495 14.5058V12.6163L0.189349 9.62022V9.90186L21.6495 14.5058ZM21.6538 11.9974V10.1069L0.193089 7.11135V7.39299L21.6538 11.9974ZM24.1808 5.46682H43.1103V0.0908203H24.1808V5.46682ZM48.2732 5.46736H63.3196L60.9107 0.0929773H50.7024L48.2732 5.46736ZM72.2481 20.5271H79.6623V7.49064H72.2481V20.5271Z" fill="white"/>
</svg>
