<svg width="50" height="51" viewBox="0 0 50 51" fill="none" xmlns="http://www.w3.org/2000/svg">
<path fill-rule="evenodd" clip-rule="evenodd" d="M25.0117 0.462158C38.5823 0.462158 49.6757 11.718 49.6757 25.5122C49.6757 39.2828 38.5827 50.5151 25.0117 50.5151C11.4407 50.5151 0.348267 39.2825 0.348267 25.5119C0.348267 11.718 11.4407 0.462158 25.0117 0.462158ZM8.49955 12.047L17.3461 35.3345L20.5882 26.8278H29.0873L32.329 35.3345L41.2683 11.7649C39.6909 9.83384 37.7945 8.19595 35.6638 6.92451L29.4577 24.2665H20.7035L14.4745 6.85363C12.1818 8.19314 10.1671 9.95576 8.49955 12.047ZM44.8353 17.8983L34.761 44.5696C41.5238 40.9742 46.178 33.7837 46.178 25.5122C46.178 22.8332 45.7151 20.2716 44.8353 17.8983ZM30.3608 46.3083L30.292 45.7677L24.8261 31.3864L19.3609 45.7677L19.3379 46.2145C21.1442 46.731 23.0432 46.9898 25.0117 46.9898C26.8641 46.9898 28.6474 46.755 30.3608 46.3083ZM14.845 44.3344L5.0261 18.3683C4.2387 20.6006 3.82171 22.9975 3.82171 25.5119C3.82171 33.5955 8.26812 40.6918 14.845 44.3344ZM25.0117 4.01031C26.8641 4.01031 28.6936 4.2455 30.4307 4.71515L25.0812 19.7311L19.7083 4.69188C21.4404 4.23712 23.2225 4.00809 25.0117 4.01031Z" fill="white"/>
</svg>
