<svg width="26" height="25" viewBox="0 0 26 25" fill="none" xmlns="http://www.w3.org/2000/svg">
<g clip-path="url(#clip0)">
<path d="M25.9948 9.55715C25.9921 9.52844 25.9861 9.50007 25.977 9.47258C25.9711 9.44801 25.9628 9.42404 25.9523 9.40089C25.9402 9.37828 25.9257 9.3569 25.909 9.33712C25.8923 9.31363 25.8729 9.292 25.8514 9.27252C25.8444 9.26671 25.8414 9.25875 25.834 9.25294L21.6665 6.14072V2.91516C21.6665 2.2248 21.0844 1.6651 20.3664 1.6651H15.6701L13.7897 0.261268C13.3252 -0.0870894 12.6738 -0.0870894 12.2093 0.261268L10.3285 1.6651H5.63223C4.91425 1.6651 4.33217 2.22475 4.33217 2.91516V6.14077L0.165911 9.25299C0.158547 9.25884 0.1555 9.26676 0.148593 9.27257C0.12701 9.292 0.107662 9.31368 0.0909538 9.33717C0.0742967 9.35695 0.0597726 9.37828 0.0476352 9.40094C0.037123 9.42404 0.028896 9.44806 0.0229543 9.47262C0.0139148 9.49973 0.00797306 9.52766 0.00517995 9.55598C0.00517995 9.56472 0 9.57224 0 9.58098V23.7495C0.000609406 24.0146 0.0897858 24.2724 0.254376 24.485C0.256966 24.4887 0.257423 24.4933 0.260419 24.4966C0.263467 24.5 0.269967 24.5037 0.274283 24.5083C0.517741 24.8163 0.896385 24.9979 1.29875 24.9996H24.6999C25.1039 24.9984 25.4841 24.8159 25.7278 24.5063C25.7313 24.5021 25.7365 24.5008 25.7395 24.4967C25.7426 24.4925 25.743 24.4888 25.7456 24.485C25.9102 24.2724 25.9994 24.0146 26 23.7496V9.58215C25.9999 9.57341 25.9952 9.56589 25.9948 9.55715ZM12.7393 0.918772C12.8906 0.803141 13.1049 0.803141 13.2563 0.918772L14.256 1.66505H11.7425L12.7393 0.918772ZM1.40793 24.1662L12.7393 15.7029C12.8908 15.5874 13.1049 15.5874 13.2563 15.7029L24.5907 24.1662H1.40793ZM25.1333 23.5166L13.7897 15.0453C13.3251 14.6973 12.6739 14.6973 12.2093 15.0453L0.865356 23.5166V10.2168L7.96676 15.5191C8.15598 15.6602 8.42829 15.6271 8.575 15.4451C8.72172 15.2632 8.68728 15.0014 8.49806 14.8603L1.28356 9.4738L4.33222 7.19575V10.4155C4.33222 10.6456 4.52626 10.8322 4.76555 10.8322C5.0049 10.8322 5.19889 10.6456 5.19889 10.4155V2.91511C5.19889 2.68498 5.39289 2.49844 5.63223 2.49844H20.3663C20.6056 2.49844 20.7996 2.68498 20.7996 2.91511V10.4155C20.7996 10.6456 20.9936 10.8322 21.233 10.8322C21.4723 10.8322 21.6663 10.6456 21.6663 10.4155V7.19575L24.715 9.4738L17.4879 14.8699C17.3636 14.9605 17.2995 15.1084 17.3201 15.2571C17.3407 15.4057 17.4428 15.5323 17.5875 15.5884C17.7322 15.6445 17.8971 15.6216 18.0192 15.5283L25.1332 10.2168V23.5166H25.1333Z" fill="#7D7D7D"/>
<path d="M18.1993 9.99902V8.33228C18.1993 5.57072 15.8711 3.33203 12.9991 3.33203C10.1271 3.33203 7.79883 5.57072 7.79883 8.33228C7.79883 11.0939 10.1271 13.3325 12.9991 13.3325C13.2384 13.3325 13.4324 13.146 13.4324 12.9159C13.4324 12.6857 13.2384 12.4992 12.9991 12.4992C10.6057 12.4992 8.66555 10.6336 8.66555 8.33233C8.66555 6.03105 10.6057 4.16547 12.9991 4.16547C15.3924 4.16547 17.3326 6.03105 17.3326 8.33233V9.99907C17.3326 10.4593 16.9446 10.8325 16.4659 10.8325C15.9872 10.8325 15.5992 10.4593 15.5992 9.99907V8.33233C15.5992 8.1022 15.4052 7.91566 15.1658 7.91566C14.9265 7.91566 14.7325 8.1022 14.7325 8.33233C14.7325 9.25284 13.9564 9.99907 12.9991 9.99907C12.0418 9.99907 11.2657 9.25284 11.2657 8.33233C11.2657 7.41183 12.0418 6.6656 12.9991 6.6656C13.2384 6.6656 13.4324 6.47907 13.4324 6.24893C13.4324 6.01879 13.2384 5.83226 12.9991 5.83226C11.8354 5.82977 10.8116 6.57106 10.4927 7.64719C10.1738 8.72332 10.6373 9.87216 11.6276 10.4599C12.6179 11.0476 13.8936 10.9311 14.7511 10.1746C14.8455 11.0558 15.642 11.711 16.562 11.6641C17.4821 11.6173 18.2022 10.8849 18.1993 9.99902Z" fill="#7D7D7D"/>
</g>
<defs>
<clipPath id="clip0">
<rect width="26" height="25" fill="white"/>
</clipPath>
</defs>
</svg>
