<svg width="26" height="26" viewBox="0 0 26 26" fill="none" xmlns="http://www.w3.org/2000/svg">
<path d="M24.974 20.0429L19.7829 16.5358C19.1242 16.0943 18.2411 16.2396 17.7541 16.8696L16.242 18.8392C16.0477 19.0988 15.6945 19.1741 15.4133 19.0159L15.1257 18.8552C14.1722 18.3287 12.9858 17.6732 10.5954 15.2507C8.20505 12.8283 7.55671 11.6255 7.03698 10.6613L6.87927 10.3699C6.72095 10.0851 6.79387 9.72575 7.05021 9.52731L8.99308 7.99592C9.61472 7.50248 9.75832 6.60816 9.32303 5.94059L5.8612 0.681728C5.4151 0.00193108 4.52009 -0.20214 3.82948 0.218433L1.65878 1.53942C0.976729 1.94563 0.476336 2.60351 0.262526 3.37519C-0.51914 6.2605 0.0688996 11.2401 7.30969 18.5764C13.0696 24.4111 17.3576 25.9802 20.3048 25.9802C20.9831 25.9831 21.6588 25.8937 22.3136 25.7143C23.0754 25.498 23.7249 24.991 24.1257 24.2998L25.4309 22.1021C25.8467 21.4023 25.6453 20.495 24.974 20.0429ZM24.6945 21.6578L23.3922 23.8569C23.1045 24.3558 22.6374 24.7225 22.0887 24.8804C19.4594 25.6117 14.8659 25.006 7.91441 17.9637C0.962956 10.9215 0.365099 6.26831 1.08696 3.60428C1.24303 3.04778 1.60554 2.57393 2.09857 2.28198L4.26927 0.962719C4.56893 0.78006 4.95738 0.868599 5.15096 1.16359L7.03147 4.02379L8.60983 6.422C8.79885 6.71157 8.73675 7.09967 8.46709 7.31394L6.52377 8.84533C5.93237 9.30345 5.76349 10.1324 6.1276 10.7902L6.28191 11.0743C6.82813 12.0892 7.50723 13.3517 9.9865 15.863C12.4658 18.3742 13.7116 19.0622 14.713 19.6155L14.9937 19.7722C15.6431 20.141 16.4614 19.97 16.9136 19.3709L18.4252 17.4022C18.6368 17.1291 19.0197 17.0663 19.3056 17.2576L24.4962 20.7646C24.7876 20.9606 24.875 21.3543 24.6945 21.6578Z" fill="#7D7D7D"/>
<path d="M14.5319 4.33273C18.5426 4.33725 21.7929 7.63015 21.7974 11.6935C21.7974 11.9326 21.9887 12.1265 22.2247 12.1265C22.4608 12.1265 22.6521 11.9326 22.6521 11.6935C22.6471 7.15207 19.0145 3.47177 14.5319 3.4668C14.2958 3.4668 14.1045 3.66063 14.1045 3.89977C14.1045 4.1389 14.2958 4.33273 14.5319 4.33273Z" fill="#7D7D7D"/>
<path d="M14.5319 6.93043C17.127 6.93352 19.23 9.0642 19.233 11.6935C19.233 11.9326 19.4244 12.1265 19.6604 12.1265C19.8965 12.1265 20.0878 11.9326 20.0878 11.6935C20.0842 8.5861 17.5988 6.06801 14.5319 6.06445C14.2958 6.06445 14.1045 6.25829 14.1045 6.49744C14.1045 6.73659 14.2958 6.93043 14.5319 6.93043Z" fill="#7D7D7D"/>
<path d="M14.5318 9.52713C15.7114 9.52856 16.6673 10.4971 16.6687 11.6922C16.6687 11.9314 16.8601 12.1252 17.0961 12.1252C17.3321 12.1252 17.5234 11.9314 17.5234 11.6922C17.5215 10.019 16.1833 8.66301 14.5318 8.66113C14.2958 8.66113 14.1045 8.85498 14.1045 9.09413C14.1045 9.33329 14.2958 9.52713 14.5318 9.52713Z" fill="#7D7D7D"/>
</svg>
